<svg xmlns="http://www.w3.org/2000/svg" viewBox="0 0 100 100"><defs><style>.cls-1,.cls-2,.cls-3{fill:none;}.cls-2,.cls-3{stroke:#fe5000;stroke-linecap:round;stroke-linejoin:round;}.cls-2{stroke-width:1.5px;}.cls-3{stroke-width:2px;}</style></defs><g id="圖層_2" data-name="圖層 2"><g id="內容"><rect class="cls-1" width="100" height="100"/><path class="cls-2" d="M90.18,18.37a1.16,1.16,0,0,0-.87-.31C74,19,50.9,2.87,50.67,2.71a1.17,1.17,0,0,0-1.34,0C49.1,2.87,26,19,10.69,18.06a1.16,1.16,0,0,0-1.24,1.16V58.68c0,.27.5,6.77,5.73,14.83C20,80.88,29.83,91,49.64,97.44a1.11,1.11,0,0,0,.72,0C70.17,91,80,80.88,84.82,73.51c5.23-8.06,5.71-14.56,5.73-14.83V19.22A1.15,1.15,0,0,0,90.18,18.37Z"/><circle class="cls-2" cx="50" cy="42.87" r="16.31"/><path class="cls-2" d="M49,63.8l-8.88,16L36.7,73.27A1.65,1.65,0,0,0,35,72.39l-7.29.91,8-14.41"/><path class="cls-2" d="M64.26,58.89l8,14.41L65,72.39a1.65,1.65,0,0,0-1.68.88L59.93,79.8l-8.88-16"/><path class="cls-2" d="M71.2,46.44a14.58,14.58,0,0,0-1.42,2.85,14.63,14.63,0,0,0-.55,3.26,7.67,7.67,0,0,1-.91,3.63,7.6,7.6,0,0,1-3.2,2,14.86,14.86,0,0,0-2.9,1.52A15,15,0,0,0,59.91,62,7.59,7.59,0,0,1,57,64.41a7.49,7.49,0,0,1-3.68-.27A15.2,15.2,0,0,0,50,63.66a15.2,15.2,0,0,0-3.32.48,7.49,7.49,0,0,1-3.68.27A7.59,7.59,0,0,1,40.09,62a15,15,0,0,0-2.31-2.27,14.86,14.86,0,0,0-2.9-1.52,7.6,7.6,0,0,1-3.2-2,7.67,7.67,0,0,1-.91-3.63,14.63,14.63,0,0,0-.55-3.26,14.58,14.58,0,0,0-1.42-2.85,7.53,7.53,0,0,1-1.45-3.57,7.61,7.61,0,0,1,1.45-3.58,14.3,14.3,0,0,0,1.42-2.85,14.45,14.45,0,0,0,.55-3.25,7.64,7.64,0,0,1,.91-3.63,7.61,7.61,0,0,1,3.2-2,14.81,14.81,0,0,0,2.9-1.51,14.65,14.65,0,0,0,2.31-2.28A7.59,7.59,0,0,1,43,21.32a3.36,3.36,0,0,1,1-.14,13,13,0,0,1,2.66.41,15.2,15.2,0,0,0,3.32.49,15.2,15.2,0,0,0,3.32-.49A7.73,7.73,0,0,1,57,21.32a7.59,7.59,0,0,1,2.91,2.45,14.65,14.65,0,0,0,2.31,2.28,14.81,14.81,0,0,0,2.9,1.51,7.61,7.61,0,0,1,3.2,2,7.64,7.64,0,0,1,.91,3.63,14.45,14.45,0,0,0,.55,3.25,14.3,14.3,0,0,0,1.42,2.85,7.61,7.61,0,0,1,1.45,3.58A7.53,7.53,0,0,1,71.2,46.44Z"/><polyline class="cls-3" points="40.87 44.72 46.17 49.78 59.13 36.59"/></g></g></svg>