<svg xmlns="http://www.w3.org/2000/svg" viewBox="0 0 155.9 100"><defs><style>.cls-1{fill:#be1a20;}.cls-2{fill:#060001;}.cls-3{fill:#dbdcdc;}.cls-4{fill:#b4b4b5;}</style></defs><g id="圖層_2" data-name="圖層 2"><g id="內容"><path id="k" class="cls-1" d="M7.56,100H0V80.53H7.56V100M11.5,84.47,17,80.53H28.51L17.42,87.89,28.1,100H18.5l-7-8.23v-7.3Z"/><path id="o" class="cls-1" d="M58.61,82.06a4.85,4.85,0,0,1,1.53,3.63v9.2a4.91,4.91,0,0,1-1.53,3.63A5.18,5.18,0,0,1,54.93,100H36.69a5.06,5.06,0,0,1-3.63-1.48,4.79,4.79,0,0,1-1.48-3.63v-9.2a5.05,5.05,0,0,1,5.11-5.11H54.93a5,5,0,0,1,3.68,1.48m-5.88,3.33H38.88v9.76H52.73Z"/><path id="j" class="cls-2" d="M70.72,95H84.11v-9.7H63.36V80.53h28.1V94.79a4.55,4.55,0,0,1-1.89,3.68A6.34,6.34,0,0,1,85.49,100h-17a4.91,4.91,0,0,1-3.63-1.53,4.45,4.45,0,0,1-1.48-2.92V90.14h7.36Z"/><path id="e" class="cls-2" d="M101.84,95.15h13.89l7.26-.06.1,4.86H99.59A5,5,0,0,1,96,98.47a4.79,4.79,0,0,1-1.48-3.63v-9.2a5.05,5.05,0,0,1,5.06-5.11h23.5l-.1,4.81H101.84v9.81m4.39-7.06v4.14l15.43.11V88.2Z"/><path id="x" class="cls-2" d="M155.9,100h-9.56l-5.77-6.28L134.79,100h-9.55l10-10.37-9.55-9h9.14l5.78,5.73,5.77-5.73h9.15l-9.61,9Z"/><path id="path3" class="cls-3" d="M112.26,71.28c20.34-25.24,32.4-49.76,23.4-57.89C123.35,2.3,70.77,34.49,36.23,71.28l1.43-1.73c41.28-44.1,95.7-81.86,110.67-65.77,10.12,10.89,2.46,39.2-18.85,67.5Z"/><path id="path2" class="cls-4" d="M82,71.28C99.69,49.31,110.22,28,102.4,20.9,91.67,11.24,45.89,39.3,15.84,71.28l1.28-1.53C53,31.33,100.41-1.48,113.44,12.52,122.27,22,115.58,46.6,97,71.28Z"/><path id="path1" class="cls-1" d="M56.72,71.28c15.07-18.75,24.06-37,17.37-43C65,20,25.91,44,.2,71.28L1.28,70C31.94,37.2,72.4,9.15,83.49,21.11c7.51,8.07,1.84,29.12-14,50.17Z"/></g></g></svg>