<svg xmlns="http://www.w3.org/2000/svg" xmlns:xlink="http://www.w3.org/1999/xlink" viewBox="0 0 177 91.65"><defs><style>.cls-1,.cls-3,.cls-4,.cls-5,.cls-6,.cls-7{fill-rule:evenodd;}.cls-2{fill:#221714;}.cls-3{fill:#d30066;}.cls-4{fill:url(#linear-gradient);}.cls-5{fill:url(#linear-gradient-2);}.cls-6{fill:url(#linear-gradient-3);}.cls-7{fill:url(#linear-gradient-4);}</style><linearGradient id="linear-gradient" x1="25.85" y1="49.09" x2="25.85" y2="89.32" gradientUnits="userSpaceOnUse"><stop offset="0.04" stop-color="#0063a9"/><stop offset="0.42" stop-color="#fff"/><stop offset="0.42" stop-color="#fbf3ef"/><stop offset="0.42" stop-color="#f1d7cb"/><stop offset="0.42" stop-color="#e8bfab"/><stop offset="0.42" stop-color="#e1aa8f"/><stop offset="0.43" stop-color="#db9979"/><stop offset="0.43" stop-color="#d78d68"/><stop offset="0.44" stop-color="#d3845d"/><stop offset="0.44" stop-color="#d27e56"/><stop offset="0.46" stop-color="#d17d54"/><stop offset="0.54" stop-color="#d69112"/><stop offset="0.6" stop-color="#d9a123"/><stop offset="0.9" stop-color="#fff"/></linearGradient><linearGradient id="linear-gradient-2" x1="50.18" y1="49.09" x2="50.18" y2="89.32" xlink:href="#linear-gradient"/><linearGradient id="linear-gradient-3" x1="73.38" y1="49.09" x2="73.38" y2="89.32" xlink:href="#linear-gradient"/><linearGradient id="linear-gradient-4" x1="132.85" y1="49.09" x2="132.85" y2="89.32" xlink:href="#linear-gradient"/></defs><g id="圖層_2" data-name="圖層 2"><g id="內容"><path class="cls-1" d="M66.59,54.48c-2.87,1.88-6.18,1.9-7.42,0s.09-4.92,3-6.8,6.18-1.9,7.42,0S69.46,52.6,66.59,54.48Z"/><polygon class="cls-1" points="21.95 45.87 32.41 45.87 34.28 69.42 43.97 45.87 54.54 45.87 35.6 90.58 27.57 90.58 24.04 65.32 12.39 90.58 2.84 90.58 21.95 45.87"/><polygon class="cls-1" points="54.71 59.69 64.43 59.69 51.3 90.58 41.57 90.58 54.71 59.69"/><path class="cls-1" d="M70.75,59.69h8.52L78,63.09s5.47-4.91,11.75-3.76,5.74,6.94,3.55,12S85,90.58,85,90.58H75.63l8.42-19.51s2-4.79-1.71-4.79-5.59,3.2-7.64,6.84-7.63,17.46-7.63,17.46H57.61Z"/><path class="cls-1" d="M158.29,1.28C146.4.68,130,11.24,123,25.8c-2.44,5-4.3,10.43-3.78,16.08,2.06,22.12,26.45,14,26.45,14-9,15.05-19.72,26.92-32.94,29.2s-8.56-7.87-8.56-7.87h19.5c2.17-2.17,6.5-17.63-6-18.13-14.64-.59-21.67,16.19-21.67,16.19-4.45,9.24-.57,22.58,27.25,13.12,30-10.2,51.79-41.62,53.71-64S158.29,1.28,158.29,1.28ZM115.64,65.6c4.1,1.26,1.39,5.7,1.39,5.7H106.64S110.79,64.12,115.64,65.6Zm43.79-43.9c-1,4.1-8.1,24.74-8.1,24.74s-3.08,6.16-7.53,4.67-6.27-3.42-4.78-13.68,7.41-24.29,7.41-24.29,3.46-10.45,11.41-6.84C162.85,8.58,160.45,17.59,159.43,21.7Z"/><path class="cls-2" d="M159.59,75.68A6.33,6.33,0,0,1,165.93,82a6,6,0,0,1-1.84,4.45,6.29,6.29,0,0,1-4.5,1.88A6.39,6.39,0,0,1,153.27,82a6.23,6.23,0,0,1,1.92-4.53A5.87,5.87,0,0,1,159.59,75.68Zm5.5,6.37a5.45,5.45,0,0,0-5.49-5.55,5.12,5.12,0,0,0-3.83,1.57A5.4,5.4,0,0,0,154.1,82a5.31,5.31,0,0,0,1.61,3.85,5.2,5.2,0,0,0,3.83,1.63,5.45,5.45,0,0,0,4-1.61A5.12,5.12,0,0,0,165.09,82.05Zm-5.33-3.75c2,0,3,.65,3,2a1.8,1.8,0,0,1-1.65,1.93l1.61,3.27h-1.54l-1.45-3H158.4v3h-1.35V78.3Zm-.24.86H158.4v2.39h1.14q1.83,0,1.83-1.14C161.37,79.58,160.75,79.16,159.52,79.16Z"/><path class="cls-3" d="M63.77,53.22c-2.88,1.88-6.19,1.9-7.43,0s.09-4.92,3-6.8,6.19-1.89,7.42,0S66.63,51.34,63.77,53.22Z"/><polygon class="cls-4" points="19.11 44.61 29.57 44.61 31.45 68.16 41.13 44.61 51.71 44.61 32.77 89.32 24.74 89.32 21.21 64.06 9.57 89.32 0 89.32 19.11 44.61"/><polygon class="cls-5" points="51.88 58.43 61.61 58.43 48.46 89.32 38.75 89.32 51.88 58.43"/><path class="cls-6" d="M67.91,58.43h8.53l-1.27,3.4s5.49-4.91,11.75-3.76S92.66,65,90.46,70s-8.32,19.29-8.32,19.29H72.79l8.43-19.51s2-4.78-1.71-4.78-5.59,3.19-7.64,6.84-7.62,17.45-7.62,17.45H54.78Z"/><path class="cls-7" d="M155.46,0c-11.89-.59-28.29,10-35.36,24.52-2.42,5-4.28,10.43-3.76,16.07,2,22.13,26.45,14,26.45,14-9,15.06-19.72,26.91-32.95,29.2S101.29,76,101.29,76H120.8c2.15-2.16,6.49-17.63-6.06-18.13C100.11,57.25,93.08,74,93.08,74c-4.44,9.24-.58,22.58,27.25,13.11,30-10.19,51.77-41.62,53.72-64S155.46,0,155.46,0ZM112.81,64.34c4.11,1.25,1.38,5.69,1.38,5.69H103.82S108,62.86,112.81,64.34Zm43.78-43.91c-1,4.11-8.09,24.75-8.09,24.75s-3.07,6.16-7.52,4.68-6.29-3.42-4.8-13.69,7.42-24.29,7.42-24.29S147.06,1.43,155,5C160,7.32,157.63,16.33,156.59,20.43Z"/></g></g></svg>