<svg xmlns="http://www.w3.org/2000/svg" viewBox="0 0 174.16 90.4"><defs><style>.cls-1,.cls-2{fill:#b4b4b5;}.cls-1{fill-rule:evenodd;}</style></defs><g id="圖層_2" data-name="圖層 2"><g id="內容"><path class="cls-1" d="M63.75,53.22c-2.87,1.88-6.18,1.9-7.42,0s.1-4.92,3-6.8,6.19-1.89,7.42,0S66.62,51.34,63.75,53.22Z"/><polygon class="cls-1" points="19.11 44.61 29.57 44.61 31.44 68.16 41.13 44.61 51.7 44.61 32.77 89.32 24.74 89.32 21.2 64.06 9.55 89.32 0 89.32 19.11 44.61"/><polygon class="cls-1" points="51.87 58.43 61.6 58.43 48.46 89.32 38.73 89.32 51.87 58.43"/><path class="cls-1" d="M67.92,58.43h8.52l-1.28,3.4s5.47-4.9,11.75-3.76S92.65,65,90.46,70s-8.32,19.28-8.32,19.28H72.79l8.42-19.51S83.26,65,79.5,65s-5.58,3.19-7.64,6.84-7.63,17.45-7.63,17.45H54.77Z"/><path class="cls-1" d="M155.45,0c-11.89-.59-28.29,10-35.34,24.52-2.44,5-4.29,10.43-3.78,16.08,2.06,22.12,26.46,14,26.46,14-9,15.05-19.72,26.91-32.95,29.19S101.28,76,101.28,76h19.5c2.18-2.17,6.5-17.63-6-18.13C100.11,57.25,93.07,74,93.07,74c-4.45,9.23-.57,22.57,27.25,13.11,30-10.2,51.79-41.62,53.71-64S155.45,0,155.45,0ZM112.8,64.34c4.1,1.26,1.39,5.7,1.39,5.7H103.8S108,62.86,112.8,64.34Zm43.79-43.9c-1,4.1-8.09,24.74-8.09,24.74s-3.08,6.16-7.53,4.68-6.28-3.42-4.79-13.68,7.41-24.3,7.41-24.3S147.05,1.43,155,5C160,7.32,157.61,16.33,156.59,20.44Z"/><path class="cls-2" d="M156.75,74.42a6.33,6.33,0,0,1,6.34,6.33,6,6,0,0,1-1.84,4.45,6.27,6.27,0,0,1-4.5,1.88,6.4,6.4,0,0,1-6.32-6.33,6.23,6.23,0,0,1,1.92-4.53A5.91,5.91,0,0,1,156.75,74.42Zm5.5,6.38a5.46,5.46,0,0,0-5.49-5.56,5.12,5.12,0,0,0-3.83,1.57,5.45,5.45,0,0,0-1.67,3.94,5.31,5.31,0,0,0,1.61,3.85,5.2,5.2,0,0,0,3.84,1.63,5.43,5.43,0,0,0,3.94-1.61A5.08,5.08,0,0,0,162.25,80.8ZM156.92,77c2,0,3,.65,3,2a1.8,1.8,0,0,1-1.66,1.93l1.61,3.27h-1.53l-1.46-3h-1.33v3h-1.35V77Zm-.24.87h-1.12v2.38h1.15c1.21,0,1.82-.37,1.82-1.14S157.91,77.91,156.68,77.91Z"/></g></g></svg>