<svg xmlns="http://www.w3.org/2000/svg" xmlns:xlink="http://www.w3.org/1999/xlink" viewBox="0 0 220 220"><defs><style>.cls-1{fill:none;}.cls-2{fill:#fe5000;}.cls-3{opacity:0.2;}.cls-4{clip-path:url(#clip-path);}.cls-5{fill:#fff;}.cls-6{fill:#fefefe;}.cls-7{fill:#fdfdfd;}.cls-8{fill:#fcfcfc;}.cls-9{fill:#fbfbfb;}.cls-10{fill:#fafafa;}.cls-11{fill:#f9f9f9;}.cls-12{fill:#f8f8f8;}.cls-13{fill:#f6f6f6;}.cls-14{fill:#f5f5f5;}.cls-15{fill:#f4f4f4;}.cls-16{fill:#f3f3f3;}.cls-17{fill:#f1f1f1;}.cls-18{fill:#f0f0f0;}.cls-19{fill:#eee;}.cls-20{fill:#ededed;}.cls-21{fill:#ebebeb;}.cls-22{fill:#e9e9e9;}.cls-23{fill:#e7e7e7;}.cls-24{fill:#e5e5e5;}.cls-25{fill:#e3e3e3;}.cls-26{fill:#e1e1e1;}.cls-27{fill:#dfdfdf;}.cls-28{clip-path:url(#clip-path-2);}</style><clipPath id="clip-path"><path class="cls-1" d="M196.35,110A86.35,86.35,0,0,1,50,172.07l-2-2A86.35,86.35,0,0,1,170,47.93l2,2A86.08,86.08,0,0,1,196.35,110Z"/></clipPath><clipPath id="clip-path-2"><circle class="cls-1" cx="110" cy="110" r="81.95" transform="translate(-45.56 110) rotate(-45)"/></clipPath></defs><g id="圖層_2" data-name="圖層 2"><g id="內容"><path class="cls-2" d="M220,110a109.89,109.89,0,1,1-.74-12.84A110,110,0,0,1,220,110Z"/><g class="cls-3"><path d="M220,110A110.1,110.1,0,0,1,97.16,219.26L47.93,170a86.09,86.09,0,0,1-14.76-20.58L149.45,33.17A86.09,86.09,0,0,1,170,47.93l49.23,49.23A111,111,0,0,1,220,110Z"/></g><g class="cls-4"><polygon class="cls-5" points="64.33 23.65 23.65 65.31 23.65 23.65 64.33 23.65"/><polygon class="cls-5" points="72.55 23.65 23.65 73.73 23.65 65.31 64.33 23.65 72.55 23.65"/><polygon class="cls-5" points="80.77 23.65 23.65 82.15 23.65 73.73 72.55 23.65 80.77 23.65"/><polygon class="cls-5" points="88.99 23.65 23.65 90.57 23.65 82.15 80.77 23.65 88.99 23.65"/><polygon class="cls-5" points="97.21 23.65 23.65 98.98 23.65 90.57 88.99 23.65 97.21 23.65"/><polygon class="cls-5" points="105.43 23.65 23.65 107.4 23.65 98.98 97.21 23.65 105.43 23.65"/><polygon class="cls-6" points="113.65 23.65 23.65 115.82 23.65 107.4 105.43 23.65 113.65 23.65"/><polygon class="cls-6" points="121.87 23.65 23.65 124.24 23.65 115.82 113.65 23.65 121.87 23.65"/><polygon class="cls-6" points="130.09 23.65 23.65 132.65 23.65 124.24 121.87 23.65 130.09 23.65"/><polygon class="cls-7" points="138.31 23.65 23.65 141.07 23.65 132.65 130.09 23.65 138.31 23.65"/><polygon class="cls-7" points="146.53 23.65 23.81 149.32 23.65 149.16 23.65 141.07 138.31 23.65 146.53 23.65"/><polygon class="cls-8" points="148.03 23.65 151.47 27.01 28.02 153.43 23.81 149.32 146.53 23.65 148.03 23.65"/><rect class="cls-8" x="3.5" y="89.33" width="176.7" height="5.88" transform="translate(-38.34 93.52) rotate(-45.68)"/><rect class="cls-9" x="7.71" y="93.44" width="176.7" height="5.88" transform="translate(-40.01 97.77) rotate(-45.68)"/><rect class="cls-10" x="11.91" y="97.55" width="176.7" height="5.88" transform="translate(-41.68 102.02) rotate(-45.68)"/><rect class="cls-11" x="16.12" y="101.66" width="176.7" height="5.88" transform="translate(-43.36 106.27) rotate(-45.68)"/><rect class="cls-11" x="20.33" y="105.77" width="176.7" height="5.88" transform="translate(-45.03 110.52) rotate(-45.68)"/><rect class="cls-12" x="24.54" y="109.88" width="176.7" height="5.88" transform="translate(-46.7 114.76) rotate(-45.68)"/><rect class="cls-13" x="28.74" y="113.98" width="176.7" height="5.88" transform="translate(-48.37 119.01) rotate(-45.68)"/><rect class="cls-14" x="32.95" y="118.09" width="176.7" height="5.88" transform="translate(-50.04 123.26) rotate(-45.68)"/><rect class="cls-15" x="37.16" y="122.2" width="176.7" height="5.88" transform="translate(-51.71 127.51) rotate(-45.68)"/><rect class="cls-16" x="41.37" y="126.31" width="176.7" height="5.88" transform="translate(-53.38 131.76) rotate(-45.68)"/><polygon class="cls-17" points="193.54 68.09 196.35 70.83 196.35 73.64 76.52 196.35 71.97 196.35 70.09 194.52 193.54 68.09"/><polygon class="cls-18" points="196.35 82.05 84.74 196.35 76.52 196.35 196.35 73.64 196.35 82.05"/><polygon class="cls-19" points="196.35 90.47 92.96 196.35 84.74 196.35 196.35 82.05 196.35 90.47"/><polygon class="cls-20" points="196.35 98.89 101.18 196.35 92.96 196.35 196.35 90.47 196.35 98.89"/><polygon class="cls-21" points="196.35 107.31 109.4 196.35 101.18 196.35 196.35 98.89 196.35 107.31"/><polygon class="cls-22" points="196.35 115.72 117.62 196.35 109.4 196.35 196.35 107.31 196.35 115.72"/><polygon class="cls-23" points="196.35 124.14 125.84 196.35 117.62 196.35 196.35 115.72 196.35 124.14"/><polygon class="cls-24" points="196.35 132.56 134.06 196.35 125.84 196.35 196.35 124.14 196.35 132.56"/><polygon class="cls-25" points="196.35 140.97 142.28 196.35 134.06 196.35 196.35 132.56 196.35 140.97"/><polygon class="cls-26" points="196.35 149.39 150.5 196.35 142.28 196.35 196.35 140.97 196.35 149.39"/><polygon class="cls-27" points="196.35 157.81 158.72 196.35 150.5 196.35 196.35 149.39 196.35 157.81"/><polygon class="cls-27" points="158.72 196.35 196.35 157.81 196.35 196.35 158.72 196.35"/></g><g class="cls-28"><polygon class="cls-27" points="70.19 28.05 28.05 74.03 28.05 28.05 70.19 28.05"/><polygon class="cls-27" points="77.3 28.05 28.05 81.78 28.05 74.03 70.19 28.05 77.3 28.05"/><polygon class="cls-26" points="84.41 28.05 28.05 89.53 28.05 81.78 77.3 28.05 84.41 28.05"/><polygon class="cls-25" points="91.51 28.05 28.05 97.28 28.05 89.53 84.41 28.05 91.51 28.05"/><polygon class="cls-24" points="98.62 28.05 28.05 105.03 28.05 97.28 91.51 28.05 98.62 28.05"/><polygon class="cls-23" points="105.72 28.05 28.05 112.78 28.05 105.03 98.62 28.05 105.72 28.05"/><polygon class="cls-22" points="112.83 28.05 28.05 120.53 28.05 112.78 105.72 28.05 112.83 28.05"/><polygon class="cls-21" points="119.93 28.05 28.05 128.28 28.05 120.53 112.83 28.05 119.93 28.05"/><polygon class="cls-20" points="127.04 28.05 28.05 136.04 28.05 128.28 119.93 28.05 127.04 28.05"/><polygon class="cls-19" points="134.14 28.05 28.05 143.79 28.05 136.04 127.04 28.05 134.14 28.05"/><polygon class="cls-18" points="141.25 28.05 28.05 151.54 28.05 143.79 134.14 28.05 141.25 28.05"/><polygon class="cls-17" points="148.35 28.05 28.05 159.29 28.05 151.54 141.25 28.05 148.35 28.05"/><polygon class="cls-16" points="155.46 28.05 31.08 163.74 28.05 160.96 28.05 159.29 148.35 28.05 155.46 28.05"/><polygon class="cls-15" points="158.15 28.05 160.55 30.25 34.94 167.28 31.08 163.74 155.46 28.05 158.15 28.05"/><rect class="cls-14" x="6.73" y="97.91" width="185.89" height="5.24" transform="translate(-41.79 106.08) rotate(-47.49)"/><rect class="cls-13" x="10.59" y="101.45" width="185.89" height="5.24" transform="translate(-43.14 110.07) rotate(-47.49)"/><rect class="cls-12" x="14.45" y="104.99" width="185.89" height="5.24" transform="translate(-44.5 114.06) rotate(-47.49)"/><rect class="cls-11" x="18.31" y="108.53" width="185.89" height="5.24" transform="translate(-45.86 118.06) rotate(-47.49)"/><rect class="cls-11" x="22.17" y="112.07" width="185.89" height="5.24" transform="translate(-47.22 122.05) rotate(-47.49)"/><rect class="cls-10" x="26.03" y="115.61" width="185.89" height="5.24" transform="translate(-48.57 126.04) rotate(-47.49)"/><polygon class="cls-9" points="183.71 51.49 187.57 55.02 62.06 191.95 61.85 191.95 58.1 188.51 183.71 51.49"/><polygon class="cls-8" points="187.57 55.02 191.44 58.56 69.17 191.95 62.06 191.95 187.57 55.02"/><polygon class="cls-8" points="191.44 58.56 191.95 59.04 191.95 65.75 76.27 191.95 69.17 191.95 191.44 58.56"/><polygon class="cls-7" points="191.95 73.5 83.38 191.95 76.27 191.95 191.95 65.75 191.95 73.5"/><polygon class="cls-7" points="191.95 81.26 90.48 191.95 83.38 191.95 191.95 73.5 191.95 81.26"/><polygon class="cls-6" points="191.95 89.01 97.59 191.95 90.48 191.95 191.95 81.26 191.95 89.01"/><polygon class="cls-6" points="191.95 96.76 104.69 191.95 97.59 191.95 191.95 89.01 191.95 96.76"/><polygon class="cls-6" points="191.95 104.51 111.8 191.95 104.69 191.95 191.95 96.76 191.95 104.51"/><polygon class="cls-5" points="191.95 112.26 118.9 191.95 111.8 191.95 191.95 104.51 191.95 112.26"/><polygon class="cls-5" points="191.95 120.01 126.01 191.95 118.9 191.95 191.95 112.26 191.95 120.01"/><polygon class="cls-5" points="191.95 127.76 133.11 191.95 126.01 191.95 191.95 120.01 191.95 127.76"/><polygon class="cls-5" points="191.95 135.52 140.22 191.95 133.11 191.95 191.95 127.76 191.95 135.52"/><polygon class="cls-5" points="191.95 143.27 147.32 191.95 140.22 191.95 191.95 135.52 191.95 143.27"/><polygon class="cls-5" points="147.32 191.95 191.95 143.27 191.95 191.95 147.32 191.95"/></g><g class="cls-28"><polygon class="cls-27" points="70.19 28.05 28.05 74.03 28.05 28.05 70.19 28.05"/><polygon class="cls-27" points="77.3 28.05 28.05 81.78 28.05 74.03 70.19 28.05 77.3 28.05"/><polygon class="cls-26" points="84.41 28.05 28.05 89.53 28.05 81.78 77.3 28.05 84.41 28.05"/><polygon class="cls-25" points="91.51 28.05 28.05 97.28 28.05 89.53 84.41 28.05 91.51 28.05"/><polygon class="cls-24" points="98.62 28.05 28.05 105.03 28.05 97.28 91.51 28.05 98.62 28.05"/><polygon class="cls-23" points="105.72 28.05 28.05 112.78 28.05 105.03 98.62 28.05 105.72 28.05"/><polygon class="cls-22" points="112.83 28.05 28.05 120.53 28.05 112.78 105.72 28.05 112.83 28.05"/><polygon class="cls-21" points="119.93 28.05 28.05 128.28 28.05 120.53 112.83 28.05 119.93 28.05"/><polygon class="cls-20" points="127.04 28.05 28.05 136.04 28.05 128.28 119.93 28.05 127.04 28.05"/><polygon class="cls-19" points="134.14 28.05 28.05 143.79 28.05 136.04 127.04 28.05 134.14 28.05"/><polygon class="cls-18" points="141.25 28.05 28.05 151.54 28.05 143.79 134.14 28.05 141.25 28.05"/><polygon class="cls-17" points="148.35 28.05 28.05 159.29 28.05 151.54 141.25 28.05 148.35 28.05"/><polygon class="cls-16" points="155.46 28.05 31.08 163.74 28.05 160.96 28.05 159.29 148.35 28.05 155.46 28.05"/><polygon class="cls-15" points="158.15 28.05 160.55 30.25 34.94 167.28 31.08 163.74 155.46 28.05 158.15 28.05"/><rect class="cls-14" x="6.73" y="97.91" width="185.89" height="5.24" transform="translate(-41.79 106.08) rotate(-47.49)"/><rect class="cls-13" x="10.59" y="101.45" width="185.89" height="5.24" transform="translate(-43.14 110.07) rotate(-47.49)"/><rect class="cls-12" x="14.45" y="104.99" width="185.89" height="5.24" transform="translate(-44.5 114.06) rotate(-47.49)"/><rect class="cls-11" x="18.31" y="108.53" width="185.89" height="5.24" transform="translate(-45.86 118.06) rotate(-47.49)"/><rect class="cls-11" x="22.17" y="112.07" width="185.89" height="5.24" transform="translate(-47.22 122.05) rotate(-47.49)"/><rect class="cls-10" x="26.03" y="115.61" width="185.89" height="5.24" transform="translate(-48.57 126.04) rotate(-47.49)"/><polygon class="cls-9" points="183.71 51.49 187.57 55.02 62.06 191.95 61.85 191.95 58.1 188.51 183.71 51.49"/><polygon class="cls-8" points="187.57 55.02 191.44 58.56 69.17 191.95 62.06 191.95 187.57 55.02"/><polygon class="cls-8" points="191.44 58.56 191.95 59.04 191.95 65.75 76.27 191.95 69.17 191.95 191.44 58.56"/><polygon class="cls-7" points="191.95 73.5 83.38 191.95 76.27 191.95 191.95 65.75 191.95 73.5"/><polygon class="cls-7" points="191.95 81.26 90.48 191.95 83.38 191.95 191.95 73.5 191.95 81.26"/><polygon class="cls-6" points="191.95 89.01 97.59 191.95 90.48 191.95 191.95 81.26 191.95 89.01"/><polygon class="cls-6" points="191.95 96.76 104.69 191.95 97.59 191.95 191.95 89.01 191.95 96.76"/><polygon class="cls-6" points="191.95 104.51 111.8 191.95 104.69 191.95 191.95 96.76 191.95 104.51"/><polygon class="cls-5" points="191.95 112.26 118.9 191.95 111.8 191.95 191.95 104.51 191.95 112.26"/><polygon class="cls-5" points="191.95 120.01 126.01 191.95 118.9 191.95 191.95 112.26 191.95 120.01"/><polygon class="cls-5" points="191.95 127.76 133.11 191.95 126.01 191.95 191.95 120.01 191.95 127.76"/><polygon class="cls-5" points="191.95 135.52 140.22 191.95 133.11 191.95 191.95 127.76 191.95 135.52"/><polygon class="cls-5" points="191.95 143.27 147.32 191.95 140.22 191.95 191.95 135.52 191.95 143.27"/><polygon class="cls-5" points="147.32 191.95 191.95 143.27 191.95 191.95 147.32 191.95"/></g><path d="M82.43,122.85h-1.6a11.72,11.72,0,0,1-2,4,11.46,11.46,0,0,0,4,1.88,7.85,7.85,0,0,0-1.57,2.2,12.43,12.43,0,0,1-4.13-2.34,14.52,14.52,0,0,1-4.38,2.34,8.07,8.07,0,0,0-1.43-1.9l-.14-.11-.91,1.19c-.71-.53-1.56-1.14-2.58-1.83v2.46H65.23v-2.27A14.77,14.77,0,0,1,62,130.86a8.17,8.17,0,0,0-1.57-1.76,13.35,13.35,0,0,0,3.78-2.34H61.45v-4.64h3.78v-.82H60.91v-1.9h4.32v-1.22h2.48v1.22H72v1.9H67.71v.82h3.91v1.34a11.59,11.59,0,0,0,2.93-5.25l2.53.56a18.32,18.32,0,0,1-.63,1.83h6Zm-9.49,13.87v1.17h9.61v2.35H60.73v-2.35h3.51v-3.58H67v3.58h3.21v-4.38h-8v-2.25h18.9v2.25H72.94v1.13h6.21v2.08Zm-9.29-12.94v1.32h1.58v-1.32Zm5.63,0H67.71v1.32h1.57Zm2.37,4.57-.4.52a11.79,11.79,0,0,0,4.19-2,13.86,13.86,0,0,1-1.4-2.09A12.69,12.69,0,0,1,73,125.87a11.67,11.67,0,0,0-1.34-1.52v2.41h-3Zm6.49-5.5H75.47A10.83,10.83,0,0,0,77,125.19,8.74,8.74,0,0,0,78.14,122.85Z"/><path d="M95.11,118.21h3a23.43,23.43,0,0,0,7.4,6.79,23,23,0,0,0,2.88,1.46A14.87,14.87,0,0,0,106.5,129a27.59,27.59,0,0,1-3.68-2.29v1.66H90.87v-1.69a33.55,33.55,0,0,1-3.73,2.37,9.54,9.54,0,0,0-1.78-2.34,25.51,25.51,0,0,0,7.48-5.6A19.93,19.93,0,0,0,95.11,118.21Zm-5.83,22.4v-9.84h15.23v9.84h-2.93v-.89H92.09v.89ZM92,125.87h9.7A25.4,25.4,0,0,1,96.73,121,24.28,24.28,0,0,1,92,125.87Zm9.63,7.43H92.09v3.91h9.49Z"/><path d="M120.85,134.89,118.93,137a39.44,39.44,0,0,0-2.39-3.45,12,12,0,0,1-3.92,6.75,8.15,8.15,0,0,0-1.75-1.89l-.19-.15q3.24-2.4,3.7-8.27H111v-2.58h3.47v-3h-3.12v-2.53h3.12v-3.42h2.67v3.42h3v2.53h-3v3h3.4V130h-3.5l0,.59c1.12,1.15,2.35,2.53,3.68,4.12A.8.8,0,0,0,120.85,134.89Zm8.91,2.75h.82c.19,0,.31-.16.37-.47a14.86,14.86,0,0,0,.14-2.37,6.82,6.82,0,0,0,2.35,1c-.14,2.06-.51,3.34-1.1,3.84a2.25,2.25,0,0,1-1.48.45h-1.59c-1.16,0-1.9-.32-2.23-1a5.38,5.38,0,0,1-.33-2.2v-4.18h-1.24a9.77,9.77,0,0,1-2,5.44,9.19,9.19,0,0,1-3.68,2.39,5.9,5.9,0,0,0-1.38-2l-.16-.16a6.12,6.12,0,0,0,4-3.21,10.13,10.13,0,0,0,.59-2.49h-1.55V119h10.66v13.75h-2.57v4.13c0,.44.07.67.23.7A.5.5,0,0,0,129.76,137.64Zm-5.86-16.11v1.41h5.25v-1.41Zm0,3.68v1.41h5.25v-1.41Zm0,3.64v1.43h5.25v-1.43Z"/><path d="M148.44,119.47v2.3h1.29v1.73h-1.29v2.39H144v.73h4.68v1.57H144v.7h5.55v1.81H136.23v-1.81h5.25v-.7h-4.22v-1.57h4.22v-.73h-4.17v-1.52h4.17v-.87h-5.39v-1.73h5.39V121h-4.1v-1.55h4.1v-1.29H144v1.29Zm-12.16,20.58-.19-2.23q7.41-.21,13.57-.47l-.07,2.14Q138.59,140,136.28,140.05Zm1.05-8.65h11.23v5.49H137.33Zm2.21,1.31v.8h2.22v-.8Zm0,2.07v.77h2.22v-.77ZM144,121v.75h2V121Zm2,3.35v-.87h-2v.87Zm.19,9.14v-.8h-2.11v.8Zm0,2v-.77h-2.11v.77ZM153,121.09v13.5h-2.6v-13.5Zm1.92-2.44h2.7v18.63a3,3,0,0,1-.85,2.51l-.33.19a9.7,9.7,0,0,1-4.05.56,10.33,10.33,0,0,0-.87-2.81c.85,0,1.8.05,2.86.05.35,0,.53-.2.54-.5Z"/><path class="cls-2" d="M90.35,73A7.74,7.74,0,0,1,91,69.8a7.44,7.44,0,0,1,1.67-2.4,7.29,7.29,0,0,1,2.43-1.52A7.94,7.94,0,0,1,98,65.35a8,8,0,0,1,2.88.53,7.34,7.34,0,0,1,2.42,1.52,7.63,7.63,0,0,1,1.68,2.4,7.91,7.91,0,0,1,.62,3.2V93.9a7.87,7.87,0,0,1-.62,3.2,7.41,7.41,0,0,1-1.68,2.4,7.21,7.21,0,0,1-2.42,1.53,8,8,0,0,1-2.88.52,7.93,7.93,0,0,1-2.87-.52,7.16,7.16,0,0,1-2.43-1.53A7.23,7.23,0,0,1,91,97.1a7.71,7.71,0,0,1-.63-3.2Zm5.1,20.9a2.5,2.5,0,0,0,.7,1.83,2.61,2.61,0,0,0,3.6,0,2.5,2.5,0,0,0,.7-1.83V73a2.5,2.5,0,0,0-.7-1.82,2.58,2.58,0,0,0-3.6,0,2.5,2.5,0,0,0-.7,1.82Z"/><path class="cls-2" d="M111.45,101.25v-4.8l9.2-17.35a6.27,6.27,0,0,0,.8-2.27,23.52,23.52,0,0,0,.1-2.43c0-.43,0-.89,0-1.37a3.39,3.39,0,0,0-.28-1.28,2.46,2.46,0,0,0-.75-.92,2.39,2.39,0,0,0-1.45-.38,2.31,2.31,0,0,0-2.5,2.55v2.9h-5.1V73.1a7.58,7.58,0,0,1,.6-3,7.78,7.78,0,0,1,1.65-2.45A7.6,7.6,0,0,1,116.1,66a7.2,7.2,0,0,1,3-.63,7.55,7.55,0,0,1,3.43.73,6.77,6.77,0,0,1,2.37,2,8.88,8.88,0,0,1,1.33,2.85,13.36,13.36,0,0,1,.42,3.4c0,.87,0,1.6-.05,2.18a12.51,12.51,0,0,1-.2,1.67,7.39,7.39,0,0,1-.5,1.6c-.23.54-.55,1.19-1,2l-7.5,14.45h9.2v5.1Z"/></g></g></svg>