<svg xmlns="http://www.w3.org/2000/svg" xmlns:xlink="http://www.w3.org/1999/xlink" viewBox="0 0 220 220"><defs><style>.cls-1{fill:none;}.cls-2{fill:#fe5000;}.cls-3{opacity:0.2;}.cls-4{clip-path:url(#clip-path);}.cls-5{fill:#fff;}.cls-6{fill:#fefefe;}.cls-7{fill:#fdfdfd;}.cls-8{fill:#fcfcfc;}.cls-9{fill:#fbfbfb;}.cls-10{fill:#fafafa;}.cls-11{fill:#f9f9f9;}.cls-12{fill:#f8f8f8;}.cls-13{fill:#f6f6f6;}.cls-14{fill:#f5f5f5;}.cls-15{fill:#f4f4f4;}.cls-16{fill:#f3f3f3;}.cls-17{fill:#f1f1f1;}.cls-18{fill:#f0f0f0;}.cls-19{fill:#eee;}.cls-20{fill:#ededed;}.cls-21{fill:#ebebeb;}.cls-22{fill:#e9e9e9;}.cls-23{fill:#e7e7e7;}.cls-24{fill:#e5e5e5;}.cls-25{fill:#e3e3e3;}.cls-26{fill:#e1e1e1;}.cls-27{fill:#dfdfdf;}.cls-28{clip-path:url(#clip-path-2);}</style><clipPath id="clip-path"><path class="cls-1" d="M196.35,110A86.35,86.35,0,0,1,50,172.07l-2-2A86.35,86.35,0,0,1,170,47.93l2,2A86.08,86.08,0,0,1,196.35,110Z"/></clipPath><clipPath id="clip-path-2"><circle class="cls-1" cx="110" cy="110" r="81.95" transform="translate(-45.56 110) rotate(-45)"/></clipPath></defs><g id="圖層_2" data-name="圖層 2"><g id="內容"><path class="cls-2" d="M220,110a109.89,109.89,0,1,1-.74-12.84A110,110,0,0,1,220,110Z"/><g class="cls-3"><path d="M220,110A110.1,110.1,0,0,1,97.16,219.26L47.93,170a86.09,86.09,0,0,1-14.76-20.58L149.45,33.17A86.09,86.09,0,0,1,170,47.93l49.23,49.23A111,111,0,0,1,220,110Z"/></g><g class="cls-4"><polygon class="cls-5" points="64.33 23.65 23.65 65.31 23.65 23.65 64.33 23.65"/><polygon class="cls-5" points="72.55 23.65 23.65 73.73 23.65 65.31 64.33 23.65 72.55 23.65"/><polygon class="cls-5" points="80.77 23.65 23.65 82.15 23.65 73.73 72.55 23.65 80.77 23.65"/><polygon class="cls-5" points="88.99 23.65 23.65 90.57 23.65 82.15 80.77 23.65 88.99 23.65"/><polygon class="cls-5" points="97.21 23.65 23.65 98.98 23.65 90.57 88.99 23.65 97.21 23.65"/><polygon class="cls-5" points="105.43 23.65 23.65 107.4 23.65 98.98 97.21 23.65 105.43 23.65"/><polygon class="cls-6" points="113.65 23.65 23.65 115.82 23.65 107.4 105.43 23.65 113.65 23.65"/><polygon class="cls-6" points="121.87 23.65 23.65 124.24 23.65 115.82 113.65 23.65 121.87 23.65"/><polygon class="cls-6" points="130.09 23.65 23.65 132.65 23.65 124.24 121.87 23.65 130.09 23.65"/><polygon class="cls-7" points="138.31 23.65 23.65 141.07 23.65 132.65 130.09 23.65 138.31 23.65"/><polygon class="cls-7" points="146.53 23.65 23.81 149.32 23.65 149.16 23.65 141.07 138.31 23.65 146.53 23.65"/><polygon class="cls-8" points="148.03 23.65 151.47 27.01 28.02 153.43 23.81 149.32 146.53 23.65 148.03 23.65"/><rect class="cls-8" x="3.5" y="89.33" width="176.7" height="5.88" transform="translate(-38.34 93.52) rotate(-45.68)"/><rect class="cls-9" x="7.71" y="93.44" width="176.7" height="5.88" transform="translate(-40.01 97.77) rotate(-45.68)"/><rect class="cls-10" x="11.91" y="97.55" width="176.7" height="5.88" transform="translate(-41.68 102.02) rotate(-45.68)"/><rect class="cls-11" x="16.12" y="101.66" width="176.7" height="5.88" transform="translate(-43.36 106.27) rotate(-45.68)"/><rect class="cls-11" x="20.33" y="105.77" width="176.7" height="5.88" transform="translate(-45.03 110.52) rotate(-45.68)"/><rect class="cls-12" x="24.54" y="109.88" width="176.7" height="5.88" transform="translate(-46.7 114.76) rotate(-45.68)"/><rect class="cls-13" x="28.74" y="113.98" width="176.7" height="5.88" transform="translate(-48.37 119.01) rotate(-45.68)"/><rect class="cls-14" x="32.95" y="118.09" width="176.7" height="5.88" transform="translate(-50.04 123.26) rotate(-45.68)"/><rect class="cls-15" x="37.16" y="122.2" width="176.7" height="5.88" transform="translate(-51.71 127.51) rotate(-45.68)"/><rect class="cls-16" x="41.37" y="126.31" width="176.7" height="5.88" transform="translate(-53.38 131.76) rotate(-45.68)"/><polygon class="cls-17" points="193.54 68.09 196.35 70.83 196.35 73.64 76.52 196.35 71.97 196.35 70.09 194.52 193.54 68.09"/><polygon class="cls-18" points="196.35 82.05 84.74 196.35 76.52 196.35 196.35 73.64 196.35 82.05"/><polygon class="cls-19" points="196.35 90.47 92.96 196.35 84.74 196.35 196.35 82.05 196.35 90.47"/><polygon class="cls-20" points="196.35 98.89 101.18 196.35 92.96 196.35 196.35 90.47 196.35 98.89"/><polygon class="cls-21" points="196.35 107.31 109.4 196.35 101.18 196.35 196.35 98.89 196.35 107.31"/><polygon class="cls-22" points="196.35 115.72 117.62 196.35 109.4 196.35 196.35 107.31 196.35 115.72"/><polygon class="cls-23" points="196.35 124.14 125.84 196.35 117.62 196.35 196.35 115.72 196.35 124.14"/><polygon class="cls-24" points="196.35 132.56 134.06 196.35 125.84 196.35 196.35 124.14 196.35 132.56"/><polygon class="cls-25" points="196.35 140.97 142.28 196.35 134.06 196.35 196.35 132.56 196.35 140.97"/><polygon class="cls-26" points="196.35 149.39 150.5 196.35 142.28 196.35 196.35 140.97 196.35 149.39"/><polygon class="cls-27" points="196.35 157.81 158.72 196.35 150.5 196.35 196.35 149.39 196.35 157.81"/><polygon class="cls-27" points="158.72 196.35 196.35 157.81 196.35 196.35 158.72 196.35"/></g><g class="cls-28"><polygon class="cls-27" points="70.19 28.05 28.05 74.03 28.05 28.05 70.19 28.05"/><polygon class="cls-27" points="77.3 28.05 28.05 81.78 28.05 74.03 70.19 28.05 77.3 28.05"/><polygon class="cls-26" points="84.41 28.05 28.05 89.53 28.05 81.78 77.3 28.05 84.41 28.05"/><polygon class="cls-25" points="91.51 28.05 28.05 97.28 28.05 89.53 84.41 28.05 91.51 28.05"/><polygon class="cls-24" points="98.62 28.05 28.05 105.03 28.05 97.28 91.51 28.05 98.62 28.05"/><polygon class="cls-23" points="105.72 28.05 28.05 112.78 28.05 105.03 98.62 28.05 105.72 28.05"/><polygon class="cls-22" points="112.83 28.05 28.05 120.53 28.05 112.78 105.72 28.05 112.83 28.05"/><polygon class="cls-21" points="119.93 28.05 28.05 128.28 28.05 120.53 112.83 28.05 119.93 28.05"/><polygon class="cls-20" points="127.04 28.05 28.05 136.04 28.05 128.28 119.93 28.05 127.04 28.05"/><polygon class="cls-19" points="134.14 28.05 28.05 143.79 28.05 136.04 127.04 28.05 134.14 28.05"/><polygon class="cls-18" points="141.25 28.05 28.05 151.54 28.05 143.79 134.14 28.05 141.25 28.05"/><polygon class="cls-17" points="148.35 28.05 28.05 159.29 28.05 151.54 141.25 28.05 148.35 28.05"/><polygon class="cls-16" points="155.46 28.05 31.08 163.74 28.05 160.96 28.05 159.29 148.35 28.05 155.46 28.05"/><polygon class="cls-15" points="158.15 28.05 160.55 30.25 34.94 167.28 31.08 163.74 155.46 28.05 158.15 28.05"/><rect class="cls-14" x="6.73" y="97.91" width="185.89" height="5.24" transform="translate(-41.79 106.08) rotate(-47.49)"/><rect class="cls-13" x="10.59" y="101.45" width="185.89" height="5.24" transform="translate(-43.14 110.07) rotate(-47.49)"/><rect class="cls-12" x="14.45" y="104.99" width="185.89" height="5.24" transform="translate(-44.5 114.06) rotate(-47.49)"/><rect class="cls-11" x="18.31" y="108.53" width="185.89" height="5.24" transform="translate(-45.86 118.06) rotate(-47.49)"/><rect class="cls-11" x="22.17" y="112.07" width="185.89" height="5.24" transform="translate(-47.22 122.05) rotate(-47.49)"/><rect class="cls-10" x="26.03" y="115.61" width="185.89" height="5.24" transform="translate(-48.57 126.04) rotate(-47.49)"/><polygon class="cls-9" points="183.71 51.49 187.57 55.02 62.06 191.95 61.85 191.95 58.1 188.51 183.71 51.49"/><polygon class="cls-8" points="187.57 55.02 191.44 58.56 69.17 191.95 62.06 191.95 187.57 55.02"/><polygon class="cls-8" points="191.44 58.56 191.95 59.04 191.95 65.75 76.27 191.95 69.17 191.95 191.44 58.56"/><polygon class="cls-7" points="191.95 73.5 83.38 191.95 76.27 191.95 191.95 65.75 191.95 73.5"/><polygon class="cls-7" points="191.95 81.26 90.48 191.95 83.38 191.95 191.95 73.5 191.95 81.26"/><polygon class="cls-6" points="191.95 89.01 97.59 191.95 90.48 191.95 191.95 81.26 191.95 89.01"/><polygon class="cls-6" points="191.95 96.76 104.69 191.95 97.59 191.95 191.95 89.01 191.95 96.76"/><polygon class="cls-6" points="191.95 104.51 111.8 191.95 104.69 191.95 191.95 96.76 191.95 104.51"/><polygon class="cls-5" points="191.95 112.26 118.9 191.95 111.8 191.95 191.95 104.51 191.95 112.26"/><polygon class="cls-5" points="191.95 120.01 126.01 191.95 118.9 191.95 191.95 112.26 191.95 120.01"/><polygon class="cls-5" points="191.95 127.76 133.11 191.95 126.01 191.95 191.95 120.01 191.95 127.76"/><polygon class="cls-5" points="191.95 135.52 140.22 191.95 133.11 191.95 191.95 127.76 191.95 135.52"/><polygon class="cls-5" points="191.95 143.27 147.32 191.95 140.22 191.95 191.95 135.52 191.95 143.27"/><polygon class="cls-5" points="147.32 191.95 191.95 143.27 191.95 191.95 147.32 191.95"/></g><g class="cls-28"><polygon class="cls-27" points="70.19 28.05 28.05 74.03 28.05 28.05 70.19 28.05"/><polygon class="cls-27" points="77.3 28.05 28.05 81.78 28.05 74.03 70.19 28.05 77.3 28.05"/><polygon class="cls-26" points="84.41 28.05 28.05 89.53 28.05 81.78 77.3 28.05 84.41 28.05"/><polygon class="cls-25" points="91.51 28.05 28.05 97.28 28.05 89.53 84.41 28.05 91.51 28.05"/><polygon class="cls-24" points="98.62 28.05 28.05 105.03 28.05 97.28 91.51 28.05 98.62 28.05"/><polygon class="cls-23" points="105.72 28.05 28.05 112.78 28.05 105.03 98.62 28.05 105.72 28.05"/><polygon class="cls-22" points="112.83 28.05 28.05 120.53 28.05 112.78 105.72 28.05 112.83 28.05"/><polygon class="cls-21" points="119.93 28.05 28.05 128.28 28.05 120.53 112.83 28.05 119.93 28.05"/><polygon class="cls-20" points="127.04 28.05 28.05 136.04 28.05 128.28 119.93 28.05 127.04 28.05"/><polygon class="cls-19" points="134.14 28.05 28.05 143.79 28.05 136.04 127.04 28.05 134.14 28.05"/><polygon class="cls-18" points="141.25 28.05 28.05 151.54 28.05 143.79 134.14 28.05 141.25 28.05"/><polygon class="cls-17" points="148.35 28.05 28.05 159.29 28.05 151.54 141.25 28.05 148.35 28.05"/><polygon class="cls-16" points="155.46 28.05 31.08 163.74 28.05 160.96 28.05 159.29 148.35 28.05 155.46 28.05"/><polygon class="cls-15" points="158.15 28.05 160.55 30.25 34.94 167.28 31.08 163.74 155.46 28.05 158.15 28.05"/><rect class="cls-14" x="6.73" y="97.91" width="185.89" height="5.24" transform="translate(-41.79 106.08) rotate(-47.49)"/><rect class="cls-13" x="10.59" y="101.45" width="185.89" height="5.24" transform="translate(-43.14 110.07) rotate(-47.49)"/><rect class="cls-12" x="14.45" y="104.99" width="185.89" height="5.24" transform="translate(-44.5 114.06) rotate(-47.49)"/><rect class="cls-11" x="18.31" y="108.53" width="185.89" height="5.24" transform="translate(-45.86 118.06) rotate(-47.49)"/><rect class="cls-11" x="22.17" y="112.07" width="185.89" height="5.24" transform="translate(-47.22 122.05) rotate(-47.49)"/><rect class="cls-10" x="26.03" y="115.61" width="185.89" height="5.24" transform="translate(-48.57 126.04) rotate(-47.49)"/><polygon class="cls-9" points="183.71 51.49 187.57 55.02 62.06 191.95 61.85 191.95 58.1 188.51 183.71 51.49"/><polygon class="cls-8" points="187.57 55.02 191.44 58.56 69.17 191.95 62.06 191.95 187.57 55.02"/><polygon class="cls-8" points="191.44 58.56 191.95 59.04 191.95 65.75 76.27 191.95 69.17 191.95 191.44 58.56"/><polygon class="cls-7" points="191.95 73.5 83.38 191.95 76.27 191.95 191.95 65.75 191.95 73.5"/><polygon class="cls-7" points="191.95 81.26 90.48 191.95 83.38 191.95 191.95 73.5 191.95 81.26"/><polygon class="cls-6" points="191.95 89.01 97.59 191.95 90.48 191.95 191.95 81.26 191.95 89.01"/><polygon class="cls-6" points="191.95 96.76 104.69 191.95 97.59 191.95 191.95 89.01 191.95 96.76"/><polygon class="cls-6" points="191.95 104.51 111.8 191.95 104.69 191.95 191.95 96.76 191.95 104.51"/><polygon class="cls-5" points="191.95 112.26 118.9 191.95 111.8 191.95 191.95 104.51 191.95 112.26"/><polygon class="cls-5" points="191.95 120.01 126.01 191.95 118.9 191.95 191.95 112.26 191.95 120.01"/><polygon class="cls-5" points="191.95 127.76 133.11 191.95 126.01 191.95 191.95 120.01 191.95 127.76"/><polygon class="cls-5" points="191.95 135.52 140.22 191.95 133.11 191.95 191.95 127.76 191.95 135.52"/><polygon class="cls-5" points="191.95 143.27 147.32 191.95 140.22 191.95 191.95 135.52 191.95 143.27"/><polygon class="cls-5" points="147.32 191.95 191.95 143.27 191.95 191.95 147.32 191.95"/></g><path d="M61.57,139.28l-1.43-.75a12,12,0,0,0,1.08-5.37l1.54.28a14.91,14.91,0,0,1-1,5.46Zm16.64-6,2.37.14a15.24,15.24,0,0,1-.45,2.53,24.46,24.46,0,0,1,2.79,3.29l-1.78,1.38a21.81,21.81,0,0,0-1.88-2.44,7.64,7.64,0,0,1-2.2,2.49,7,7,0,0,0-1.52-1.5l-.68.7A15.88,15.88,0,0,0,73.41,138a7.83,7.83,0,0,1-2.25,2.7,7.85,7.85,0,0,0-1.58-1.52.28.28,0,0,0-.11-.07,2.6,2.6,0,0,1-.31.68,2,2,0,0,1-1.38.82,13.94,13.94,0,0,1-2,.09,5.41,5.41,0,0,0-.54-2.13c.42,0,.89.07,1.41.07a.79.79,0,0,0,.61-.28,7.21,7.21,0,0,0,.35-2.18l-.66.23a12.78,12.78,0,0,0-1-3.09l1-.36a13.15,13.15,0,0,1,.68,1.62c0-.54.06-1.36.09-2.44H61.36v-13h8.37v2.23H67.24v1.47H69.3v2.09H67.24v1.48h2.13v2.08H67.24v1.52H70s0,.33,0,.92a68.19,68.19,0,0,1-.49,8.18q2.46-1.65,2.81-5.74l2.34.14a23.66,23.66,0,0,1-.39,2.34,19.84,19.84,0,0,1,2.13,2.41A8,8,0,0,0,78.21,133.25Zm-15.23.4,1.21-.14a23.18,23.18,0,0,1,.22,4.41l-1.29.16A25.28,25.28,0,0,0,63,133.65Zm2.08-12.37H63.58v1.47h1.48Zm0,5v-1.48H63.58v1.48Zm-1.48,2.08v1.52h1.48V128.4Zm.87,5.09,1.17-.21a19.58,19.58,0,0,1,.71,3.89l-1.2.21A16.67,16.67,0,0,0,64.45,133.49Zm8.67-7.55v-1.55a12.54,12.54,0,0,1-2.46,1.78,7.54,7.54,0,0,0-1.26-2.39,13,13,0,0,0,4.36-3.89,12.73,12.73,0,0,0,1-1.68h2.56a14.51,14.51,0,0,0,4.4,4.61,11,11,0,0,0,1.36.75,17.21,17.21,0,0,0-1.45,2.53,17.79,17.79,0,0,1-2.25-1.61v1.45Zm-2.43,6.91V127h5.15v5.83Zm1.87-4.07v2.29H73.9v-2.29Zm1.13-4.93h5.06a15.47,15.47,0,0,1-2.58-3.14A14.66,14.66,0,0,1,73.69,123.85Zm3,9V127h5.34v5.83Zm1.85-4.07v2.29h1.5v-2.29Z"/><path d="M108.1,125.17h-1.36a26.85,26.85,0,0,1-3.42,9,12.67,12.67,0,0,0,5.06,3.89,9.8,9.8,0,0,0-1.88,2.32,1.31,1.31,0,0,1-.09.17,15.09,15.09,0,0,1-5-4,17.72,17.72,0,0,1-5.58,4.06,8.76,8.76,0,0,0-1.5-2.49v2.4H91.57v-6.12q-4.06,1.31-5.15,1.62l-1-2.91.64-.14.84-.19V121h2.74V132.2l1.92-.47V118.32h2.79v8.82a21.7,21.7,0,0,0,3.66-9l2.93.54c-.28,1.27-.63,2.51-1,3.73h8.18Zm-13.74,3.4V138a14.91,14.91,0,0,0,5.42-3.82,27.89,27.89,0,0,1-2.42-6.07,17.51,17.51,0,0,1-1.5,2A14.66,14.66,0,0,0,94.36,128.57Zm9.45-3.4H99.33a27.1,27.1,0,0,0,2.25,6.4A23.34,23.34,0,0,0,103.81,125.17Z"/><path d="M116.4,118.3l2.83.91a45.88,45.88,0,0,1-2.27,4.86v16.47H114v-12c-.53.65-1.09,1.3-1.69,1.92a15.92,15.92,0,0,0-1.59-2.88.36.36,0,0,1-.07-.1,22.33,22.33,0,0,0,4.94-7.29A18.55,18.55,0,0,0,116.4,118.3Zm16.78,5v2.88h-2.63v10.9a3.16,3.16,0,0,1-.91,2.67,2.41,2.41,0,0,1-.68.35,18.05,18.05,0,0,1-5.39.47h-.23a10.1,10.1,0,0,0-1.11-2.83c2,.07,3.47.09,4.53,0,.48,0,.75-.15.79-.47a.75.75,0,0,0,0-.23v-10.9h-9.17v-2.88h9.17v-4.9h3v4.9Zm-7.85,10.15-2.72,1.38a57.57,57.57,0,0,0-3.09-5.74l2.53-1.2Q124.72,132.3,125.33,133.49Z"/><path d="M137.43,133.3l2.36.4a13.58,13.58,0,0,1-2,5.37A9.55,9.55,0,0,0,135.6,138,10.42,10.42,0,0,0,137.43,133.3Zm10.36-.47h-4.5v5.09a2.53,2.53,0,0,1-.64,2l-.33.21a7.48,7.48,0,0,1-3,.44,10.38,10.38,0,0,0-.75-2.46c.48,0,1.08,0,1.78,0a.32.32,0,0,0,.3-.32v-5H136v-2.34h11.79Zm-7.2-9.19v-1.22H136.3V120.1h4.29v-1.78h2.67v1.78h4.22v2.32h-4.22v1.22H147v2.3H136.89v-2.3Zm13.29,1.46v2.5a14.8,14.8,0,0,0,1.31,6,11.07,11.07,0,0,0,3.45,4.5,18.26,18.26,0,0,0-1.71,2.49,11.42,11.42,0,0,1-3.89-6,12,12,0,0,1-.54-2.21,12.67,12.67,0,0,1-2,5.07,11.07,11.07,0,0,1-3,3.09,12.06,12.06,0,0,0-1.55-2.37,11.73,11.73,0,0,0,4.83-7.62,13.57,13.57,0,0,0,.35-3v-2.5h-.46a18.3,18.3,0,0,1-2,4.68,10.66,10.66,0,0,0-1.81-1.43v1H137v-2.3h9.79a25.9,25.9,0,0,0,2.3-8.93l2.86.37c-.17,1.35-.4,2.67-.68,4H156l.42-.1,1.9.49a51.39,51.39,0,0,1-1.2,6.73l-2.22-.68c.18-1,.36-2.31.51-3.84Zm-9.94,9,2.11-.85a12.37,12.37,0,0,1,1.45,3.38l-2.22.94A15.23,15.23,0,0,0,143.94,134.1Z"/><path class="cls-2" d="M90.35,73A7.74,7.74,0,0,1,91,69.8a7.29,7.29,0,0,1,1.67-2.39,7.16,7.16,0,0,1,2.43-1.53A7.94,7.94,0,0,1,98,65.35a8,8,0,0,1,2.88.53,7.21,7.21,0,0,1,2.42,1.53,7.47,7.47,0,0,1,1.68,2.39,7.91,7.91,0,0,1,.62,3.2V93.91a7.86,7.86,0,0,1-.62,3.19,7.41,7.41,0,0,1-1.68,2.4,7.21,7.21,0,0,1-2.42,1.53,8,8,0,0,1-2.88.52,7.93,7.93,0,0,1-2.87-.52,7.16,7.16,0,0,1-2.43-1.53A7.23,7.23,0,0,1,91,97.1a7.7,7.7,0,0,1-.63-3.19Zm5.1,20.91a2.5,2.5,0,0,0,.7,1.82,2.58,2.58,0,0,0,3.6,0,2.5,2.5,0,0,0,.7-1.82V73a2.5,2.5,0,0,0-.7-1.82,2.61,2.61,0,0,0-3.6,0,2.5,2.5,0,0,0-.7,1.82Z"/><path class="cls-2" d="M124.8,65.66,119,80.6l.1.11a1.9,1.9,0,0,1,.78-.33,6.22,6.22,0,0,1,1.37-.13,5,5,0,0,1,2.5.66,5,5,0,0,1,1.8,1.64,5.72,5.72,0,0,1,.55,1.11,8.43,8.43,0,0,1,.35,1.44c.07.61.12,1.36.15,2.28s.05,2.08.05,3.47c0,1.17,0,2.13-.05,2.88s-.08,1.37-.15,1.87a7.1,7.1,0,0,1-.37,1.36,9.45,9.45,0,0,1-.58,1.14,7,7,0,0,1-2.67,2.56,8,8,0,0,1-3.78.89,7.5,7.5,0,0,1-3.75-.92,7.31,7.31,0,0,1-2.65-2.53A6.17,6.17,0,0,1,112,97a5.53,5.53,0,0,1-.33-1.36,12.16,12.16,0,0,1-.2-1.87c0-.75,0-1.71,0-2.88s0-2,0-2.72.08-1.34.15-1.88a8.66,8.66,0,0,1,.3-1.37c.13-.42.28-.86.45-1.33l6.7-17.89ZM121.55,87.3a2.39,2.39,0,0,0-.75-1.84,2.51,2.51,0,0,0-3.5,0,2.39,2.39,0,0,0-.75,1.84v6.61a2.39,2.39,0,0,0,.75,1.84,2.51,2.51,0,0,0,3.5,0,2.39,2.39,0,0,0,.75-1.84Z"/></g></g></svg>