<svg xmlns="http://www.w3.org/2000/svg" xmlns:xlink="http://www.w3.org/1999/xlink" viewBox="0 0 220 220"><defs><style>.cls-1{fill:none;}.cls-2{fill:#fe5000;}.cls-3{opacity:0.2;}.cls-4{clip-path:url(#clip-path);}.cls-5{fill:#fff;}.cls-6{fill:#fefefe;}.cls-7{fill:#fdfdfd;}.cls-8{fill:#fcfcfc;}.cls-9{fill:#fbfbfb;}.cls-10{fill:#fafafa;}.cls-11{fill:#f9f9f9;}.cls-12{fill:#f8f8f8;}.cls-13{fill:#f6f6f6;}.cls-14{fill:#f5f5f5;}.cls-15{fill:#f4f4f4;}.cls-16{fill:#f3f3f3;}.cls-17{fill:#f1f1f1;}.cls-18{fill:#f0f0f0;}.cls-19{fill:#eee;}.cls-20{fill:#ededed;}.cls-21{fill:#ebebeb;}.cls-22{fill:#e9e9e9;}.cls-23{fill:#e7e7e7;}.cls-24{fill:#e5e5e5;}.cls-25{fill:#e3e3e3;}.cls-26{fill:#e1e1e1;}.cls-27{fill:#dfdfdf;}.cls-28{clip-path:url(#clip-path-2);}</style><clipPath id="clip-path"><path class="cls-1" d="M196.35,110A86.35,86.35,0,0,1,50,172.07l-2-2A86.35,86.35,0,0,1,170,47.93l2,2A86.08,86.08,0,0,1,196.35,110Z"/></clipPath><clipPath id="clip-path-2"><circle class="cls-1" cx="110" cy="110" r="81.95" transform="translate(-45.56 110) rotate(-45)"/></clipPath></defs><g id="圖層_2" data-name="圖層 2"><g id="內容"><path class="cls-2" d="M220,110a109.89,109.89,0,1,1-.74-12.84A110,110,0,0,1,220,110Z"/><g class="cls-3"><path d="M220,110A110.1,110.1,0,0,1,97.16,219.26L47.93,170a86.09,86.09,0,0,1-14.76-20.58L149.45,33.17A86.09,86.09,0,0,1,170,47.93l49.23,49.23A111,111,0,0,1,220,110Z"/></g><g class="cls-4"><polygon class="cls-5" points="64.33 23.65 23.65 65.31 23.65 23.65 64.33 23.65"/><polygon class="cls-5" points="72.55 23.65 23.65 73.73 23.65 65.31 64.33 23.65 72.55 23.65"/><polygon class="cls-5" points="80.77 23.65 23.65 82.15 23.65 73.73 72.55 23.65 80.77 23.65"/><polygon class="cls-5" points="88.99 23.65 23.65 90.57 23.65 82.15 80.77 23.65 88.99 23.65"/><polygon class="cls-5" points="97.21 23.65 23.65 98.98 23.65 90.57 88.99 23.65 97.21 23.65"/><polygon class="cls-5" points="105.43 23.65 23.65 107.4 23.65 98.98 97.21 23.65 105.43 23.65"/><polygon class="cls-6" points="113.65 23.65 23.65 115.82 23.65 107.4 105.43 23.65 113.65 23.65"/><polygon class="cls-6" points="121.87 23.65 23.65 124.24 23.65 115.82 113.65 23.65 121.87 23.65"/><polygon class="cls-6" points="130.09 23.65 23.65 132.65 23.65 124.24 121.87 23.65 130.09 23.65"/><polygon class="cls-7" points="138.31 23.65 23.65 141.07 23.65 132.65 130.09 23.65 138.31 23.65"/><polygon class="cls-7" points="146.53 23.65 23.81 149.32 23.65 149.16 23.65 141.07 138.31 23.65 146.53 23.65"/><polygon class="cls-8" points="148.03 23.65 151.47 27.01 28.02 153.43 23.81 149.32 146.53 23.65 148.03 23.65"/><rect class="cls-8" x="3.5" y="89.33" width="176.7" height="5.88" transform="translate(-38.34 93.52) rotate(-45.68)"/><rect class="cls-9" x="7.71" y="93.44" width="176.7" height="5.88" transform="translate(-40.01 97.77) rotate(-45.68)"/><rect class="cls-10" x="11.91" y="97.55" width="176.7" height="5.88" transform="translate(-41.68 102.02) rotate(-45.68)"/><rect class="cls-11" x="16.12" y="101.66" width="176.7" height="5.88" transform="translate(-43.36 106.27) rotate(-45.68)"/><rect class="cls-11" x="20.33" y="105.77" width="176.7" height="5.88" transform="translate(-45.03 110.52) rotate(-45.68)"/><rect class="cls-12" x="24.54" y="109.88" width="176.7" height="5.88" transform="translate(-46.7 114.76) rotate(-45.68)"/><rect class="cls-13" x="28.74" y="113.98" width="176.7" height="5.88" transform="translate(-48.37 119.01) rotate(-45.68)"/><rect class="cls-14" x="32.95" y="118.09" width="176.7" height="5.88" transform="translate(-50.04 123.26) rotate(-45.68)"/><rect class="cls-15" x="37.16" y="122.2" width="176.7" height="5.88" transform="translate(-51.71 127.51) rotate(-45.68)"/><rect class="cls-16" x="41.37" y="126.31" width="176.7" height="5.88" transform="translate(-53.38 131.76) rotate(-45.68)"/><polygon class="cls-17" points="193.54 68.09 196.35 70.83 196.35 73.64 76.52 196.35 71.97 196.35 70.09 194.52 193.54 68.09"/><polygon class="cls-18" points="196.35 82.05 84.74 196.35 76.52 196.35 196.35 73.64 196.35 82.05"/><polygon class="cls-19" points="196.35 90.47 92.96 196.35 84.74 196.35 196.35 82.05 196.35 90.47"/><polygon class="cls-20" points="196.35 98.89 101.18 196.35 92.96 196.35 196.35 90.47 196.35 98.89"/><polygon class="cls-21" points="196.35 107.31 109.4 196.35 101.18 196.35 196.35 98.89 196.35 107.31"/><polygon class="cls-22" points="196.35 115.72 117.62 196.35 109.4 196.35 196.35 107.31 196.35 115.72"/><polygon class="cls-23" points="196.35 124.14 125.84 196.35 117.62 196.35 196.35 115.72 196.35 124.14"/><polygon class="cls-24" points="196.35 132.56 134.06 196.35 125.84 196.35 196.35 124.14 196.35 132.56"/><polygon class="cls-25" points="196.35 140.97 142.28 196.35 134.06 196.35 196.35 132.56 196.35 140.97"/><polygon class="cls-26" points="196.35 149.39 150.5 196.35 142.28 196.35 196.35 140.97 196.35 149.39"/><polygon class="cls-27" points="196.35 157.81 158.72 196.35 150.5 196.35 196.35 149.39 196.35 157.81"/><polygon class="cls-27" points="158.72 196.35 196.35 157.81 196.35 196.35 158.72 196.35"/></g><g class="cls-28"><polygon class="cls-27" points="70.19 28.05 28.05 74.03 28.05 28.05 70.19 28.05"/><polygon class="cls-27" points="77.3 28.05 28.05 81.78 28.05 74.03 70.19 28.05 77.3 28.05"/><polygon class="cls-26" points="84.41 28.05 28.05 89.53 28.05 81.78 77.3 28.05 84.41 28.05"/><polygon class="cls-25" points="91.51 28.05 28.05 97.28 28.05 89.53 84.41 28.05 91.51 28.05"/><polygon class="cls-24" points="98.62 28.05 28.05 105.03 28.05 97.28 91.51 28.05 98.62 28.05"/><polygon class="cls-23" points="105.72 28.05 28.05 112.78 28.05 105.03 98.62 28.05 105.72 28.05"/><polygon class="cls-22" points="112.83 28.05 28.05 120.53 28.05 112.78 105.72 28.05 112.83 28.05"/><polygon class="cls-21" points="119.93 28.05 28.05 128.28 28.05 120.53 112.83 28.05 119.93 28.05"/><polygon class="cls-20" points="127.04 28.05 28.05 136.04 28.05 128.28 119.93 28.05 127.04 28.05"/><polygon class="cls-19" points="134.14 28.05 28.05 143.79 28.05 136.04 127.04 28.05 134.14 28.05"/><polygon class="cls-18" points="141.25 28.05 28.05 151.54 28.05 143.79 134.14 28.05 141.25 28.05"/><polygon class="cls-17" points="148.35 28.05 28.05 159.29 28.05 151.54 141.25 28.05 148.35 28.05"/><polygon class="cls-16" points="155.46 28.05 31.08 163.74 28.05 160.96 28.05 159.29 148.35 28.05 155.46 28.05"/><polygon class="cls-15" points="158.15 28.05 160.55 30.25 34.94 167.28 31.08 163.74 155.46 28.05 158.15 28.05"/><rect class="cls-14" x="6.73" y="97.91" width="185.89" height="5.24" transform="translate(-41.79 106.08) rotate(-47.49)"/><rect class="cls-13" x="10.59" y="101.45" width="185.89" height="5.24" transform="translate(-43.14 110.07) rotate(-47.49)"/><rect class="cls-12" x="14.45" y="104.99" width="185.89" height="5.24" transform="translate(-44.5 114.06) rotate(-47.49)"/><rect class="cls-11" x="18.31" y="108.53" width="185.89" height="5.24" transform="translate(-45.86 118.06) rotate(-47.49)"/><rect class="cls-11" x="22.17" y="112.07" width="185.89" height="5.24" transform="translate(-47.22 122.05) rotate(-47.49)"/><rect class="cls-10" x="26.03" y="115.61" width="185.89" height="5.24" transform="translate(-48.57 126.04) rotate(-47.49)"/><polygon class="cls-9" points="183.71 51.49 187.57 55.02 62.06 191.95 61.85 191.95 58.1 188.51 183.71 51.49"/><polygon class="cls-8" points="187.57 55.02 191.44 58.56 69.17 191.95 62.06 191.95 187.57 55.02"/><polygon class="cls-8" points="191.44 58.56 191.95 59.04 191.95 65.75 76.27 191.95 69.17 191.95 191.44 58.56"/><polygon class="cls-7" points="191.95 73.5 83.38 191.95 76.27 191.95 191.95 65.75 191.95 73.5"/><polygon class="cls-7" points="191.95 81.26 90.48 191.95 83.38 191.95 191.95 73.5 191.95 81.26"/><polygon class="cls-6" points="191.95 89.01 97.59 191.95 90.48 191.95 191.95 81.26 191.95 89.01"/><polygon class="cls-6" points="191.95 96.76 104.69 191.95 97.59 191.95 191.95 89.01 191.95 96.76"/><polygon class="cls-6" points="191.95 104.51 111.8 191.95 104.69 191.95 191.95 96.76 191.95 104.51"/><polygon class="cls-5" points="191.95 112.26 118.9 191.95 111.8 191.95 191.95 104.51 191.95 112.26"/><polygon class="cls-5" points="191.95 120.01 126.01 191.95 118.9 191.95 191.95 112.26 191.95 120.01"/><polygon class="cls-5" points="191.95 127.76 133.11 191.95 126.01 191.95 191.95 120.01 191.95 127.76"/><polygon class="cls-5" points="191.95 135.52 140.22 191.95 133.11 191.95 191.95 127.76 191.95 135.52"/><polygon class="cls-5" points="191.95 143.27 147.32 191.95 140.22 191.95 191.95 135.52 191.95 143.27"/><polygon class="cls-5" points="147.32 191.95 191.95 143.27 191.95 191.95 147.32 191.95"/></g><g class="cls-28"><polygon class="cls-27" points="70.19 28.05 28.05 74.03 28.05 28.05 70.19 28.05"/><polygon class="cls-27" points="77.3 28.05 28.05 81.78 28.05 74.03 70.19 28.05 77.3 28.05"/><polygon class="cls-26" points="84.41 28.05 28.05 89.53 28.05 81.78 77.3 28.05 84.41 28.05"/><polygon class="cls-25" points="91.51 28.05 28.05 97.28 28.05 89.53 84.41 28.05 91.51 28.05"/><polygon class="cls-24" points="98.62 28.05 28.05 105.03 28.05 97.28 91.51 28.05 98.62 28.05"/><polygon class="cls-23" points="105.72 28.05 28.05 112.78 28.05 105.03 98.62 28.05 105.72 28.05"/><polygon class="cls-22" points="112.83 28.05 28.05 120.53 28.05 112.78 105.72 28.05 112.83 28.05"/><polygon class="cls-21" points="119.93 28.05 28.05 128.28 28.05 120.53 112.83 28.05 119.93 28.05"/><polygon class="cls-20" points="127.04 28.05 28.05 136.04 28.05 128.28 119.93 28.05 127.04 28.05"/><polygon class="cls-19" points="134.14 28.05 28.05 143.79 28.05 136.04 127.04 28.05 134.14 28.05"/><polygon class="cls-18" points="141.25 28.05 28.05 151.54 28.05 143.79 134.14 28.05 141.25 28.05"/><polygon class="cls-17" points="148.35 28.05 28.05 159.29 28.05 151.54 141.25 28.05 148.35 28.05"/><polygon class="cls-16" points="155.46 28.05 31.08 163.74 28.05 160.96 28.05 159.29 148.35 28.05 155.46 28.05"/><polygon class="cls-15" points="158.15 28.05 160.55 30.25 34.94 167.28 31.08 163.74 155.46 28.05 158.15 28.05"/><rect class="cls-14" x="6.73" y="97.91" width="185.89" height="5.24" transform="translate(-41.79 106.08) rotate(-47.49)"/><rect class="cls-13" x="10.59" y="101.45" width="185.89" height="5.24" transform="translate(-43.14 110.07) rotate(-47.49)"/><rect class="cls-12" x="14.45" y="104.99" width="185.89" height="5.24" transform="translate(-44.5 114.06) rotate(-47.49)"/><rect class="cls-11" x="18.31" y="108.53" width="185.89" height="5.24" transform="translate(-45.86 118.06) rotate(-47.49)"/><rect class="cls-11" x="22.17" y="112.07" width="185.89" height="5.24" transform="translate(-47.22 122.05) rotate(-47.49)"/><rect class="cls-10" x="26.03" y="115.61" width="185.89" height="5.24" transform="translate(-48.57 126.04) rotate(-47.49)"/><polygon class="cls-9" points="183.71 51.49 187.57 55.02 62.06 191.95 61.85 191.95 58.1 188.51 183.71 51.49"/><polygon class="cls-8" points="187.57 55.02 191.44 58.56 69.17 191.95 62.06 191.95 187.57 55.02"/><polygon class="cls-8" points="191.44 58.56 191.95 59.04 191.95 65.75 76.27 191.95 69.17 191.95 191.44 58.56"/><polygon class="cls-7" points="191.95 73.5 83.38 191.95 76.27 191.95 191.95 65.75 191.95 73.5"/><polygon class="cls-7" points="191.95 81.26 90.48 191.95 83.38 191.95 191.95 73.5 191.95 81.26"/><polygon class="cls-6" points="191.95 89.01 97.59 191.95 90.48 191.95 191.95 81.26 191.95 89.01"/><polygon class="cls-6" points="191.95 96.76 104.69 191.95 97.59 191.95 191.95 89.01 191.95 96.76"/><polygon class="cls-6" points="191.95 104.51 111.8 191.95 104.69 191.95 191.95 96.76 191.95 104.51"/><polygon class="cls-5" points="191.95 112.26 118.9 191.95 111.8 191.95 191.95 104.51 191.95 112.26"/><polygon class="cls-5" points="191.95 120.01 126.01 191.95 118.9 191.95 191.95 112.26 191.95 120.01"/><polygon class="cls-5" points="191.95 127.76 133.11 191.95 126.01 191.95 191.95 120.01 191.95 127.76"/><polygon class="cls-5" points="191.95 135.52 140.22 191.95 133.11 191.95 191.95 127.76 191.95 135.52"/><polygon class="cls-5" points="191.95 143.27 147.32 191.95 140.22 191.95 191.95 135.52 191.95 143.27"/><polygon class="cls-5" points="147.32 191.95 191.95 143.27 191.95 191.95 147.32 191.95"/></g><path d="M66,124.46l1.78.66q-1.12,7.9-4.31,12.21a12,12,0,0,1-1.24,1.43,8.19,8.19,0,0,0-1.74-1.92,2.82,2.82,0,0,0-.32-.26q3-2.75,4.38-8.81c0-.22.08-.42.12-.61H60.91v-2.58h4.57Zm7,7.83v1.52h4.32v2.37H72.91v1.31a2.83,2.83,0,0,1-.75,2.32,2,2,0,0,1-.56.33,13.79,13.79,0,0,1-4.48.47,10.42,10.42,0,0,0-1.05-2.69c.94,0,2.07.07,3.4.07.36-.13.55-.31.58-.54v-1.27H65.9v-2.37h4.15v-1.52H67.12V130h2.93v-1.55H67.69v-2.22h2.36v-2.72h1.5A20.2,20.2,0,0,0,73.9,122H64.15v-2.61H76.8l.61-.11,1.92,1.38a21.38,21.38,0,0,1-6.07,4.62l-.35.16v.8h2.56v2.22H72.91V130H76v2.25Zm7.6-7.9,2.25,1.78q-2.46,2.94-3.5,4a13.16,13.16,0,0,0,3.8,6.25,9.1,9.1,0,0,0-2,2.21,2.38,2.38,0,0,0-.14.23q-3.67-3.45-5.18-11.93c-.14-.8-.27-1.63-.4-2.51l2.51-.42c.13.89.32,2,.59,3.33A22.57,22.57,0,0,0,80.51,124.39Z"/><path d="M107.89,128.31h-7c-.16.39-.43,1-.8,1.73h7.73v2.39h-2.6a10.8,10.8,0,0,1-1.69,3.87,26.74,26.74,0,0,1,4,2.16l-1.8,2.13a29,29,0,0,0-4.22-2.39c-1.75,1.15-4.45,2-8.11,2.44a7.08,7.08,0,0,0-1-2.3A19.51,19.51,0,0,0,98.77,137c-.89-.35-1.49-.57-1.78-.66l-.24.42-2.43-.8c.36-.65.93-1.82,1.73-3.49H93.17v-1.29l-.89.26c-.39.13-.69.21-.89.26v5.72a3,3,0,0,1-.78,2.46l-.23.14a7.85,7.85,0,0,1-3.59.58,9.33,9.33,0,0,0-.79-2.78c1,0,1.75.05,2.22,0a.42.42,0,0,0,.42-.45v-4.92l-2.67.73-.58-2.77,3.25-.75v-4.31H85.85v-2.62h2.79v-4.5h2.75v4.5h1.82v2.62H91.39V129l1.8-.47L93.4,130h3.73c.45-1.06.69-1.64.72-1.73H93v-2.44h3.61a15.73,15.73,0,0,0-.7-2.93l.49-.09H93.71v-2.39h5.34v-2.28H102v2.28h5.36v2.39h-2c-.2.57-.59,1.58-1.17,3h3.71Zm-5.42,4.12H99l-.49,1c-.19.34-.32.6-.4.77.56.18,1.55.52,3,1A7.42,7.42,0,0,0,102.47,132.43Zm.07-9.58H98.49a11.64,11.64,0,0,1,.7,3l-.09,0h2.53A24.24,24.24,0,0,0,102.54,122.85Z"/><path d="M132.66,131.92h-9.39c-.24.67-.38,1.06-.43,1.17h8.53V138a2.43,2.43,0,0,1-.67,2,2.09,2.09,0,0,1-.29.16,7.55,7.55,0,0,1-3,.4,8.34,8.34,0,0,0-.82-2.32c.49,0,1,0,1.69,0,.22,0,.34-.13.35-.3v-2.63H126v5.09h-2.6v-5.09h-2.54v5.09H118.3v-5.09h-2.44v5.21h-2.7v-7.43h6.94a11.93,11.93,0,0,0,.26-1.17h-9v-2.21h21.3Zm-18.65-8v2.81h-2.53V122h9.11v-.84h-7.47V119h17.69v2.18h-7.52V122h9.28v4.73h-2.65V123.9h-6.63v5.16h-2.7V123.9Zm.3,4.92v-1.64h5.44v1.64Zm5.44-4.12v1.69h-4.9V124.7Zm4.41,0h4.92v1.69h-4.92Zm0,4.15v-1.67h5.48v1.67Z"/><path d="M143.85,131.35l1,2.61q-3.57,2.31-7.15,4.38l-1.76-2.63Q138.93,134.21,143.85,131.35ZM154.58,125l2.53,1.73a50.32,50.32,0,0,1-4.73,4.76,17.46,17.46,0,0,0,6.21,4.9,9.39,9.39,0,0,0-2,2.34l-.12.19a19.93,19.93,0,0,1-7.9-8.3v6.45a3.35,3.35,0,0,1-.77,2.6,3.52,3.52,0,0,1-.54.33,11.76,11.76,0,0,1-4.59.56h-.1a10,10,0,0,0-1-3c.67,0,1.83,0,3.47,0,.37-.1.58-.29.61-.57V124.56h-9.05v-2.77h9.05v-3.58h2.9v3.58h4.9a36.41,36.41,0,0,0-3.3-1.94l1.66-1.79a28,28,0,0,1,4.45,2.49l-1.1,1.24h2.67v2.77h-9.28v.23a25.4,25.4,0,0,0,2.25,4.6A29.08,29.08,0,0,0,154.58,125Zm-11.08,4.5-2.32,1.68a19.92,19.92,0,0,0-3.24-4l-.37-.36,2.2-1.52A20.5,20.5,0,0,1,143.5,129.53Z"/><path class="cls-2" d="M90.35,73A7.74,7.74,0,0,1,91,69.8a7.44,7.44,0,0,1,1.67-2.4,7.29,7.29,0,0,1,2.43-1.52A7.94,7.94,0,0,1,98,65.35a8,8,0,0,1,2.88.53,7.34,7.34,0,0,1,2.42,1.52,7.63,7.63,0,0,1,1.68,2.4,7.91,7.91,0,0,1,.62,3.2V93.9a7.87,7.87,0,0,1-.62,3.2,7.41,7.41,0,0,1-1.68,2.4,7.21,7.21,0,0,1-2.42,1.53,8,8,0,0,1-2.88.52,7.93,7.93,0,0,1-2.87-.52,7.16,7.16,0,0,1-2.43-1.53A7.23,7.23,0,0,1,91,97.1a7.71,7.71,0,0,1-.63-3.2Zm5.1,20.9a2.5,2.5,0,0,0,.7,1.83,2.61,2.61,0,0,0,3.6,0,2.5,2.5,0,0,0,.7-1.83V73a2.5,2.5,0,0,0-.7-1.82,2.58,2.58,0,0,0-3.6,0,2.5,2.5,0,0,0-.7,1.82Z"/><path class="cls-2" d="M117.5,101.25V71.05l-5.1,3.75V69.4l5.1-3.75h5.1v35.6Z"/></g></g></svg>