<svg xmlns="http://www.w3.org/2000/svg" xmlns:xlink="http://www.w3.org/1999/xlink" viewBox="0 0 220 220"><defs><style>.cls-1{fill:none;}.cls-2{fill:#fe5000;}.cls-3{opacity:0.2;}.cls-4{clip-path:url(#clip-path);}.cls-5{fill:#fff;}.cls-6{fill:#fefefe;}.cls-7{fill:#fdfdfd;}.cls-8{fill:#fcfcfc;}.cls-9{fill:#fbfbfb;}.cls-10{fill:#fafafa;}.cls-11{fill:#f9f9f9;}.cls-12{fill:#f8f8f8;}.cls-13{fill:#f6f6f6;}.cls-14{fill:#f5f5f5;}.cls-15{fill:#f4f4f4;}.cls-16{fill:#f3f3f3;}.cls-17{fill:#f1f1f1;}.cls-18{fill:#f0f0f0;}.cls-19{fill:#eee;}.cls-20{fill:#ededed;}.cls-21{fill:#ebebeb;}.cls-22{fill:#e9e9e9;}.cls-23{fill:#e7e7e7;}.cls-24{fill:#e5e5e5;}.cls-25{fill:#e3e3e3;}.cls-26{fill:#e1e1e1;}.cls-27{fill:#dfdfdf;}.cls-28{clip-path:url(#clip-path-2);}</style><clipPath id="clip-path"><path class="cls-1" d="M196.35,110A86.35,86.35,0,0,1,50,172.07l-2-2A86.35,86.35,0,0,1,170,47.93l2,2A86.08,86.08,0,0,1,196.35,110Z"/></clipPath><clipPath id="clip-path-2"><circle class="cls-1" cx="110" cy="110" r="81.95" transform="translate(-45.56 110) rotate(-45)"/></clipPath></defs><g id="圖層_2" data-name="圖層 2"><g id="內容"><path class="cls-2" d="M220,110a109.89,109.89,0,1,1-.74-12.84A110,110,0,0,1,220,110Z"/><g class="cls-3"><path d="M220,110A110.1,110.1,0,0,1,97.16,219.26L47.93,170a86.09,86.09,0,0,1-14.76-20.58L149.45,33.17A86.09,86.09,0,0,1,170,47.93l49.23,49.23A111,111,0,0,1,220,110Z"/></g><g class="cls-4"><polygon class="cls-5" points="64.33 23.65 23.65 65.31 23.65 23.65 64.33 23.65"/><polygon class="cls-5" points="72.55 23.65 23.65 73.73 23.65 65.31 64.33 23.65 72.55 23.65"/><polygon class="cls-5" points="80.77 23.65 23.65 82.15 23.65 73.73 72.55 23.65 80.77 23.65"/><polygon class="cls-5" points="88.99 23.65 23.65 90.57 23.65 82.15 80.77 23.65 88.99 23.65"/><polygon class="cls-5" points="97.21 23.65 23.65 98.98 23.65 90.57 88.99 23.65 97.21 23.65"/><polygon class="cls-5" points="105.43 23.65 23.65 107.4 23.65 98.98 97.21 23.65 105.43 23.65"/><polygon class="cls-6" points="113.65 23.65 23.65 115.82 23.65 107.4 105.43 23.65 113.65 23.65"/><polygon class="cls-6" points="121.87 23.65 23.65 124.24 23.65 115.82 113.65 23.65 121.87 23.65"/><polygon class="cls-6" points="130.09 23.65 23.65 132.65 23.65 124.24 121.87 23.65 130.09 23.65"/><polygon class="cls-7" points="138.31 23.65 23.65 141.07 23.65 132.65 130.09 23.65 138.31 23.65"/><polygon class="cls-7" points="146.53 23.65 23.81 149.32 23.65 149.16 23.65 141.07 138.31 23.65 146.53 23.65"/><polygon class="cls-8" points="148.03 23.65 151.47 27.01 28.02 153.43 23.81 149.32 146.53 23.65 148.03 23.65"/><rect class="cls-8" x="3.5" y="89.33" width="176.7" height="5.88" transform="translate(-38.34 93.52) rotate(-45.68)"/><rect class="cls-9" x="7.71" y="93.44" width="176.7" height="5.88" transform="translate(-40.01 97.77) rotate(-45.68)"/><rect class="cls-10" x="11.91" y="97.55" width="176.7" height="5.88" transform="translate(-41.68 102.02) rotate(-45.68)"/><rect class="cls-11" x="16.12" y="101.66" width="176.7" height="5.88" transform="translate(-43.36 106.27) rotate(-45.68)"/><rect class="cls-11" x="20.33" y="105.77" width="176.7" height="5.88" transform="translate(-45.03 110.52) rotate(-45.68)"/><rect class="cls-12" x="24.54" y="109.88" width="176.7" height="5.88" transform="translate(-46.7 114.76) rotate(-45.68)"/><rect class="cls-13" x="28.74" y="113.98" width="176.7" height="5.88" transform="translate(-48.37 119.01) rotate(-45.68)"/><rect class="cls-14" x="32.95" y="118.09" width="176.7" height="5.88" transform="translate(-50.04 123.26) rotate(-45.68)"/><rect class="cls-15" x="37.16" y="122.2" width="176.7" height="5.88" transform="translate(-51.71 127.51) rotate(-45.68)"/><rect class="cls-16" x="41.37" y="126.31" width="176.7" height="5.88" transform="translate(-53.38 131.76) rotate(-45.68)"/><polygon class="cls-17" points="193.54 68.09 196.35 70.83 196.35 73.64 76.52 196.35 71.97 196.35 70.09 194.52 193.54 68.09"/><polygon class="cls-18" points="196.35 82.05 84.74 196.35 76.52 196.35 196.35 73.64 196.35 82.05"/><polygon class="cls-19" points="196.35 90.47 92.96 196.35 84.74 196.35 196.35 82.05 196.35 90.47"/><polygon class="cls-20" points="196.35 98.89 101.18 196.35 92.96 196.35 196.35 90.47 196.35 98.89"/><polygon class="cls-21" points="196.35 107.31 109.4 196.35 101.18 196.35 196.35 98.89 196.35 107.31"/><polygon class="cls-22" points="196.35 115.72 117.62 196.35 109.4 196.35 196.35 107.31 196.35 115.72"/><polygon class="cls-23" points="196.35 124.14 125.84 196.35 117.62 196.35 196.35 115.72 196.35 124.14"/><polygon class="cls-24" points="196.35 132.56 134.06 196.35 125.84 196.35 196.35 124.14 196.35 132.56"/><polygon class="cls-25" points="196.35 140.97 142.28 196.35 134.06 196.35 196.35 132.56 196.35 140.97"/><polygon class="cls-26" points="196.35 149.39 150.5 196.35 142.28 196.35 196.35 140.97 196.35 149.39"/><polygon class="cls-27" points="196.35 157.81 158.72 196.35 150.5 196.35 196.35 149.39 196.35 157.81"/><polygon class="cls-27" points="158.72 196.35 196.35 157.81 196.35 196.35 158.72 196.35"/></g><g class="cls-28"><polygon class="cls-27" points="70.19 28.05 28.05 74.03 28.05 28.05 70.19 28.05"/><polygon class="cls-27" points="77.3 28.05 28.05 81.78 28.05 74.03 70.19 28.05 77.3 28.05"/><polygon class="cls-26" points="84.41 28.05 28.05 89.53 28.05 81.78 77.3 28.05 84.41 28.05"/><polygon class="cls-25" points="91.51 28.05 28.05 97.28 28.05 89.53 84.41 28.05 91.51 28.05"/><polygon class="cls-24" points="98.62 28.05 28.05 105.03 28.05 97.28 91.51 28.05 98.62 28.05"/><polygon class="cls-23" points="105.72 28.05 28.05 112.78 28.05 105.03 98.62 28.05 105.72 28.05"/><polygon class="cls-22" points="112.83 28.05 28.05 120.53 28.05 112.78 105.72 28.05 112.83 28.05"/><polygon class="cls-21" points="119.93 28.05 28.05 128.28 28.05 120.53 112.83 28.05 119.93 28.05"/><polygon class="cls-20" points="127.04 28.05 28.05 136.04 28.05 128.28 119.93 28.05 127.04 28.05"/><polygon class="cls-19" points="134.14 28.05 28.05 143.79 28.05 136.04 127.04 28.05 134.14 28.05"/><polygon class="cls-18" points="141.25 28.05 28.05 151.54 28.05 143.79 134.14 28.05 141.25 28.05"/><polygon class="cls-17" points="148.35 28.05 28.05 159.29 28.05 151.54 141.25 28.05 148.35 28.05"/><polygon class="cls-16" points="155.46 28.05 31.08 163.74 28.05 160.96 28.05 159.29 148.35 28.05 155.46 28.05"/><polygon class="cls-15" points="158.15 28.05 160.55 30.25 34.94 167.28 31.08 163.74 155.46 28.05 158.15 28.05"/><rect class="cls-14" x="6.73" y="97.91" width="185.89" height="5.24" transform="translate(-41.79 106.08) rotate(-47.49)"/><rect class="cls-13" x="10.59" y="101.45" width="185.89" height="5.24" transform="translate(-43.14 110.07) rotate(-47.49)"/><rect class="cls-12" x="14.45" y="104.99" width="185.89" height="5.24" transform="translate(-44.5 114.06) rotate(-47.49)"/><rect class="cls-11" x="18.31" y="108.53" width="185.89" height="5.24" transform="translate(-45.86 118.06) rotate(-47.49)"/><rect class="cls-11" x="22.17" y="112.07" width="185.89" height="5.24" transform="translate(-47.22 122.05) rotate(-47.49)"/><rect class="cls-10" x="26.03" y="115.61" width="185.89" height="5.24" transform="translate(-48.57 126.04) rotate(-47.49)"/><polygon class="cls-9" points="183.71 51.49 187.57 55.02 62.06 191.95 61.85 191.95 58.1 188.51 183.71 51.49"/><polygon class="cls-8" points="187.57 55.02 191.44 58.56 69.17 191.95 62.06 191.95 187.57 55.02"/><polygon class="cls-8" points="191.44 58.56 191.95 59.04 191.95 65.75 76.27 191.95 69.17 191.95 191.44 58.56"/><polygon class="cls-7" points="191.95 73.5 83.38 191.95 76.27 191.95 191.95 65.75 191.95 73.5"/><polygon class="cls-7" points="191.95 81.26 90.48 191.95 83.38 191.95 191.95 73.5 191.95 81.26"/><polygon class="cls-6" points="191.95 89.01 97.59 191.95 90.48 191.95 191.95 81.26 191.95 89.01"/><polygon class="cls-6" points="191.95 96.76 104.69 191.95 97.59 191.95 191.95 89.01 191.95 96.76"/><polygon class="cls-6" points="191.95 104.51 111.8 191.95 104.69 191.95 191.95 96.76 191.95 104.51"/><polygon class="cls-5" points="191.95 112.26 118.9 191.95 111.8 191.95 191.95 104.51 191.95 112.26"/><polygon class="cls-5" points="191.95 120.01 126.01 191.95 118.9 191.95 191.95 112.26 191.95 120.01"/><polygon class="cls-5" points="191.95 127.76 133.11 191.95 126.01 191.95 191.95 120.01 191.95 127.76"/><polygon class="cls-5" points="191.95 135.52 140.22 191.95 133.11 191.95 191.95 127.76 191.95 135.52"/><polygon class="cls-5" points="191.95 143.27 147.32 191.95 140.22 191.95 191.95 135.52 191.95 143.27"/><polygon class="cls-5" points="147.32 191.95 191.95 143.27 191.95 191.95 147.32 191.95"/></g><g class="cls-28"><polygon class="cls-27" points="70.19 28.05 28.05 74.03 28.05 28.05 70.19 28.05"/><polygon class="cls-27" points="77.3 28.05 28.05 81.78 28.05 74.03 70.19 28.05 77.3 28.05"/><polygon class="cls-26" points="84.41 28.05 28.05 89.53 28.05 81.78 77.3 28.05 84.41 28.05"/><polygon class="cls-25" points="91.51 28.05 28.05 97.28 28.05 89.53 84.41 28.05 91.51 28.05"/><polygon class="cls-24" points="98.62 28.05 28.05 105.03 28.05 97.28 91.51 28.05 98.62 28.05"/><polygon class="cls-23" points="105.72 28.05 28.05 112.78 28.05 105.03 98.62 28.05 105.72 28.05"/><polygon class="cls-22" points="112.83 28.05 28.05 120.53 28.05 112.78 105.72 28.05 112.83 28.05"/><polygon class="cls-21" points="119.93 28.05 28.05 128.28 28.05 120.53 112.83 28.05 119.93 28.05"/><polygon class="cls-20" points="127.04 28.05 28.05 136.04 28.05 128.28 119.93 28.05 127.04 28.05"/><polygon class="cls-19" points="134.14 28.05 28.05 143.79 28.05 136.04 127.04 28.05 134.14 28.05"/><polygon class="cls-18" points="141.25 28.05 28.05 151.54 28.05 143.79 134.14 28.05 141.25 28.05"/><polygon class="cls-17" points="148.35 28.05 28.05 159.29 28.05 151.54 141.25 28.05 148.35 28.05"/><polygon class="cls-16" points="155.46 28.05 31.08 163.74 28.05 160.96 28.05 159.29 148.35 28.05 155.46 28.05"/><polygon class="cls-15" points="158.15 28.05 160.55 30.25 34.94 167.28 31.08 163.74 155.46 28.05 158.15 28.05"/><rect class="cls-14" x="6.73" y="97.91" width="185.89" height="5.24" transform="translate(-41.79 106.08) rotate(-47.49)"/><rect class="cls-13" x="10.59" y="101.45" width="185.89" height="5.24" transform="translate(-43.14 110.07) rotate(-47.49)"/><rect class="cls-12" x="14.45" y="104.99" width="185.89" height="5.24" transform="translate(-44.5 114.06) rotate(-47.49)"/><rect class="cls-11" x="18.31" y="108.53" width="185.89" height="5.24" transform="translate(-45.86 118.06) rotate(-47.49)"/><rect class="cls-11" x="22.17" y="112.07" width="185.89" height="5.24" transform="translate(-47.22 122.05) rotate(-47.49)"/><rect class="cls-10" x="26.03" y="115.61" width="185.89" height="5.24" transform="translate(-48.57 126.04) rotate(-47.49)"/><polygon class="cls-9" points="183.71 51.49 187.57 55.02 62.06 191.95 61.85 191.95 58.1 188.51 183.71 51.49"/><polygon class="cls-8" points="187.57 55.02 191.44 58.56 69.17 191.95 62.06 191.95 187.57 55.02"/><polygon class="cls-8" points="191.44 58.56 191.95 59.04 191.95 65.75 76.27 191.95 69.17 191.95 191.44 58.56"/><polygon class="cls-7" points="191.95 73.5 83.38 191.95 76.27 191.95 191.95 65.75 191.95 73.5"/><polygon class="cls-7" points="191.95 81.26 90.48 191.95 83.38 191.95 191.95 73.5 191.95 81.26"/><polygon class="cls-6" points="191.95 89.01 97.59 191.95 90.48 191.95 191.95 81.26 191.95 89.01"/><polygon class="cls-6" points="191.95 96.76 104.69 191.95 97.59 191.95 191.95 89.01 191.95 96.76"/><polygon class="cls-6" points="191.95 104.51 111.8 191.95 104.69 191.95 191.95 96.76 191.95 104.51"/><polygon class="cls-5" points="191.95 112.26 118.9 191.95 111.8 191.95 191.95 104.51 191.95 112.26"/><polygon class="cls-5" points="191.95 120.01 126.01 191.95 118.9 191.95 191.95 112.26 191.95 120.01"/><polygon class="cls-5" points="191.95 127.76 133.11 191.95 126.01 191.95 191.95 120.01 191.95 127.76"/><polygon class="cls-5" points="191.95 135.52 140.22 191.95 133.11 191.95 191.95 127.76 191.95 135.52"/><polygon class="cls-5" points="191.95 143.27 147.32 191.95 140.22 191.95 191.95 135.52 191.95 143.27"/><polygon class="cls-5" points="147.32 191.95 191.95 143.27 191.95 191.95 147.32 191.95"/></g><path d="M69,131,67.57,133a30.56,30.56,0,0,0-1.31-2.81v10.34h-2.6v-9a21.52,21.52,0,0,1-2.18,4.73,13.53,13.53,0,0,0-1.25-2.53,20.6,20.6,0,0,0,2.86-6.61c.14-.5.26-1,.35-1.43H60.77v-2.62h2.89v-4.95h2.6v4.95h2.27v.72a17.42,17.42,0,0,0,4.69-4.45,12.2,12.2,0,0,0,.79-1.19h2.63a18.08,18.08,0,0,0,5.2,5,11,11,0,0,0,1.36.75,12.68,12.68,0,0,0-1.62,2.54,14.81,14.81,0,0,1-2.39-1.74v1.36H71.74v-1.24a17.37,17.37,0,0,1-2.51,1.83,11.8,11.8,0,0,0-.7-1.27v.35H66.26v1.06q1.21,1.66,2.74,4.12S69,131,69,131Zm2.16,2.2,2.55.54a18.52,18.52,0,0,1-.58,2,13.85,13.85,0,0,1,2,2l-1.69,1.69a11.41,11.41,0,0,0-1.38-1.62,9.11,9.11,0,0,1-3,2.89A7.15,7.15,0,0,0,67.66,139a.94.94,0,0,0-.16-.14A7.86,7.86,0,0,0,71.18,133.18Zm-2-.28v-5.72h5.84v5.72Zm2.09-3.8V131h1.57V129.1Zm1.48-5.22h5.43a24.56,24.56,0,0,1-2.81-3.12A21.06,21.06,0,0,1,72.8,123.88Zm4.8,9.33,2.53.46a14.47,14.47,0,0,1-.51,2,38.85,38.85,0,0,1,3.44,3l-1.78,1.87A29.41,29.41,0,0,0,78.56,138a7.77,7.77,0,0,1-2.74,2.58,7.73,7.73,0,0,0-1.43-1.76l-.12-.09Q77,137.14,77.6,133.21ZM76,132.9v-5.72h6v5.72Zm2.16-3.8V131h1.66V129.1Z"/><path d="M86.77,139.28l-1.43-.75a12,12,0,0,0,1.08-5.37l1.54.28a14.91,14.91,0,0,1-1,5.46Zm16.64-6,2.37.14a15.24,15.24,0,0,1-.45,2.53,24.46,24.46,0,0,1,2.79,3.29l-1.78,1.38a21.81,21.81,0,0,0-1.88-2.44,7.64,7.64,0,0,1-2.2,2.49,7,7,0,0,0-1.52-1.5l-.68.7A15.88,15.88,0,0,0,98.61,138a7.83,7.83,0,0,1-2.25,2.7,7.85,7.85,0,0,0-1.58-1.52.28.28,0,0,0-.11-.07,2.6,2.6,0,0,1-.31.68,2,2,0,0,1-1.38.82,13.94,13.94,0,0,1-2,.09,5.41,5.41,0,0,0-.54-2.13c.42,0,.89.07,1.41.07a.79.79,0,0,0,.61-.28,7.21,7.21,0,0,0,.35-2.18l-.66.23a12.78,12.78,0,0,0-1-3.09l1-.36a13.15,13.15,0,0,1,.68,1.62c0-.54.06-1.36.09-2.44H86.56v-13h8.37v2.23H92.44v1.47H94.5v2.09H92.44v1.48h2.13v2.08H92.44v1.52h2.74s0,.33,0,.92a68.19,68.19,0,0,1-.49,8.18q2.46-1.65,2.81-5.74l2.34.14a23.66,23.66,0,0,1-.39,2.34,19.84,19.84,0,0,1,2.13,2.41A8,8,0,0,0,103.41,133.25Zm-15.23.4,1.21-.14a23.18,23.18,0,0,1,.22,4.41l-1.29.16A25.28,25.28,0,0,0,88.18,133.65Zm2.08-12.37H88.78v1.47h1.48Zm0,5v-1.48H88.78v1.48Zm-1.48,2.08v1.52h1.48V128.4Zm.87,5.09,1.17-.21a19.58,19.58,0,0,1,.71,3.89l-1.2.21A16.67,16.67,0,0,0,89.65,133.49Zm8.67-7.55v-1.55a12.54,12.54,0,0,1-2.46,1.78,7.54,7.54,0,0,0-1.26-2.39A13,13,0,0,0,99,119.89a12.73,12.73,0,0,0,1.05-1.68h2.56a14.51,14.51,0,0,0,4.4,4.61,11,11,0,0,0,1.36.75,17.21,17.21,0,0,0-1.45,2.53,17.79,17.79,0,0,1-2.25-1.61v1.45Zm-2.43,6.91V127H101v5.83Zm1.87-4.07v2.29H99.1v-2.29Zm1.13-4.93H104a15.47,15.47,0,0,1-2.58-3.14A14.66,14.66,0,0,1,98.89,123.85Zm3,9V127h5.34v5.83Zm1.85-4.07v2.29h1.5v-2.29Z"/><path d="M128.68,130.42h3v10.15h-3v-1.36H115.37v1.38h-2.91V130.42h2.91v6h5v-7.24h-7v-8.72h2.84v5.93h4.12v-7.94h2.93v7.94h4.39v-5.93h3v8.72h-7.39v7.24h5.37Z"/><path d="M140.33,126.22v-2.93a21.56,21.56,0,0,1-2.58,1.57,10.19,10.19,0,0,0-2-2,20.9,20.9,0,0,0,3.83-2.14,13.87,13.87,0,0,0,2.94-2.71l2.6,1a15.83,15.83,0,0,1-2,2.18v5.08Zm15.07,10.34h-4.15a69.54,69.54,0,0,1,6.85,2.81l-3.31,1.27a43.46,43.46,0,0,0-6.25-2.84l2.18-1.24h-7l2.21,1a27.72,27.72,0,0,1-7.5,3.14,25.23,25.23,0,0,0-2.11-2.09,25.39,25.39,0,0,0,6.61-2h-3.54v-9.75H155.4Zm-13.29-8v1h10.41v-1Zm0,2.65v1h10.41v-1Zm0,2.62v1.06h10.41v-1.06Zm4.29-10.71v-4.83h2.65v2.09a43.29,43.29,0,0,0,5.84-1.57l2,1.83a56.3,56.3,0,0,1-7.83,1.9v.56c0,.37.09.61.27.7a3.38,3.38,0,0,0,1.23.14h4c.5,0,.83-.11,1-.33a4,4,0,0,0,.31-1.54,7.6,7.6,0,0,0,2.35.84,4.37,4.37,0,0,1-.94,2.59,3.49,3.49,0,0,1-2.44.67h-4.45a5.37,5.37,0,0,1-3.12-.63A3,3,0,0,1,146.4,123.08Z"/><path class="cls-2" d="M90.35,73A7.74,7.74,0,0,1,91,69.8a7.29,7.29,0,0,1,1.67-2.39,7.16,7.16,0,0,1,2.43-1.53A7.94,7.94,0,0,1,98,65.35a8,8,0,0,1,2.88.53,7.21,7.21,0,0,1,2.42,1.53,7.47,7.47,0,0,1,1.68,2.39,7.91,7.91,0,0,1,.62,3.2V93.91a7.86,7.86,0,0,1-.62,3.19,7.41,7.41,0,0,1-1.68,2.4,7.21,7.21,0,0,1-2.42,1.53,8,8,0,0,1-2.88.52,7.93,7.93,0,0,1-2.87-.52,7.16,7.16,0,0,1-2.43-1.53A7.23,7.23,0,0,1,91,97.1a7.7,7.7,0,0,1-.63-3.19Zm5.1,20.91a2.5,2.5,0,0,0,.7,1.82,2.58,2.58,0,0,0,3.6,0,2.5,2.5,0,0,0,.7-1.82V73a2.5,2.5,0,0,0-.7-1.82,2.61,2.61,0,0,0-3.6,0,2.5,2.5,0,0,0-.7,1.82Z"/><path class="cls-2" d="M126.65,65.66v4.8h-10.1v9.59a6,6,0,0,1,1.8-1.17,6,6,0,0,1,2.45-.47A5.84,5.84,0,0,1,125,80a6.31,6.31,0,0,1,1.62,4.73v9.2A7.86,7.86,0,0,1,126,97.1a7.41,7.41,0,0,1-1.68,2.4,7.21,7.21,0,0,1-2.42,1.53,8,8,0,0,1-2.88.52,7.93,7.93,0,0,1-2.87-.52,7.16,7.16,0,0,1-2.43-1.53,7.23,7.23,0,0,1-1.67-2.4,7.7,7.7,0,0,1-.63-3.19v-1.5h5.1v1.3a2.71,2.71,0,0,0,.73,2,2.53,2.53,0,0,0,1.87.73,2.26,2.26,0,0,0,1.78-.71,2.83,2.83,0,0,0,.62-2V85.46a2.58,2.58,0,0,0-.67-1.8,2.23,2.23,0,0,0-1.73-.75,2.45,2.45,0,0,0-1.1.22,2.87,2.87,0,0,0-.75.53,2,2,0,0,0-.45.64c-.17.3-.27.49-.3.55h-4.5V65.66Z"/></g></g></svg>