<svg xmlns="http://www.w3.org/2000/svg" xmlns:xlink="http://www.w3.org/1999/xlink" viewBox="0 0 220 220"><defs><style>.cls-1{fill:none;}.cls-2{fill:#fe5000;}.cls-3{opacity:0.2;}.cls-4{clip-path:url(#clip-path);}.cls-5{fill:#fff;}.cls-6{fill:#fefefe;}.cls-7{fill:#fdfdfd;}.cls-8{fill:#fcfcfc;}.cls-9{fill:#fbfbfb;}.cls-10{fill:#fafafa;}.cls-11{fill:#f9f9f9;}.cls-12{fill:#f8f8f8;}.cls-13{fill:#f6f6f6;}.cls-14{fill:#f5f5f5;}.cls-15{fill:#f4f4f4;}.cls-16{fill:#f3f3f3;}.cls-17{fill:#f1f1f1;}.cls-18{fill:#f0f0f0;}.cls-19{fill:#eee;}.cls-20{fill:#ededed;}.cls-21{fill:#ebebeb;}.cls-22{fill:#e9e9e9;}.cls-23{fill:#e7e7e7;}.cls-24{fill:#e5e5e5;}.cls-25{fill:#e3e3e3;}.cls-26{fill:#e1e1e1;}.cls-27{fill:#dfdfdf;}.cls-28{clip-path:url(#clip-path-2);}</style><clipPath id="clip-path"><path class="cls-1" d="M196.35,110A86.35,86.35,0,0,1,50,172.07l-2-2A86.35,86.35,0,0,1,170,47.93l2,2A86.08,86.08,0,0,1,196.35,110Z"/></clipPath><clipPath id="clip-path-2"><circle class="cls-1" cx="110" cy="110" r="81.95" transform="translate(-45.56 110) rotate(-45)"/></clipPath></defs><g id="圖層_2" data-name="圖層 2"><g id="內容"><path class="cls-2" d="M220,110a109.89,109.89,0,1,1-.74-12.84A110,110,0,0,1,220,110Z"/><g class="cls-3"><path d="M220,110A110.1,110.1,0,0,1,97.16,219.26L47.93,170a86.09,86.09,0,0,1-14.76-20.58L149.45,33.17A86.09,86.09,0,0,1,170,47.93l49.23,49.23A111,111,0,0,1,220,110Z"/></g><g class="cls-4"><polygon class="cls-5" points="64.33 23.65 23.65 65.31 23.65 23.65 64.33 23.65"/><polygon class="cls-5" points="72.55 23.65 23.65 73.73 23.65 65.31 64.33 23.65 72.55 23.65"/><polygon class="cls-5" points="80.77 23.65 23.65 82.15 23.65 73.73 72.55 23.65 80.77 23.65"/><polygon class="cls-5" points="88.99 23.65 23.65 90.57 23.65 82.15 80.77 23.65 88.99 23.65"/><polygon class="cls-5" points="97.21 23.65 23.65 98.98 23.65 90.57 88.99 23.65 97.21 23.65"/><polygon class="cls-5" points="105.43 23.65 23.65 107.4 23.65 98.98 97.21 23.65 105.43 23.65"/><polygon class="cls-6" points="113.65 23.65 23.65 115.82 23.65 107.4 105.43 23.65 113.65 23.65"/><polygon class="cls-6" points="121.87 23.65 23.65 124.24 23.65 115.82 113.65 23.65 121.87 23.65"/><polygon class="cls-6" points="130.09 23.65 23.65 132.65 23.65 124.24 121.87 23.65 130.09 23.65"/><polygon class="cls-7" points="138.31 23.65 23.65 141.07 23.65 132.65 130.09 23.65 138.31 23.65"/><polygon class="cls-7" points="146.53 23.65 23.81 149.32 23.65 149.16 23.65 141.07 138.31 23.65 146.53 23.65"/><polygon class="cls-8" points="148.03 23.65 151.47 27.01 28.02 153.43 23.81 149.32 146.53 23.65 148.03 23.65"/><rect class="cls-8" x="3.5" y="89.33" width="176.7" height="5.88" transform="translate(-38.34 93.52) rotate(-45.68)"/><rect class="cls-9" x="7.71" y="93.44" width="176.7" height="5.88" transform="translate(-40.01 97.77) rotate(-45.68)"/><rect class="cls-10" x="11.91" y="97.55" width="176.7" height="5.88" transform="translate(-41.68 102.02) rotate(-45.68)"/><rect class="cls-11" x="16.12" y="101.66" width="176.7" height="5.88" transform="translate(-43.36 106.27) rotate(-45.68)"/><rect class="cls-11" x="20.33" y="105.77" width="176.7" height="5.88" transform="translate(-45.03 110.52) rotate(-45.68)"/><rect class="cls-12" x="24.54" y="109.88" width="176.7" height="5.88" transform="translate(-46.7 114.76) rotate(-45.68)"/><rect class="cls-13" x="28.74" y="113.98" width="176.7" height="5.88" transform="translate(-48.37 119.01) rotate(-45.68)"/><rect class="cls-14" x="32.95" y="118.09" width="176.7" height="5.88" transform="translate(-50.04 123.26) rotate(-45.68)"/><rect class="cls-15" x="37.16" y="122.2" width="176.7" height="5.88" transform="translate(-51.71 127.51) rotate(-45.68)"/><rect class="cls-16" x="41.37" y="126.31" width="176.7" height="5.88" transform="translate(-53.38 131.76) rotate(-45.68)"/><polygon class="cls-17" points="193.54 68.09 196.35 70.83 196.35 73.64 76.52 196.35 71.97 196.35 70.09 194.52 193.54 68.09"/><polygon class="cls-18" points="196.35 82.05 84.74 196.35 76.52 196.35 196.35 73.64 196.35 82.05"/><polygon class="cls-19" points="196.35 90.47 92.96 196.35 84.74 196.35 196.35 82.05 196.35 90.47"/><polygon class="cls-20" points="196.35 98.89 101.18 196.35 92.96 196.35 196.35 90.47 196.35 98.89"/><polygon class="cls-21" points="196.35 107.31 109.4 196.35 101.18 196.35 196.35 98.89 196.35 107.31"/><polygon class="cls-22" points="196.35 115.72 117.62 196.35 109.4 196.35 196.35 107.31 196.35 115.72"/><polygon class="cls-23" points="196.35 124.14 125.84 196.35 117.62 196.35 196.35 115.72 196.35 124.14"/><polygon class="cls-24" points="196.35 132.56 134.06 196.35 125.84 196.35 196.35 124.14 196.35 132.56"/><polygon class="cls-25" points="196.35 140.97 142.28 196.35 134.06 196.35 196.35 132.56 196.35 140.97"/><polygon class="cls-26" points="196.35 149.39 150.5 196.35 142.28 196.35 196.35 140.97 196.35 149.39"/><polygon class="cls-27" points="196.35 157.81 158.72 196.35 150.5 196.35 196.35 149.39 196.35 157.81"/><polygon class="cls-27" points="158.72 196.35 196.35 157.81 196.35 196.35 158.72 196.35"/></g><g class="cls-28"><polygon class="cls-27" points="70.19 28.05 28.05 74.03 28.05 28.05 70.19 28.05"/><polygon class="cls-27" points="77.3 28.05 28.05 81.78 28.05 74.03 70.19 28.05 77.3 28.05"/><polygon class="cls-26" points="84.41 28.05 28.05 89.53 28.05 81.78 77.3 28.05 84.41 28.05"/><polygon class="cls-25" points="91.51 28.05 28.05 97.28 28.05 89.53 84.41 28.05 91.51 28.05"/><polygon class="cls-24" points="98.62 28.05 28.05 105.03 28.05 97.28 91.51 28.05 98.62 28.05"/><polygon class="cls-23" points="105.72 28.05 28.05 112.78 28.05 105.03 98.62 28.05 105.72 28.05"/><polygon class="cls-22" points="112.83 28.05 28.05 120.53 28.05 112.78 105.72 28.05 112.83 28.05"/><polygon class="cls-21" points="119.93 28.05 28.05 128.28 28.05 120.53 112.83 28.05 119.93 28.05"/><polygon class="cls-20" points="127.04 28.05 28.05 136.04 28.05 128.28 119.93 28.05 127.04 28.05"/><polygon class="cls-19" points="134.14 28.05 28.05 143.79 28.05 136.04 127.04 28.05 134.14 28.05"/><polygon class="cls-18" points="141.25 28.05 28.05 151.54 28.05 143.79 134.14 28.05 141.25 28.05"/><polygon class="cls-17" points="148.35 28.05 28.05 159.29 28.05 151.54 141.25 28.05 148.35 28.05"/><polygon class="cls-16" points="155.46 28.05 31.08 163.74 28.05 160.96 28.05 159.29 148.35 28.05 155.46 28.05"/><polygon class="cls-15" points="158.15 28.05 160.55 30.25 34.94 167.28 31.08 163.74 155.46 28.05 158.15 28.05"/><rect class="cls-14" x="6.73" y="97.91" width="185.89" height="5.24" transform="translate(-41.79 106.08) rotate(-47.49)"/><rect class="cls-13" x="10.59" y="101.45" width="185.89" height="5.24" transform="translate(-43.14 110.07) rotate(-47.49)"/><rect class="cls-12" x="14.45" y="104.99" width="185.89" height="5.24" transform="translate(-44.5 114.06) rotate(-47.49)"/><rect class="cls-11" x="18.31" y="108.53" width="185.89" height="5.24" transform="translate(-45.86 118.06) rotate(-47.49)"/><rect class="cls-11" x="22.17" y="112.07" width="185.89" height="5.24" transform="translate(-47.22 122.05) rotate(-47.49)"/><rect class="cls-10" x="26.03" y="115.61" width="185.89" height="5.24" transform="translate(-48.57 126.04) rotate(-47.49)"/><polygon class="cls-9" points="183.71 51.49 187.57 55.02 62.06 191.95 61.85 191.95 58.1 188.51 183.71 51.49"/><polygon class="cls-8" points="187.57 55.02 191.44 58.56 69.17 191.95 62.06 191.95 187.57 55.02"/><polygon class="cls-8" points="191.44 58.56 191.95 59.04 191.95 65.75 76.27 191.95 69.17 191.95 191.44 58.56"/><polygon class="cls-7" points="191.95 73.5 83.38 191.95 76.27 191.95 191.95 65.75 191.95 73.5"/><polygon class="cls-7" points="191.95 81.26 90.48 191.95 83.38 191.95 191.95 73.5 191.95 81.26"/><polygon class="cls-6" points="191.95 89.01 97.59 191.95 90.48 191.95 191.95 81.26 191.95 89.01"/><polygon class="cls-6" points="191.95 96.76 104.69 191.95 97.59 191.95 191.95 89.01 191.95 96.76"/><polygon class="cls-6" points="191.95 104.51 111.8 191.95 104.69 191.95 191.95 96.76 191.95 104.51"/><polygon class="cls-5" points="191.95 112.26 118.9 191.95 111.8 191.95 191.95 104.51 191.95 112.26"/><polygon class="cls-5" points="191.95 120.01 126.01 191.95 118.9 191.95 191.95 112.26 191.95 120.01"/><polygon class="cls-5" points="191.95 127.76 133.11 191.95 126.01 191.95 191.95 120.01 191.95 127.76"/><polygon class="cls-5" points="191.95 135.52 140.22 191.95 133.11 191.95 191.95 127.76 191.95 135.52"/><polygon class="cls-5" points="191.95 143.27 147.32 191.95 140.22 191.95 191.95 135.52 191.95 143.27"/><polygon class="cls-5" points="147.32 191.95 191.95 143.27 191.95 191.95 147.32 191.95"/></g><g class="cls-28"><polygon class="cls-27" points="70.19 28.05 28.05 74.03 28.05 28.05 70.19 28.05"/><polygon class="cls-27" points="77.3 28.05 28.05 81.78 28.05 74.03 70.19 28.05 77.3 28.05"/><polygon class="cls-26" points="84.41 28.05 28.05 89.53 28.05 81.78 77.3 28.05 84.41 28.05"/><polygon class="cls-25" points="91.51 28.05 28.05 97.28 28.05 89.53 84.41 28.05 91.51 28.05"/><polygon class="cls-24" points="98.62 28.05 28.05 105.03 28.05 97.28 91.51 28.05 98.62 28.05"/><polygon class="cls-23" points="105.72 28.05 28.05 112.78 28.05 105.03 98.62 28.05 105.72 28.05"/><polygon class="cls-22" points="112.83 28.05 28.05 120.53 28.05 112.78 105.72 28.05 112.83 28.05"/><polygon class="cls-21" points="119.93 28.05 28.05 128.28 28.05 120.53 112.83 28.05 119.93 28.05"/><polygon class="cls-20" points="127.04 28.05 28.05 136.04 28.05 128.28 119.93 28.05 127.04 28.05"/><polygon class="cls-19" points="134.14 28.05 28.05 143.79 28.05 136.04 127.04 28.05 134.14 28.05"/><polygon class="cls-18" points="141.25 28.05 28.05 151.54 28.05 143.79 134.14 28.05 141.25 28.05"/><polygon class="cls-17" points="148.35 28.05 28.05 159.29 28.05 151.54 141.25 28.05 148.35 28.05"/><polygon class="cls-16" points="155.46 28.05 31.08 163.74 28.05 160.96 28.05 159.29 148.35 28.05 155.46 28.05"/><polygon class="cls-15" points="158.15 28.05 160.55 30.25 34.94 167.28 31.08 163.74 155.46 28.05 158.15 28.05"/><rect class="cls-14" x="6.73" y="97.91" width="185.89" height="5.24" transform="translate(-41.79 106.08) rotate(-47.49)"/><rect class="cls-13" x="10.59" y="101.45" width="185.89" height="5.24" transform="translate(-43.14 110.07) rotate(-47.49)"/><rect class="cls-12" x="14.45" y="104.99" width="185.89" height="5.24" transform="translate(-44.5 114.06) rotate(-47.49)"/><rect class="cls-11" x="18.31" y="108.53" width="185.89" height="5.24" transform="translate(-45.86 118.06) rotate(-47.49)"/><rect class="cls-11" x="22.17" y="112.07" width="185.89" height="5.24" transform="translate(-47.22 122.05) rotate(-47.49)"/><rect class="cls-10" x="26.03" y="115.61" width="185.89" height="5.24" transform="translate(-48.57 126.04) rotate(-47.49)"/><polygon class="cls-9" points="183.71 51.49 187.57 55.02 62.06 191.95 61.85 191.95 58.1 188.51 183.71 51.49"/><polygon class="cls-8" points="187.57 55.02 191.44 58.56 69.17 191.95 62.06 191.95 187.57 55.02"/><polygon class="cls-8" points="191.44 58.56 191.95 59.04 191.95 65.75 76.27 191.95 69.17 191.95 191.44 58.56"/><polygon class="cls-7" points="191.95 73.5 83.38 191.95 76.27 191.95 191.95 65.75 191.95 73.5"/><polygon class="cls-7" points="191.95 81.26 90.48 191.95 83.38 191.95 191.95 73.5 191.95 81.26"/><polygon class="cls-6" points="191.95 89.01 97.59 191.95 90.48 191.95 191.95 81.26 191.95 89.01"/><polygon class="cls-6" points="191.95 96.76 104.69 191.95 97.59 191.95 191.95 89.01 191.95 96.76"/><polygon class="cls-6" points="191.95 104.51 111.8 191.95 104.69 191.95 191.95 96.76 191.95 104.51"/><polygon class="cls-5" points="191.95 112.26 118.9 191.95 111.8 191.95 191.95 104.51 191.95 112.26"/><polygon class="cls-5" points="191.95 120.01 126.01 191.95 118.9 191.95 191.95 112.26 191.95 120.01"/><polygon class="cls-5" points="191.95 127.76 133.11 191.95 126.01 191.95 191.95 120.01 191.95 127.76"/><polygon class="cls-5" points="191.95 135.52 140.22 191.95 133.11 191.95 191.95 127.76 191.95 135.52"/><polygon class="cls-5" points="191.95 143.27 147.32 191.95 140.22 191.95 191.95 135.52 191.95 143.27"/><polygon class="cls-5" points="147.32 191.95 191.95 143.27 191.95 191.95 147.32 191.95"/></g><path d="M67.31,122.66v1.66h4v2.39h-2l.93.24c-.14.29-.33.75-.58,1.36s-.41,1-.52,1.19h1.78v2.39H67.31v1.85h3.38v2.42H67.31v4.36H64.66v-4.36H61.08v-2.42h3.58v-1.85H60.89V129.5h1.8a12.61,12.61,0,0,0-.79-2.58l.86-.21H60.4v-2.39h4.26v-1.66H61.24v-2.35h3.42v-2.08h2.65v2.08h3.12v2.35Zm.42,6.84-.77-.21q.66-1.84.84-2.58H64.17a9.83,9.83,0,0,1,.82,2.58l-.75.21Zm12.87-2.2,1.71.59a24.07,24.07,0,0,1-2.53,7.85,12,12,0,0,0,3.35,2.62,8.16,8.16,0,0,0-1.8,2.16l0,.09a13.45,13.45,0,0,1-3-2.53,14.14,14.14,0,0,1-2.63,2.56,6.48,6.48,0,0,0-1.31-1.48v1.4h-2.6V119.19h10v4.5a2.37,2.37,0,0,1-.82,2.11,2.25,2.25,0,0,1-.38.19,12.34,12.34,0,0,1-4,.42,9.41,9.41,0,0,0-.82-2.46c1.16,0,2.11.07,2.86.07.31,0,.48-.17.49-.38v-2H74.34v5.75h5.79Zm-6.26,3.35v7.64a13.92,13.92,0,0,0,2.3-2.46A24.46,24.46,0,0,1,74.34,130.65Zm5-1h-3A16.64,16.64,0,0,0,78,133.39,15.75,15.75,0,0,0,79.33,129.67Z"/><path d="M89.89,118.21l2.65.77q-.83,2.42-1.83,4.66v16.92H88v-12a17.16,17.16,0,0,1-1.48,2,15.74,15.74,0,0,0-1.29-2.9,1.31,1.31,0,0,0-.09-.17,24,24,0,0,0,4.33-7.94C89.62,119.06,89.76,118.63,89.89,118.21Zm16.94,18.84h-3.56a43.25,43.25,0,0,1,5.09,2l-2.47,1.6a26.23,26.23,0,0,0-5.15-2.3l1.52-1.31H97.57l1.57,1.12a16.71,16.71,0,0,1-6.09,2.44,8.74,8.74,0,0,0-1.5-1.94,19.42,19.42,0,0,0,5.09-1.62h-3.4v-9h13.59Zm1-15.75h-4.85v1h4.13v5H92.89v-5h3.93v-1H92.46v-2.06h15.33ZM95.37,124v1.64h1.45V124Zm.52,5.74v.87H104v-.87Zm0,2.42V133H104v-.84Zm0,2.39v.91H104v-.91Zm4.75-12.19v-1H99.07v1ZM99.07,124v1.64h1.57V124Zm5.42,0h-1.55v1.64h1.55Z"/><path d="M130.39,135.2h-2.93a9,9,0,0,1-.59,1.29,52.42,52.42,0,0,1,5.61,2l-1.78,2.13a45,45,0,0,0-5.37-2.13,11,11,0,0,1-3.35,2.18,12.45,12.45,0,0,0-1.78-1.95l-1,1.27a17.42,17.42,0,0,0-2.53-1.67,14.28,14.28,0,0,1-3.93,2.35,12.77,12.77,0,0,0-1.76-2.11,9.59,9.59,0,0,0,5.2-3.35h-2.46v-5.14c-.39.16-.88.33-1.45.5a11,11,0,0,0-1.39-2.18,25.66,25.66,0,0,0,8-3.68,14.54,14.54,0,0,0,1.76-1.48h1.26a15.33,15.33,0,0,0-1.31-.84.94.94,0,0,0,.16-.14l.17-.12h-2.7a10.22,10.22,0,0,1,.89,1.9l-2.5.79a12.52,12.52,0,0,0-1.25-2.69h-.21a20.28,20.28,0,0,1-2.15,2.79,14,14,0,0,0-2.3-1.55,12.79,12.79,0,0,0,3.28-4.69c.11-.25.2-.48.28-.7l2.65.7c-.17.43-.37.86-.59,1.32h5.25v1.52a10.79,10.79,0,0,0,2.37-3.54l2.72.68c-.19.44-.41.88-.66,1.34h7.08v2.13H129a10.73,10.73,0,0,1,1.24,1.78l-2.65.8a13.76,13.76,0,0,0-1.75-2.58h-1.2c-.25.31-.64.75-1.17,1.31a23.2,23.2,0,0,0,8.95,4.48l1,.26a11,11,0,0,0-1.57,2.29l-.68-.23c-.34-.13-.6-.21-.77-.26Zm-9.56,2.74-.59.73a7.36,7.36,0,0,0,4.43-3.47h-2.13v-5.3h7.69a41.5,41.5,0,0,1-4.41-2v1.17h-7.43v-1.22a34.51,34.51,0,0,1-4.34,2.06h7.39v5.3h-2.65l.3.07a10,10,0,0,1-.77,1.24A18.22,18.22,0,0,1,120.83,137.94Zm-2.21-4.66v-1.46h-2.29v1.46Zm.94-6.12h5a22.11,22.11,0,0,1-2.55-1.85A18.14,18.14,0,0,1,119.56,127.16Zm8,6.12v-1.46h-2.39v1.46Z"/><path d="M136.91,132.22l2.34.4a21.14,21.14,0,0,1-1.42,6.19,10.83,10.83,0,0,0-2.21-1A16.66,16.66,0,0,0,136.91,132.22Zm12.84-10h8.18s0,.45,0,1.31q-.33,11.12-1,13.9a4.45,4.45,0,0,1-.7,1.69,3.1,3.1,0,0,1-1.85,1.24l-.45.07a23.38,23.38,0,0,1-3.75.07,5.77,5.77,0,0,0-.87-2.74l-.09-.14c1,.09,2.21.14,3.54.14a1.42,1.42,0,0,0,1-.4c.54-.57.93-3.25,1.17-8.07.06-1.25.12-2.71.16-4.38h-6.63a22.24,22.24,0,0,1-2,3.12,15.63,15.63,0,0,0-2.25-1.59,18.36,18.36,0,0,1,1.88,4.47l-2.16,1c0-.23-.17-.66-.35-1.29l-1.36.09v9.87h-2.53v-9.68l-3.54.26-.24-2.51,1.76-.07c.63-.8,1-1.29,1.13-1.47a22,22,0,0,0-2.89-3.31l1.34-2a3.49,3.49,0,0,0,.3.26c.13.12.22.21.29.26a24.22,24.22,0,0,0,1.73-4.17l2.53.89q-1.68,3.23-2.72,4.82c.27.3.55.64.85,1a38,38,0,0,0,2.2-3.91l2.44,1a72.36,72.36,0,0,1-4.6,6.49l2.42-.1c-.25-.56-.53-1.11-.82-1.66l2-.89.17.3a17.73,17.73,0,0,0,3.75-7.21l.21-.78,2.93.61A27.81,27.81,0,0,1,149.75,122.24Zm-7.5,10.5,2.11-.66a21.73,21.73,0,0,1,1.57,4.5l-2.27.8A21.08,21.08,0,0,0,142.25,132.74Zm10.2.47L150,134.52a20.44,20.44,0,0,0-2.72-5.28,1.86,1.86,0,0,1-.21-.28l2.27-1.15A20.52,20.52,0,0,1,152.45,133.21Z"/><path class="cls-2" d="M90.35,73A7.74,7.74,0,0,1,91,69.8a7.44,7.44,0,0,1,1.67-2.4,7.29,7.29,0,0,1,2.43-1.52A7.94,7.94,0,0,1,98,65.35a8,8,0,0,1,2.88.53,7.34,7.34,0,0,1,2.42,1.52,7.63,7.63,0,0,1,1.68,2.4,7.91,7.91,0,0,1,.62,3.2V93.9a7.87,7.87,0,0,1-.62,3.2,7.41,7.41,0,0,1-1.68,2.4,7.21,7.21,0,0,1-2.42,1.53,8,8,0,0,1-2.88.52,7.93,7.93,0,0,1-2.87-.52,7.16,7.16,0,0,1-2.43-1.53A7.23,7.23,0,0,1,91,97.1a7.71,7.71,0,0,1-.63-3.2Zm5.1,20.9a2.5,2.5,0,0,0,.7,1.83,2.61,2.61,0,0,0,3.6,0,2.5,2.5,0,0,0,.7-1.83V73a2.5,2.5,0,0,0-.7-1.82,2.58,2.58,0,0,0-3.6,0,2.5,2.5,0,0,0-.7,1.82Z"/><path class="cls-2" d="M117.5,80.65a6.38,6.38,0,0,0,3.17-.55c.59-.36.88-1.21.88-2.55V73a2.46,2.46,0,0,0-.68-1.8,2.43,2.43,0,0,0-1.82-.7,2.19,2.19,0,0,0-1.93.85,3,3,0,0,0-.57,1.65v2.9h-5.1V72.9a7.45,7.45,0,0,1,.6-3,7.24,7.24,0,0,1,1.65-2.4,8.37,8.37,0,0,1,2.45-1.6,7.51,7.51,0,0,1,3-.6,6.63,6.63,0,0,1,3.47.83,8.17,8.17,0,0,1,2.08,1.67,11.45,11.45,0,0,1,.88,1.2,6.08,6.08,0,0,1,.62,1.45,20,20,0,0,1,.45,4.9c0,1.24,0,2.24-.07,3a6.24,6.24,0,0,1-.38,1.9,3.71,3.71,0,0,1-1,1.35,11.5,11.5,0,0,1-1.73,1.2,10,10,0,0,1,1.83,1.4,4.31,4.31,0,0,1,.92,1.5,7.64,7.64,0,0,1,.35,2.13c0,.82.05,1.86.05,3.12s0,2.14-.07,2.9a14.73,14.73,0,0,1-.23,1.9,5.57,5.57,0,0,1-.4,1.35,8,8,0,0,1-.65,1.15,8,8,0,0,1-2.43,2.33,7.15,7.15,0,0,1-3.87.92,8.87,8.87,0,0,1-2.55-.4,6.82,6.82,0,0,1-2.45-1.3,7.17,7.17,0,0,1-1.83-2.35,7.91,7.91,0,0,1-.72-3.55v-2.9h5.1V93.7a2.92,2.92,0,0,0,.68,2,2.54,2.54,0,0,0,3.64,0,3,3,0,0,0,.68-2.08V88.5c0-1.4-.27-2.31-.8-2.75a2.31,2.31,0,0,0-1.22-.5,18.1,18.1,0,0,0-2-.1Z"/></g></g></svg>