<svg xmlns="http://www.w3.org/2000/svg" xmlns:xlink="http://www.w3.org/1999/xlink" viewBox="0 0 220 220"><defs><style>.cls-1{fill:none;}.cls-2{fill:#fe5000;}.cls-3{opacity:0.2;}.cls-4{clip-path:url(#clip-path);}.cls-5{fill:#fff;}.cls-6{fill:#fefefe;}.cls-7{fill:#fdfdfd;}.cls-8{fill:#fcfcfc;}.cls-9{fill:#fbfbfb;}.cls-10{fill:#fafafa;}.cls-11{fill:#f9f9f9;}.cls-12{fill:#f8f8f8;}.cls-13{fill:#f6f6f6;}.cls-14{fill:#f5f5f5;}.cls-15{fill:#f4f4f4;}.cls-16{fill:#f3f3f3;}.cls-17{fill:#f1f1f1;}.cls-18{fill:#f0f0f0;}.cls-19{fill:#eee;}.cls-20{fill:#ededed;}.cls-21{fill:#ebebeb;}.cls-22{fill:#e9e9e9;}.cls-23{fill:#e7e7e7;}.cls-24{fill:#e5e5e5;}.cls-25{fill:#e3e3e3;}.cls-26{fill:#e1e1e1;}.cls-27{fill:#dfdfdf;}.cls-28{clip-path:url(#clip-path-2);}</style><clipPath id="clip-path"><path class="cls-1" d="M196.35,110A86.35,86.35,0,0,1,50,172.07l-2-2A86.35,86.35,0,0,1,170,47.93l2,2A86.08,86.08,0,0,1,196.35,110Z"/></clipPath><clipPath id="clip-path-2"><circle class="cls-1" cx="110" cy="110" r="81.95" transform="translate(-45.56 110) rotate(-45)"/></clipPath></defs><g id="圖層_2" data-name="圖層 2"><g id="內容"><path class="cls-2" d="M220,110a109.89,109.89,0,1,1-.74-12.84A110,110,0,0,1,220,110Z"/><g class="cls-3"><path d="M220,110A110.1,110.1,0,0,1,97.16,219.26L47.93,170a86.09,86.09,0,0,1-14.76-20.58L149.45,33.17A86.09,86.09,0,0,1,170,47.93l49.23,49.23A111,111,0,0,1,220,110Z"/></g><g class="cls-4"><polygon class="cls-5" points="64.33 23.65 23.65 65.31 23.65 23.65 64.33 23.65"/><polygon class="cls-5" points="72.55 23.65 23.65 73.73 23.65 65.31 64.33 23.65 72.55 23.65"/><polygon class="cls-5" points="80.77 23.65 23.65 82.15 23.65 73.73 72.55 23.65 80.77 23.65"/><polygon class="cls-5" points="88.99 23.65 23.65 90.57 23.65 82.15 80.77 23.65 88.99 23.65"/><polygon class="cls-5" points="97.21 23.65 23.65 98.98 23.65 90.57 88.99 23.65 97.21 23.65"/><polygon class="cls-5" points="105.43 23.65 23.65 107.4 23.65 98.98 97.21 23.65 105.43 23.65"/><polygon class="cls-6" points="113.65 23.65 23.65 115.82 23.65 107.4 105.43 23.65 113.65 23.65"/><polygon class="cls-6" points="121.87 23.65 23.65 124.24 23.65 115.82 113.65 23.65 121.87 23.65"/><polygon class="cls-6" points="130.09 23.65 23.65 132.65 23.65 124.24 121.87 23.65 130.09 23.65"/><polygon class="cls-7" points="138.31 23.65 23.65 141.07 23.65 132.65 130.09 23.65 138.31 23.65"/><polygon class="cls-7" points="146.53 23.65 23.81 149.32 23.65 149.16 23.65 141.07 138.31 23.65 146.53 23.65"/><polygon class="cls-8" points="148.03 23.65 151.47 27.01 28.02 153.43 23.81 149.32 146.53 23.65 148.03 23.65"/><rect class="cls-8" x="3.5" y="89.33" width="176.7" height="5.88" transform="translate(-38.34 93.52) rotate(-45.68)"/><rect class="cls-9" x="7.71" y="93.44" width="176.7" height="5.88" transform="translate(-40.01 97.77) rotate(-45.68)"/><rect class="cls-10" x="11.91" y="97.55" width="176.7" height="5.88" transform="translate(-41.68 102.02) rotate(-45.68)"/><rect class="cls-11" x="16.12" y="101.66" width="176.7" height="5.88" transform="translate(-43.36 106.27) rotate(-45.68)"/><rect class="cls-11" x="20.33" y="105.77" width="176.7" height="5.88" transform="translate(-45.03 110.52) rotate(-45.68)"/><rect class="cls-12" x="24.54" y="109.88" width="176.7" height="5.88" transform="translate(-46.7 114.76) rotate(-45.68)"/><rect class="cls-13" x="28.74" y="113.98" width="176.7" height="5.88" transform="translate(-48.37 119.01) rotate(-45.68)"/><rect class="cls-14" x="32.95" y="118.09" width="176.7" height="5.88" transform="translate(-50.04 123.26) rotate(-45.68)"/><rect class="cls-15" x="37.16" y="122.2" width="176.7" height="5.88" transform="translate(-51.71 127.51) rotate(-45.68)"/><rect class="cls-16" x="41.37" y="126.31" width="176.7" height="5.88" transform="translate(-53.38 131.76) rotate(-45.68)"/><polygon class="cls-17" points="193.54 68.09 196.35 70.83 196.35 73.64 76.52 196.35 71.97 196.35 70.09 194.52 193.54 68.09"/><polygon class="cls-18" points="196.35 82.05 84.74 196.35 76.52 196.35 196.35 73.64 196.35 82.05"/><polygon class="cls-19" points="196.35 90.47 92.96 196.35 84.74 196.35 196.35 82.05 196.35 90.47"/><polygon class="cls-20" points="196.35 98.89 101.18 196.35 92.96 196.35 196.35 90.47 196.35 98.89"/><polygon class="cls-21" points="196.35 107.31 109.4 196.35 101.18 196.35 196.35 98.89 196.35 107.31"/><polygon class="cls-22" points="196.35 115.72 117.62 196.35 109.4 196.35 196.35 107.31 196.35 115.72"/><polygon class="cls-23" points="196.35 124.14 125.84 196.35 117.62 196.35 196.35 115.72 196.35 124.14"/><polygon class="cls-24" points="196.35 132.56 134.06 196.35 125.84 196.35 196.35 124.14 196.35 132.56"/><polygon class="cls-25" points="196.35 140.97 142.28 196.35 134.06 196.35 196.35 132.56 196.35 140.97"/><polygon class="cls-26" points="196.35 149.39 150.5 196.35 142.28 196.35 196.35 140.97 196.35 149.39"/><polygon class="cls-27" points="196.35 157.81 158.72 196.35 150.5 196.35 196.35 149.39 196.35 157.81"/><polygon class="cls-27" points="158.72 196.35 196.35 157.81 196.35 196.35 158.72 196.35"/></g><g class="cls-28"><polygon class="cls-27" points="70.19 28.05 28.05 74.03 28.05 28.05 70.19 28.05"/><polygon class="cls-27" points="77.3 28.05 28.05 81.78 28.05 74.03 70.19 28.05 77.3 28.05"/><polygon class="cls-26" points="84.41 28.05 28.05 89.53 28.05 81.78 77.3 28.05 84.41 28.05"/><polygon class="cls-25" points="91.51 28.05 28.05 97.28 28.05 89.53 84.41 28.05 91.51 28.05"/><polygon class="cls-24" points="98.62 28.05 28.05 105.03 28.05 97.28 91.51 28.05 98.62 28.05"/><polygon class="cls-23" points="105.72 28.05 28.05 112.78 28.05 105.03 98.62 28.05 105.72 28.05"/><polygon class="cls-22" points="112.83 28.05 28.05 120.53 28.05 112.78 105.72 28.05 112.83 28.05"/><polygon class="cls-21" points="119.93 28.05 28.05 128.28 28.05 120.53 112.83 28.05 119.93 28.05"/><polygon class="cls-20" points="127.04 28.05 28.05 136.04 28.05 128.28 119.93 28.05 127.04 28.05"/><polygon class="cls-19" points="134.14 28.05 28.05 143.79 28.05 136.04 127.04 28.05 134.14 28.05"/><polygon class="cls-18" points="141.25 28.05 28.05 151.54 28.05 143.79 134.14 28.05 141.25 28.05"/><polygon class="cls-17" points="148.35 28.05 28.05 159.29 28.05 151.54 141.25 28.05 148.35 28.05"/><polygon class="cls-16" points="155.46 28.05 31.08 163.74 28.05 160.96 28.05 159.29 148.35 28.05 155.46 28.05"/><polygon class="cls-15" points="158.15 28.05 160.55 30.25 34.94 167.28 31.08 163.74 155.46 28.05 158.15 28.05"/><rect class="cls-14" x="6.73" y="97.91" width="185.89" height="5.24" transform="translate(-41.79 106.08) rotate(-47.49)"/><rect class="cls-13" x="10.59" y="101.45" width="185.89" height="5.24" transform="translate(-43.14 110.07) rotate(-47.49)"/><rect class="cls-12" x="14.45" y="104.99" width="185.89" height="5.24" transform="translate(-44.5 114.06) rotate(-47.49)"/><rect class="cls-11" x="18.31" y="108.53" width="185.89" height="5.24" transform="translate(-45.86 118.06) rotate(-47.49)"/><rect class="cls-11" x="22.17" y="112.07" width="185.89" height="5.24" transform="translate(-47.22 122.05) rotate(-47.49)"/><rect class="cls-10" x="26.03" y="115.61" width="185.89" height="5.24" transform="translate(-48.57 126.04) rotate(-47.49)"/><polygon class="cls-9" points="183.71 51.49 187.57 55.02 62.06 191.95 61.85 191.95 58.1 188.51 183.71 51.49"/><polygon class="cls-8" points="187.57 55.02 191.44 58.56 69.17 191.95 62.06 191.95 187.57 55.02"/><polygon class="cls-8" points="191.44 58.56 191.95 59.04 191.95 65.75 76.27 191.95 69.17 191.95 191.44 58.56"/><polygon class="cls-7" points="191.95 73.5 83.38 191.95 76.27 191.95 191.95 65.75 191.95 73.5"/><polygon class="cls-7" points="191.95 81.26 90.48 191.95 83.38 191.95 191.95 73.5 191.95 81.26"/><polygon class="cls-6" points="191.95 89.01 97.59 191.95 90.48 191.95 191.95 81.26 191.95 89.01"/><polygon class="cls-6" points="191.95 96.76 104.69 191.95 97.59 191.95 191.95 89.01 191.95 96.76"/><polygon class="cls-6" points="191.95 104.51 111.8 191.95 104.69 191.95 191.95 96.76 191.95 104.51"/><polygon class="cls-5" points="191.95 112.26 118.9 191.95 111.8 191.95 191.95 104.51 191.95 112.26"/><polygon class="cls-5" points="191.95 120.01 126.01 191.95 118.9 191.95 191.95 112.26 191.95 120.01"/><polygon class="cls-5" points="191.95 127.76 133.11 191.95 126.01 191.95 191.95 120.01 191.95 127.76"/><polygon class="cls-5" points="191.95 135.52 140.22 191.95 133.11 191.95 191.95 127.76 191.95 135.52"/><polygon class="cls-5" points="191.95 143.27 147.32 191.95 140.22 191.95 191.95 135.52 191.95 143.27"/><polygon class="cls-5" points="147.32 191.95 191.95 143.27 191.95 191.95 147.32 191.95"/></g><g class="cls-28"><polygon class="cls-27" points="70.19 28.05 28.05 74.03 28.05 28.05 70.19 28.05"/><polygon class="cls-27" points="77.3 28.05 28.05 81.78 28.05 74.03 70.19 28.05 77.3 28.05"/><polygon class="cls-26" points="84.41 28.05 28.05 89.53 28.05 81.78 77.3 28.05 84.41 28.05"/><polygon class="cls-25" points="91.51 28.05 28.05 97.28 28.05 89.53 84.41 28.05 91.51 28.05"/><polygon class="cls-24" points="98.62 28.05 28.05 105.03 28.05 97.28 91.51 28.05 98.62 28.05"/><polygon class="cls-23" points="105.72 28.05 28.05 112.78 28.05 105.03 98.62 28.05 105.72 28.05"/><polygon class="cls-22" points="112.83 28.05 28.05 120.53 28.05 112.78 105.72 28.05 112.83 28.05"/><polygon class="cls-21" points="119.93 28.05 28.05 128.28 28.05 120.53 112.83 28.05 119.93 28.05"/><polygon class="cls-20" points="127.04 28.05 28.05 136.04 28.05 128.28 119.93 28.05 127.04 28.05"/><polygon class="cls-19" points="134.14 28.05 28.05 143.79 28.05 136.04 127.04 28.05 134.14 28.05"/><polygon class="cls-18" points="141.25 28.05 28.05 151.54 28.05 143.79 134.14 28.05 141.25 28.05"/><polygon class="cls-17" points="148.35 28.05 28.05 159.29 28.05 151.54 141.25 28.05 148.35 28.05"/><polygon class="cls-16" points="155.46 28.05 31.08 163.74 28.05 160.96 28.05 159.29 148.35 28.05 155.46 28.05"/><polygon class="cls-15" points="158.15 28.05 160.55 30.25 34.94 167.28 31.08 163.74 155.46 28.05 158.15 28.05"/><rect class="cls-14" x="6.73" y="97.91" width="185.89" height="5.24" transform="translate(-41.79 106.08) rotate(-47.49)"/><rect class="cls-13" x="10.59" y="101.45" width="185.89" height="5.24" transform="translate(-43.14 110.07) rotate(-47.49)"/><rect class="cls-12" x="14.45" y="104.99" width="185.89" height="5.24" transform="translate(-44.5 114.06) rotate(-47.49)"/><rect class="cls-11" x="18.31" y="108.53" width="185.89" height="5.24" transform="translate(-45.86 118.06) rotate(-47.49)"/><rect class="cls-11" x="22.17" y="112.07" width="185.89" height="5.24" transform="translate(-47.22 122.05) rotate(-47.49)"/><rect class="cls-10" x="26.03" y="115.61" width="185.89" height="5.24" transform="translate(-48.57 126.04) rotate(-47.49)"/><polygon class="cls-9" points="183.71 51.49 187.57 55.02 62.06 191.95 61.85 191.95 58.1 188.51 183.71 51.49"/><polygon class="cls-8" points="187.57 55.02 191.44 58.56 69.17 191.95 62.06 191.95 187.57 55.02"/><polygon class="cls-8" points="191.44 58.56 191.95 59.04 191.95 65.75 76.27 191.95 69.17 191.95 191.44 58.56"/><polygon class="cls-7" points="191.95 73.5 83.38 191.95 76.27 191.95 191.95 65.75 191.95 73.5"/><polygon class="cls-7" points="191.95 81.26 90.48 191.95 83.38 191.95 191.95 73.5 191.95 81.26"/><polygon class="cls-6" points="191.95 89.01 97.59 191.95 90.48 191.95 191.95 81.26 191.95 89.01"/><polygon class="cls-6" points="191.95 96.76 104.69 191.95 97.59 191.95 191.95 89.01 191.95 96.76"/><polygon class="cls-6" points="191.95 104.51 111.8 191.95 104.69 191.95 191.95 96.76 191.95 104.51"/><polygon class="cls-5" points="191.95 112.26 118.9 191.95 111.8 191.95 191.95 104.51 191.95 112.26"/><polygon class="cls-5" points="191.95 120.01 126.01 191.95 118.9 191.95 191.95 112.26 191.95 120.01"/><polygon class="cls-5" points="191.95 127.76 133.11 191.95 126.01 191.95 191.95 120.01 191.95 127.76"/><polygon class="cls-5" points="191.95 135.52 140.22 191.95 133.11 191.95 191.95 127.76 191.95 135.52"/><polygon class="cls-5" points="191.95 143.27 147.32 191.95 140.22 191.95 191.95 135.52 191.95 143.27"/><polygon class="cls-5" points="147.32 191.95 191.95 143.27 191.95 191.95 147.32 191.95"/></g><path d="M73.41,129.74h8.53v2.08H63.61v-5.74a20.37,20.37,0,0,1-1.45,1.5,16.19,16.19,0,0,0-1.88-2.23l-.09-.09a19.77,19.77,0,0,0,4.71-5.91q.34-.63.63-1.26l2.7.84c-.25.57-.54,1.13-.85,1.69h3.68c.47-1.11.78-1.92.94-2.44l3,.66c-.22.45-.54,1-.94,1.78h7v2H73.41v1h6.37v1.85H73.41v1.13H79.8v1.83H73.41Zm-9.73,10.85v-7.76H80v7.76H77v-.82H66.51v.82Zm6.94-16.9v-1H66.35v1Zm0,3v-1.13H66.35v1.13Zm-4.27,1.83v1.24h4.27V128.5ZM77,135.1H66.51v2.44H77Z"/><path d="M90.61,123.32l2.49.93q-.9,1.57-1.83,2.91v13.48H88.62V130.37c-.56.59-1.19,1.19-1.87,1.78a13.92,13.92,0,0,0-1.41-2.53.56.56,0,0,0-.09-.14A20.16,20.16,0,0,0,90,124.35C90.24,124,90.44,123.64,90.61,123.32Zm-.44-5.11,2.53,1a28.81,28.81,0,0,1-5.11,5.37,7.8,7.8,0,0,1-.63.49,16.8,16.8,0,0,0-1.48-2.11,19.14,19.14,0,0,0,4-3.82C89.76,118.79,90,118.49,90.17,118.21Zm14,12.28,1.78.79a13.27,13.27,0,0,1-3.63,5.18,21.6,21.6,0,0,0,6,1.76,8.89,8.89,0,0,0-1.69,2.37.25.25,0,0,0,0,.07,20.23,20.23,0,0,1-6.63-2.51,23.71,23.71,0,0,1-6.8,2.56,7.89,7.89,0,0,0-1.36-2.42,20.17,20.17,0,0,0,5.91-1.87,14.09,14.09,0,0,1-1.9-2.09,23.45,23.45,0,0,1-2.16,1.48,12.54,12.54,0,0,0-1.85-2.11,14.86,14.86,0,0,0,5.35-4.43l-4.79.14-.25-2.53c1.56,0,2.79,0,3.7,0,.41-.35.75-.66,1-.91a26.6,26.6,0,0,0-4.22-3.4l1.71-1.85c.57.36,1,.65,1.32.87a25.3,25.3,0,0,0,2.55-3.47l2.48,1.26a47.21,47.21,0,0,1-3.21,3.54,14.19,14.19,0,0,1,1.36,1.22,42.11,42.11,0,0,0,3.87-4.26l2.51,1.4a74.29,74.29,0,0,1-5.86,5.56l4.29-.07a16.31,16.31,0,0,0-1.2-1.53l2.21-1.24a22.24,22.24,0,0,1,3.6,5.18l0,.1-2.41,1.33c-.21-.47-.47-1-.8-1.59l-4.76.18c-.29.49-.61,1-.93,1.41h4.33Zm-6.59,2.22,0,0a11.64,11.64,0,0,0,2.36,2.34,11,11,0,0,0,2.3-2.37Z"/><path d="M119.8,119v18.44a3.13,3.13,0,0,1-.73,2.42,1.75,1.75,0,0,1-.26.18,7.59,7.59,0,0,1-3.35.52,8.23,8.23,0,0,0-.73-2.72s0,0,0-.05q.5,0,2,0a.42.42,0,0,0,.4-.43v-4.75h-2.51a23.94,23.94,0,0,1-1.69,7.94,9,9,0,0,0-2.2-1.26l-.09,0q1.52-3.37,1.57-10.85V119Zm-5,10.94h2.37v-2.88H114.8v.63C114.8,128.69,114.8,129.44,114.78,130Zm2.37-8.32H114.8v2.79h2.35Zm14,5.63,1.71.54a22.48,22.48,0,0,1-2.88,8,11.86,11.86,0,0,0,3.56,2.54,9.6,9.6,0,0,0-1.78,2.22,15.89,15.89,0,0,1-3.43-2.62,14.64,14.64,0,0,1-3.14,2.58,7.47,7.47,0,0,0-1.4-1.93v2h-2.72V119.05h11v4.62a2.34,2.34,0,0,1-.75,2,1.92,1.92,0,0,1-.52.25,14.36,14.36,0,0,1-4.12.38,9.81,9.81,0,0,0-.85-2.42,24.37,24.37,0,0,0,3,0c.32-.06.48-.19.5-.37v-1.93h-5.58v5.7h6.94Zm-7.36,2.64v8.42a11.87,11.87,0,0,0,2.93-2.46,25,25,0,0,1-2.79-6Zm6,0h-3.42a18.18,18.18,0,0,0,1.85,3.75A15.23,15.23,0,0,0,129.8,129.92Z"/><path d="M158.05,122.94h-1.4a12.27,12.27,0,0,1-2.4,3.52,18.53,18.53,0,0,0,4.41,1.4,9.25,9.25,0,0,0-1.76,2.37.25.25,0,0,0,0,.07,17.51,17.51,0,0,1-4.9-2.06,19.73,19.73,0,0,1-4.9,2,6.84,6.84,0,0,0-.68-1,26,26,0,0,1-1.17,4l-1.92-.89a31.6,31.6,0,0,0,.77-3.3h-1.26v8.44a2.83,2.83,0,0,1-.71,2.27,2.92,2.92,0,0,1-.32.21,8,8,0,0,1-3.4.52,9.07,9.07,0,0,0-.82-2.72l2.18,0c.23-.08.36-.2.37-.35v-5.13a14.8,14.8,0,0,1-3,4.43,16.58,16.58,0,0,0-1.29-2.77,14.07,14.07,0,0,0,3.4-4.92h-3v-2.51h5.51a31.83,31.83,0,0,0-4.64-2.32l1.8-1.83c.41.14,1,.4,1.9.77a9.83,9.83,0,0,0,1.5-1.52h-5.76v-2.39h7.75l.45-.09,1.8,1.15a17.44,17.44,0,0,1-3.49,4,11.68,11.68,0,0,1,1.76,1l-1.2,1.22h1.18l.37-.12,1.74.59-.1.54a15.85,15.85,0,0,0,2.93-1.1,15.68,15.68,0,0,1-1.71-2c-.33.35-.69.69-1.08,1a19.48,19.48,0,0,0-2.34-1.62,13.51,13.51,0,0,0,4-4.57,8.46,8.46,0,0,0,.56-1.13l2.67.71a18.34,18.34,0,0,1-.89,1.68h7.08Zm-5.62,8.6h5.36s0,.38-.11,1.08c-.33,3.58-.78,5.77-1.36,6.59a1.63,1.63,0,0,1-.14.18,3,3,0,0,1-1.76.85,17.29,17.29,0,0,1-2.67,0,6,6,0,0,0-.78-2.64c.72.07,1.41.11,2.07.11a1.29,1.29,0,0,0,.77-.25c.37-.38.68-1.58.91-3.59h-2.79a9.44,9.44,0,0,1-4.71,5.93,13.94,13.94,0,0,1-1.61.75,6.35,6.35,0,0,0-1.53-2.09l-.11-.11a8.05,8.05,0,0,0,4.87-4.15l.14-.33h-2.91v-2.37h3.5c.12-.79.21-1.51.25-2.13h2.84C152.57,130.33,152.49,131,152.43,131.54Zm1-8.6h-3.56a10.12,10.12,0,0,0,2,2A7.32,7.32,0,0,0,153.48,122.94Z"/><path class="cls-2" d="M90.35,73A7.74,7.74,0,0,1,91,69.8a7.29,7.29,0,0,1,1.67-2.39,7.21,7.21,0,0,1,2.42-1.53A8,8,0,0,1,98,65.35a7.94,7.94,0,0,1,2.87.53,7.16,7.16,0,0,1,2.43,1.53,7.47,7.47,0,0,1,1.68,2.39,7.91,7.91,0,0,1,.62,3.2V93.91a7.86,7.86,0,0,1-.62,3.19,7.41,7.41,0,0,1-1.68,2.4,7.16,7.16,0,0,1-2.43,1.53,7.93,7.93,0,0,1-2.87.52,8,8,0,0,1-2.88-.52A7.3,7.3,0,0,1,91,97.1a7.7,7.7,0,0,1-.63-3.19Zm5.1,20.91a2.5,2.5,0,0,0,.7,1.82,2.58,2.58,0,0,0,3.6,0,2.5,2.5,0,0,0,.7-1.82V73a2.5,2.5,0,0,0-.7-1.82,2.61,2.61,0,0,0-3.6,0,2.5,2.5,0,0,0-.7,1.82Z"/><path class="cls-2" d="M112.6,101.25l9-30.79H116v4.09h-4.5V65.66h15.2v5.09L118,101.25Z"/></g></g></svg>