<?xml version="1.0" encoding="UTF-8"?><svg id="_圖層_2" xmlns="http://www.w3.org/2000/svg" viewBox="0 0 221.15 142.04"><defs><style>.cls-1{fill:#fff;}.cls-2{fill:#969697;}.cls-3{fill:#b30b17;}.cls-4{fill:#bdbebe;}</style></defs><g id="_圖層_1-2"><g><path class="cls-1" d="M12.74,142H2.04v-27.63H12.74v27.63m5.62-22.01l7.8-5.58h16.32l-15.71,10.41,15.19,17.22h-13.65l-9.95-11.65v-10.4Z"/><path class="cls-1" d="M82.97,116.54c1.44,1.41,2.15,3.13,2.15,5.15v13.07c0,1.99-.7,3.73-2.15,5.12-1.44,1.42-3.19,2.13-5.22,2.13h-25.94c-2.01,0-3.72-.71-5.14-2.13-1.43-1.39-2.14-3.12-2.14-5.12v-13.07c0-2.02,.7-3.73,2.14-5.15,1.42-1.42,3.13-2.11,5.14-2.11h25.94c2.04,0,3.78,.69,5.22,2.11m-8.33,4.75h-19.68v13.86h19.68v-13.86Z"/><path class="cls-1" d="M100.13,135h19.03v-13.8h-29.46v-6.83h39.91v20.24c0,2.02-.89,3.75-2.68,5.21-1.79,1.44-3.71,2.18-5.78,2.18h-24.22c-2.01,0-3.72-.73-5.14-2.18-1.4-1.46-2.1-2.85-2.1-4.18v-7.67h10.43v7.02Z"/><path class="cls-1" d="M144.4,135.15h19.73l10.31-.05,.14,6.91h-33.37c-1.98,0-3.68-.71-5.1-2.13-1.44-1.39-2.15-3.12-2.15-5.12v-13.07c0-2.02,.71-3.73,2.15-5.15,1.42-1.42,3.11-2.11,5.1-2.11h33.37l-.14,6.86h-30.03v13.86m6.23-10.05v5.86l21.91,.14v-5.87l-21.91-.13Z"/><polygon class="cls-1" points="221.15 142.01 207.56 142.01 199.36 133.12 191.15 142.01 177.61 142.01 191.76 127.3 178.17 114.43 191.15 114.43 199.36 122.58 207.56 114.43 220.54 114.43 206.96 127.3 221.15 142.01"/><path class="cls-4" d="M159.18,101.25c28.85-35.85,45.99-70.72,33.23-82.19C174.92,3.31,100.23,49.03,51.16,101.25l2.07-2.47C111.83,36.11,189.11-17.46,210.39,5.37c14.38,15.44,3.5,55.66-26.78,95.88h-24.43Z"/><path class="cls-2" d="M116.19,101.25c25.12-31.21,40.03-61.56,28.93-71.55-15.24-13.7-80.25,26.09-122.96,71.55l1.8-2.15C74.98,44.54,142.23-2.08,160.74,17.79c12.54,13.43,3.05,48.44-23.28,83.46h-21.27Z"/><path class="cls-3" d="M80.32,101.25c21.44-26.65,34.16-52.57,24.69-61.09C92.01,28.45,36.5,62.44,0,101.25l1.56-1.84C45.11,52.82,102.55,13.01,118.36,29.97c10.68,11.48,2.61,41.38-19.89,71.28h-18.15Z"/></g></g></svg>