<svg xmlns="http://www.w3.org/2000/svg" viewBox="0 0 411 59.59"><defs><style>.cls-1{fill:#fe5000;}.cls-2{fill:#414141;}</style></defs><g id="圖層_2" data-name="圖層 2"><g id="內容"><path class="cls-1" d="M55.5,24.12v8.4L42.32,41.74V8.37H55.5v3.56h8.37V3.84A3.85,3.85,0,0,0,60,0H34V57.82l29.92-21V24.12Z"/><path class="cls-1" d="M21.55,0V24L8.37,14.81V8.37H16V0H3.84A3.84,3.84,0,0,0,0,3.84V19.17L21.55,34.25v7.49L0,26.66V36.87l29.92,21V0Z"/><polygon class="cls-2" points="87.38 51.86 84.33 46.75 82.65 46.75 86.67 53.1 86.67 57.38 88.11 57.38 88.11 53.1 92.14 46.75 90.44 46.75 87.38 51.86"/><path class="cls-2" d="M103.38,53.32a3.91,3.91,0,0,1-.36,1.83,2.57,2.57,0,0,1-2.51,1.26,2.31,2.31,0,0,1-2.19-1.16,3.88,3.88,0,0,1-.44-1.93V46.75H96.43v6a6.81,6.81,0,0,0,.53,3,4.45,4.45,0,0,0,7.34,0,6.81,6.81,0,0,0,.53-3v-6h-1.45Z"/><path class="cls-2" d="M123.89,55.18a2.71,2.71,0,0,1-2.39,1.22,3,3,0,0,1-2.56-1.16,5,5,0,0,1-.85-3,5.08,5.08,0,0,1,1-3.39,3.13,3.13,0,0,1,2.49-1.1,3,3,0,0,1,2,.6,2.92,2.92,0,0,1,.93,1.63h1.41a3.76,3.76,0,0,0-1.23-2.42,4.27,4.27,0,0,0-3.1-1.06,4.47,4.47,0,0,0-3.67,1.63A5.94,5.94,0,0,0,116.61,52a5.9,5.9,0,0,0,1.64,4.58,4.43,4.43,0,0,0,3.08,1.13,4.39,4.39,0,0,0,3.38-1.37,4.92,4.92,0,0,0,1.23-2.82h-1.41A5,5,0,0,1,123.89,55.18Z"/><polygon class="cls-2" points="137.72 51.14 132.26 51.14 132.26 46.75 130.8 46.75 130.8 57.38 132.26 57.38 132.26 52.41 137.72 52.41 137.72 57.38 139.18 57.38 139.18 46.75 137.72 46.75 137.72 51.14"/><polygon class="cls-2" points="145.98 52.51 151.82 52.51 151.82 51.28 145.98 51.28 145.98 48.05 152.3 48.05 152.3 46.75 144.58 46.75 144.58 57.38 152.41 57.38 152.41 56.12 145.98 56.12 145.98 52.51"/><polygon class="cls-2" points="164.3 55.34 159 46.75 157.3 46.75 157.3 57.38 158.68 57.38 158.68 48.8 164.06 57.38 165.68 57.38 165.68 46.75 164.3 46.75 164.3 55.34"/><path class="cls-2" d="M175.47,52.89h3.34a3.59,3.59,0,0,1-.95,2.7,3.36,3.36,0,0,1-2.34.84,3,3,0,0,1-2.66-1.19,5.34,5.34,0,0,1-.82-3.09,4.79,4.79,0,0,1,1-3.3,3.14,3.14,0,0,1,2.44-1.11,3.63,3.63,0,0,1,2,.53,2.61,2.61,0,0,1,1,1.7H180a3.77,3.77,0,0,0-1.91-2.92,5.29,5.29,0,0,0-2.56-.58A4.51,4.51,0,0,0,172,48a6.1,6.1,0,0,0-1.43,4.25A5.87,5.87,0,0,0,172,56.44a4.58,4.58,0,0,0,3.2,1.23,4.67,4.67,0,0,0,2.37-.54A5.38,5.38,0,0,0,178.87,56l.35,1.36h.92V51.69h-4.67Z"/><polygon class="cls-2" points="194.11 52.51 199.94 52.51 199.94 51.28 194.11 51.28 194.11 48.05 200.42 48.05 200.42 46.75 192.7 46.75 192.7 57.38 200.53 57.38 200.53 56.12 194.11 56.12 194.11 52.51"/><polygon class="cls-2" points="212.43 55.34 207.12 46.75 205.42 46.75 205.42 57.38 206.8 57.38 206.8 48.8 212.18 57.38 213.8 57.38 213.8 46.75 212.43 46.75 212.43 55.34"/><polygon class="cls-2" points="218.21 48.01 221.79 48.01 221.79 57.38 223.25 57.38 223.25 48.01 226.83 48.01 226.83 46.75 218.21 46.75 218.21 48.01"/><polygon class="cls-2" points="232.67 52.51 238.51 52.51 238.51 51.28 232.67 51.28 232.67 48.05 238.98 48.05 238.98 46.75 231.26 46.75 231.26 57.38 239.09 57.38 239.09 56.12 232.67 56.12 232.67 52.51"/><path class="cls-2" d="M252.38,56.49a3.66,3.66,0,0,1-.1-.9l-.05-1.43a2.44,2.44,0,0,0-.36-1.34,2.14,2.14,0,0,0-.93-.66,2.92,2.92,0,0,0,1.1-1,2.88,2.88,0,0,0,.4-1.57A2.51,2.51,0,0,0,251,47.1a4.67,4.67,0,0,0-2-.35h-4.83V57.38h1.44V52.82h3.19a3,3,0,0,1,1.26.2,1.48,1.48,0,0,1,.75,1.39l.09,1.78A6.9,6.9,0,0,0,251,57a1.82,1.82,0,0,0,.11.35h1.77v-.23A.89.89,0,0,1,252.38,56.49Zm-2-5.28a2.65,2.65,0,0,1-1.56.41H245.6V48H249a2.64,2.64,0,0,1,1.15.22,1.59,1.59,0,0,1,.8,1.55A1.67,1.67,0,0,1,250.4,51.21Z"/><path class="cls-2" d="M262.56,46.75H257.8V57.38h1.44V52.89h3.32a2.89,2.89,0,0,0,2.37-.93,3.22,3.22,0,0,0,.78-2.16,2.89,2.89,0,0,0-.87-2.25A3.21,3.21,0,0,0,262.56,46.75Zm1.09,4.51a2.74,2.74,0,0,1-1.56.41h-2.85V48h2.85a3.09,3.09,0,0,1,1.3.23,1.61,1.61,0,0,1,.86,1.59A1.65,1.65,0,0,1,263.65,51.26Z"/><path class="cls-2" d="M278.91,56.49a5,5,0,0,1-.1-.9l-.05-1.43a2.37,2.37,0,0,0-.35-1.34,2.12,2.12,0,0,0-.94-.66,3,3,0,0,0,1.11-1,2.88,2.88,0,0,0,.39-1.57,2.51,2.51,0,0,0-1.47-2.51,4.73,4.73,0,0,0-2-.35h-4.84V57.38h1.44V52.82h3.19a3,3,0,0,1,1.26.2,1.48,1.48,0,0,1,.75,1.39l.09,1.78a6.9,6.9,0,0,0,.07.84,1.3,1.3,0,0,0,.12.35h1.77v-.23A.9.9,0,0,1,278.91,56.49Zm-2-5.28a2.65,2.65,0,0,1-1.56.41h-3.24V48h3.43a2.64,2.64,0,0,1,1.15.22,1.59,1.59,0,0,1,.8,1.55A1.64,1.64,0,0,1,276.93,51.21Z"/><rect class="cls-2" x="284.52" y="46.75" width="1.46" height="10.64"/><path class="cls-2" d="M298.16,52.24a4.39,4.39,0,0,0-1.62-.67l-1.44-.34a9.1,9.1,0,0,1-1.87-.58,1.21,1.21,0,0,1-.64-1.14,1.71,1.71,0,0,1,.54-1.25,2.38,2.38,0,0,1,1.75-.54,2.52,2.52,0,0,1,2.15.84,2.69,2.69,0,0,1,.44,1.31h1.36a2.92,2.92,0,0,0-1.14-2.58,4.65,4.65,0,0,0-2.77-.81,3.78,3.78,0,0,0-2.73.92,3.12,3.12,0,0,0-1,2.35,2.23,2.23,0,0,0,1,2,6,6,0,0,0,1.93.7l1.4.33a5.3,5.3,0,0,1,1.67.63,1.41,1.41,0,0,1,.52,1.24,1.63,1.63,0,0,1-1.24,1.61,4.23,4.23,0,0,1-1.42.23,2.67,2.67,0,0,1-2.43-1.06,3,3,0,0,1-.42-1.47h-1.35a3.47,3.47,0,0,0,1.07,2.73,4.27,4.27,0,0,0,3,1,5.51,5.51,0,0,0,2.92-.77,2.72,2.72,0,0,0,1.25-2.52A2.57,2.57,0,0,0,298.16,52.24Z"/><polygon class="cls-2" points="305.68 52.51 311.52 52.51 311.52 51.28 305.68 51.28 305.68 48.05 312 48.05 312 46.75 304.28 46.75 304.28 57.38 312.11 57.38 312.11 56.12 305.68 56.12 305.68 52.51"/><path class="cls-2" d="M330.88,55.18a2.69,2.69,0,0,1-2.38,1.22,3,3,0,0,1-2.56-1.16,5,5,0,0,1-.85-3,5.08,5.08,0,0,1,1-3.39,3.13,3.13,0,0,1,2.49-1.1,2.68,2.68,0,0,1,2.9,2.23h1.4a3.75,3.75,0,0,0-1.22-2.42,4.27,4.27,0,0,0-3.1-1.06,4.47,4.47,0,0,0-3.67,1.63A5.94,5.94,0,0,0,323.61,52a5.86,5.86,0,0,0,1.64,4.58,4.42,4.42,0,0,0,3.08,1.13,4.35,4.35,0,0,0,3.37-1.37,4.87,4.87,0,0,0,1.24-2.82h-1.41A4.76,4.76,0,0,1,330.88,55.18Z"/><path class="cls-2" d="M342.35,46.46a4.64,4.64,0,0,0-4.07,2,6.3,6.3,0,0,0-1.07,3.69,6.14,6.14,0,0,0,1.25,4,4.87,4.87,0,0,0,3.87,1.63,4.77,4.77,0,0,0,4-1.86,6.29,6.29,0,0,0,1.21-4,5.88,5.88,0,0,0-1.05-3.61A4.89,4.89,0,0,0,342.35,46.46Zm2.9,8.59a3,3,0,0,1-2.75,1.36,3.35,3.35,0,0,1-2.9-1.21,4.86,4.86,0,0,1-.9-3,4.77,4.77,0,0,1,1.05-3.35,3.5,3.5,0,0,1,2.69-1.13,3.34,3.34,0,0,1,2.68,1.14,4.48,4.48,0,0,1,1,3A5.8,5.8,0,0,1,345.25,55.05Z"/><rect class="cls-2" x="352.4" y="55.8" width="1.51" height="1.58"/><path class="cls-2" d="M359.45,57.38h.79a.44.44,0,0,1,0,.1v.09a2.06,2.06,0,0,1-.1.63.93.93,0,0,1-.71.71v.68a1.63,1.63,0,0,0,1.21-.81,3.17,3.17,0,0,0,.34-1.51V55.8h-1.55Z"/><polygon class="cls-2" points="374.97 46.75 373.52 46.75 373.52 57.38 380.3 57.38 380.3 56.12 374.97 56.12 374.97 46.75"/><polygon class="cls-2" points="382.76 48.01 386.34 48.01 386.34 57.38 387.8 57.38 387.8 48.01 391.38 48.01 391.38 46.75 382.76 46.75 382.76 48.01"/><path class="cls-2" d="M400,46.75h-4.25V57.38H400a3.85,3.85,0,0,0,3.8-2.42,7.22,7.22,0,0,0,.63-3.06,5.81,5.81,0,0,0-1.06-3.6A4,4,0,0,0,400,46.75Zm2.84,6.51a4.56,4.56,0,0,1-.6,1.66A2.62,2.62,0,0,1,400.88,56a3.87,3.87,0,0,1-1.17.15h-2.52V48h2.5a2.83,2.83,0,0,1,2.48,1.1,5.3,5.3,0,0,1,.77,3.07A6.51,6.51,0,0,1,402.83,53.26Z"/><rect class="cls-2" x="409.49" y="55.8" width="1.51" height="1.58"/><path class="cls-2" d="M90.19,0H86.54c-.29,1.26-.69,2.72-1,3.62H80.28V4.94A1.52,1.52,0,0,0,81.8,6.46h3a45.26,45.26,0,0,1-5.16,10.4h3.17v18.6h3.53V27h8.57v4.84a.77.77,0,0,1-.77.77H90.6l1.3,2.84h3.45a3.15,3.15,0,0,0,2.07-.69,2.74,2.74,0,0,0,1-2.19V13.89a3.55,3.55,0,0,0-.94-2.52,3.79,3.79,0,0,0-2.72-1H87.07c.4-.9,1.05-2.56,1.46-3.86h9.85A1.52,1.52,0,0,0,99.9,4.94V3.66H89.34C89.58,2.8,90,1.26,90.19,0Zm4.67,24.09H86.29V19.78h8.57Zm-7.55-11h6.62a.91.91,0,0,1,.93.93v3H86.29v-3A1,1,0,0,1,87.31,13.12Z"/><path class="cls-2" d="M110.42,11.9a41.08,41.08,0,0,0,3.82-7.72,3.4,3.4,0,0,0-.16-2.8A3.05,3.05,0,0,0,111.4,0h-6.66a5,5,0,0,0-2.48.57A2.68,2.68,0,0,0,100.92,3V35.06h3.53V4a1,1,0,0,1,.89-1h5c.41,0,.57.24.45.65a48.34,48.34,0,0,1-4.35,8.53c2.93,2.8,6.34,8.53,5.24,12.55a1.92,1.92,0,0,1-1.18,1.42,4.21,4.21,0,0,1-1.74.32h-3.13l1.22,3h2.92a5.9,5.9,0,0,0,2.93-.73,4.67,4.67,0,0,0,2-2.15C116.47,22.46,114.28,15.92,110.42,11.9Z"/><path class="cls-2" d="M153.6,2.41a1.52,1.52,0,0,0-1.37-.87h-2.72a24.84,24.84,0,0,0,2,4h-4.39c-.12-1.42-.29-4.1-.25-5.52h-3.77c0,1.75.2,3.82.36,5.52h-15a4.11,4.11,0,0,0-2.72,1,3.45,3.45,0,0,0-1.22,2.72V21.94c0,4.95-.53,9.22-2.48,13.44h4c1.62-4.1,2.19-9.91,2.19-14.79V15.8h8.33a1.08,1.08,0,0,1,.89.94v9.18a1.17,1.17,0,0,1-1.22,1H131l1.38,2.8h5.08a3.63,3.63,0,0,0,2.48-1A3.31,3.31,0,0,0,141,26.32V16.57a3.81,3.81,0,0,0-1-2.6,3.21,3.21,0,0,0-2.31-.93h-9.51V9.63a1.21,1.21,0,0,1,1.14-1.22H143.7a108,108,0,0,0,3,16.21,51.09,51.09,0,0,1-12.63,10.76h6.34a48.08,48.08,0,0,0,7.47-7,31.38,31.38,0,0,0,2,5,3.77,3.77,0,0,0,1.46,1.5,3.71,3.71,0,0,0,1.79.45h3.37l1.3-2.8h-2.92a1.93,1.93,0,0,1-1.79-1,57,57,0,0,1-2.48-6.74,53.22,53.22,0,0,0,6.71-13.45h-3.82a48.09,48.09,0,0,1-4,9.18,71.48,71.48,0,0,1-2.16-12.18h9a1.52,1.52,0,0,0,1.52-1.52V5.52h-2.48A23.22,23.22,0,0,1,153.6,2.41Z"/><path class="cls-2" d="M184.58,20.47h11.23A1.53,1.53,0,0,0,197.34,19v-1.4H184.58V9.14H180.8V32.5h-8V16.09h-3.65V32.5h-4.11v2.88h33a1.52,1.52,0,0,0,1.52-1.52V32.5h-15Z"/><path class="cls-2" d="M176.38,4.1a1.73,1.73,0,0,1,1.42-.81h9.5a1.85,1.85,0,0,1,1.51.89A68.43,68.43,0,0,0,195.26,14h5.08a78,78,0,0,1-9-12.22,2.63,2.63,0,0,0-1.25-1,3.65,3.65,0,0,0-1.59-.32h-12A4.37,4.37,0,0,0,175,.81a2.83,2.83,0,0,0-1.17.9A70,70,0,0,1,164.51,14h4.88A68.77,68.77,0,0,0,176.38,4.1Z"/><path class="cls-2" d="M234.61,27.14H230A43.62,43.62,0,0,0,237.69,35h5.65A48.73,48.73,0,0,1,234.61,27.14Z"/><path class="cls-2" d="M242.49,23.32H227V20.47h12.14v-2.8H227v-2.6H241.1v-2.8h-9.5A28.19,28.19,0,0,0,233.71,9h6.56a1.52,1.52,0,0,0,1.52-1.52V6.26H236.6A34.8,34.8,0,0,0,239,.93h-3.9a36.94,36.94,0,0,1-2.39,5.33h-2V0h-3.62V6.26h-4V0h-3.62V6.26H217.1A26.1,26.1,0,0,1,215.15.93h-3.86a44.26,44.26,0,0,0,2,5.33h-5V7.5A1.52,1.52,0,0,0,209.72,9h6.65c.44,1.05,1,2.19,1.62,3.25h-9v2.8h14.38v2.6H211.17v2.8h12.22v2.85H208V26h8.64C213.76,30.77,207,35,207,35h6.1A43.8,43.8,0,0,0,221.43,26h2v9.58H227V26h15.52Zm-20.19-11A17,17,0,0,1,220.47,9h9.14a28.79,28.79,0,0,1-2.32,3.25Z"/><path class="cls-2" d="M263.76,7.13c-.89,1.42-2.76,4.14-3.77,5.43h18.85a3.81,3.81,0,0,1,2.79,1.1,4.19,4.19,0,0,1,1.18,3v15.4a3.2,3.2,0,0,1-1.22,2.59,4.31,4.31,0,0,1-2.67.89h-5.76l-1.54-2.75h6.28a1,1,0,0,0,1.1-1V28.33H257.88v7.21h-3.81V18.76h-4a69.17,69.17,0,0,0,9.65-11.63h-9V4.26h10.66c.52-.9,1.62-3,2.15-4.18h4a45.26,45.26,0,0,1-2.07,4.18h19.74V7.13ZM279,16.33a1.06,1.06,0,0,0-1-1H259a1.22,1.22,0,0,0-1.14,1.09v2.52H279Zm0,5.35H257.88v3.93H279Z"/><path class="cls-2" d="M305.34,27.19a5,5,0,0,1-2.75.77h-3l-1.14-2.91h2.88a2.31,2.31,0,0,0,1.5-.37,1.7,1.7,0,0,0,.65-1.21c.49-3.12-1.87-7.91-3.61-10.5A61.23,61.23,0,0,0,303,4a.58.58,0,0,0-.52-.73h-4.06a.81.81,0,0,0-.73.81V35.38h-3.56V3.44a3.11,3.11,0,0,1,1.05-2.35,3.46,3.46,0,0,1,2.27-.77h6.2a3.3,3.3,0,0,1,2.39,1,2.67,2.67,0,0,1,.61,2.51,56.09,56.09,0,0,1-2.92,9c2.07,3.64,4.18,7.82,3.2,12.28A3.56,3.56,0,0,1,305.34,27.19ZM325.69,17a4.33,4.33,0,0,1-2.8.89h-11V31.29a1.14,1.14,0,0,0,1.3,1.25h6.6l-1.62,2.84h-6.36a3.38,3.38,0,0,1-2.47-1,3.92,3.92,0,0,1-1.06-2.8V3.36A3.1,3.1,0,0,1,309.72,1,3.79,3.79,0,0,1,312,.32h11.14a3.82,3.82,0,0,1,2.72,1,3.66,3.66,0,0,1,1.05,2.63V14.35A3.43,3.43,0,0,1,325.69,17Zm-2.47-13a1,1,0,0,0-1.1-1H313a1.07,1.07,0,0,0-1,1V7.58h11.31Zm0,6.28H311.91v4.83H322.2a.94.94,0,0,0,1-1Zm.89,25.05a43.28,43.28,0,0,1-9.61-15.93h3.65a39.11,39.11,0,0,0,2.31,4.91,28.44,28.44,0,0,0,3.4-4.95h4.3a37,37,0,0,1-4.3,6.29h-2.67a39.21,39.21,0,0,0,8.19,9.68Z"/><path class="cls-2" d="M340.38,16h-5.11a41.67,41.67,0,0,0,9.24-16h4.1A55.06,55.06,0,0,1,340.38,16Zm23.67,19.37c-.33-.57-1.1-1.66-1.5-2.35l-1.14,2.35H340.62A2,2,0,0,1,338.51,34a2.42,2.42,0,0,1,.33-2.06L350,12.52h4.54L343.22,32.1c-.09.16,0,.36.12.36h18.84a58.54,58.54,0,0,1-5.55-11.22h4.09A46.62,46.62,0,0,0,369,35.34ZM365.63,16a51.79,51.79,0,0,1-8.8-16h4.06a42.16,42.16,0,0,0,9.84,16Z"/><path class="cls-2" d="M375.85,10.62V7.78h26.82v2.84ZM409,34.25a4.42,4.42,0,0,1-3.16,1.17h-7l-1.41-2.88h7.74a1.15,1.15,0,0,0,1.17-1.21V4.74a1.12,1.12,0,0,0-1.17-1.09H377.63v-3H406a4,4,0,0,1,2.84,1.13,3.93,3.93,0,0,1,1.21,2.76v27A3.62,3.62,0,0,1,409,34.25Zm-9.53-5.39a4.21,4.21,0,0,1-3,1.05H381.36a3.35,3.35,0,0,1-2.48-1.34,3.62,3.62,0,0,1-.77-2.27V17.51a3.14,3.14,0,0,1,1.1-2.31,3.88,3.88,0,0,1,2.59-.93h15.08a3.44,3.44,0,0,1,2.35.81,3.49,3.49,0,0,1,1.26,2.75v8.39A3.42,3.42,0,0,1,399.47,28.86Zm-2.55-10.74a1.13,1.13,0,0,0-.93-1H382.9a1.17,1.17,0,0,0-1.18,1.1v7.74a1.19,1.19,0,0,0,.93,1.17H396a1,1,0,0,0,.93-.93Z"/></g></g></svg>