<?xml version="1.0" encoding="UTF-8"?><svg id="_圖層_2" xmlns="http://www.w3.org/2000/svg" xmlns:xlink="http://www.w3.org/1999/xlink" viewBox="0 0 713.99 181.42"><defs><style>.cls-1{fill:none;}.cls-2{clip-path:url(#clippath);}.cls-3{fill:#f3f3f3;}.cls-4{fill:#f6f6f6;}.cls-5{fill:#f7f7f7;}.cls-6{fill:#f2f2f2;}.cls-7{fill:#f9f9f9;}.cls-8{fill:#f8f8f8;}.cls-9{fill:#eee;}.cls-10{fill:#ebebeb;}.cls-11{fill:#f0f0f0;}.cls-12{fill:#eaeaea;}.cls-13{fill:#e9e9e9;}.cls-14{fill:#e6e6e6;}.cls-15{fill:#f4f4f4;}.cls-16{fill:#f5f5f5;}.cls-17{fill:#fcfcfc;}.cls-18{fill:#e7e7e7;}.cls-19{fill:#e3e3e3;}.cls-20{fill:#e3e3e4;}.cls-21{fill:#ededed;}.cls-22{fill:#fff;}.cls-23{fill:#ffe500;}.cls-24{fill:#e8e8e8;}.cls-25{fill:#f1f1f1;}.cls-26{fill:#ececec;}.cls-27{fill:#fefefe;}.cls-28{fill:#fafafa;}.cls-29{fill:#fbfbfb;}.cls-30{fill:#e5e5e6;}.cls-31{fill:#e5e5e5;}.cls-32{fill:#e2e2e2;}.cls-33{fill:#e2e2e3;}.cls-34{fill:#efefef;}.cls-35{fill:#e4e4e5;}.cls-36{fill:#e4e4e4;}.cls-37{fill:#fdfdfd;}.cls-38{fill:#969696;}.cls-39{fill:#999;}.cls-40{fill:#989898;}.cls-41{fill:#8b8b8b;}.cls-42{fill:#9c9c9c;}.cls-43{fill:#a1a1a1;}.cls-44{fill:#9f9f9f;}.cls-45{fill:#929292;}.cls-46{fill:#a0a0a0;}.cls-47{fill:#b4b5b5;}.cls-48{fill:#b4b4b4;}.cls-49{fill:#8a8a8a;}.cls-50{fill:#b5b6b6;}.cls-51{fill:#b7b8b8;}.cls-52{fill:#b7b7b7;}.cls-53{fill:#b8b8b8;}.cls-54{fill:#b8b9b9;}.cls-55{fill:#9d9d9d;}.cls-56{fill:#b9b9ba;}.cls-57{fill:#b9b9b9;}.cls-58{fill:#b9baba;}.cls-59{fill:#c2c3c3;}.cls-60{fill:#c2c2c3;}.cls-61{fill:#c2c2c2;}.cls-62{fill:#b3b4b4;}.cls-63{fill:#909191;}.cls-64{fill:#909090;}.cls-65{fill:#b3b3b4;}.cls-66{fill:#b3b3b3;}.cls-67{fill:#8f9090;}.cls-68{fill:#8f8f8f;}.cls-69{fill:#c1c2c2;}.cls-70{fill:#c1c1c2;}.cls-71{fill:#c1c1c1;}.cls-72{fill:#b6b7b7;}.cls-73{fill:#b6b6b6;}.cls-74{fill:#bababb;}.cls-75{fill:#bababa;}.cls-76{fill:#babbbb;}.cls-77{fill:#8d8d8d;}.cls-78{fill:#8e8e8e;}.cls-79{fill:#8c8c8c;}.cls-80{fill:#939393;}.cls-81{fill:#cecece;}.cls-82{fill:#cececf;}.cls-83{fill:#cecfd0;}.cls-84{fill:#cecfcf;}.cls-85{fill:#cdcecf;}.cls-86{fill:#cdcece;}.cls-87{fill:#cdcdce;}.cls-88{fill:#cdcdcd;}.cls-89{fill:#acadad;}.cls-90{fill:#a9aaaa;}.cls-91{fill:#a9a9a9;}.cls-92{fill:#a6a6a6;}.cls-93{fill:#b1b2b2;}.cls-94{fill:#b1b1b1;}.cls-95{fill:#bcbdbd;}.cls-96{fill:#aaabab;}.cls-97{fill:#aaa;}.cls-98{fill:#bcbcbc;}.cls-99{fill:#a7a7a7;}.cls-100{fill:#b0b0b0;}.cls-101{fill:#b0b1b1;}.cls-102{fill:#adaeae;}.cls-103{fill:#d8d8d9;}.cls-104{fill:#d8d8d8;}.cls-105{fill:#b2b3b3;}.cls-106{fill:#b2b2b2;}.cls-107{fill:#aeafaf;}.cls-108{fill:#aeaeae;}.cls-109{fill:#bbb;}.cls-110{fill:#a4a4a4;}.cls-111{fill:#c0c1c1;}.cls-112{fill:#bbbcbc;}.cls-113{fill:#bdbebe;}.cls-114{fill:#bfbfbf;}.cls-115{fill:#bdbdbd;}.cls-116{fill:#bfc0c0;}.cls-117{fill:#ababab;}.cls-118{fill:#abacac;}.cls-119{fill:#bebebe;}.cls-120{fill:#bebfbf;}.cls-121{fill:#cccdcd;}.cls-122{fill:#cccdce;}.cls-123{fill:#ccc;}.cls-124{fill:#cacaca;}.cls-125{fill:#cacbcc;}.cls-126{fill:#cacbcb;}.cls-127{fill:#c9cacb;}.cls-128{fill:#c9caca;}.cls-129{fill:#c9c9c9;}.cls-130{fill:#d0d1d1;}.cls-131{fill:#d0d0d1;}.cls-132{fill:#d0d1d2;}.cls-133{fill:#cfcfcf;}.cls-134{fill:#cfcfd0;}.cls-135{fill:#cfd0d0;}.cls-136{fill:#cfd0d1;}.cls-137{fill:#c7c8c8;}.cls-138{fill:#c7c7c7;}.cls-139{fill:#dededf;}.cls-140{fill:#dedede;}.cls-141{fill:#ddddde;}.cls-142{fill:#ddd;}.cls-143{fill:#cbcccd;}.cls-144{fill:#cbcccc;}.cls-145{fill:#cbcbcb;}.cls-146{fill:#d2d2d3;}.cls-147{fill:#d2d2d2;}.cls-148{fill:#d2d3d3;}.cls-149{fill:#d2d3d4;}.cls-150{fill:#d1d2d2;}.cls-151{fill:#d1d2d3;}.cls-152{fill:#d1d1d1;}.cls-153{fill:#d1d1d2;}.cls-154{fill:#c3c4c4;}.cls-155{fill:#c3c3c4;}.cls-156{fill:#c3c3c3;}.cls-157{fill:#c4c5c5;}.cls-158{fill:#c4c4c5;}.cls-159{fill:#c4c4c4;}.cls-160{fill:#d6d6d6;}.cls-161{fill:#d6d6d7;}.cls-162{fill:#dcdcdd;}.cls-163{fill:#dcdcdc;}.cls-164{fill:#dbdcdd;}.cls-165{fill:#dbdbdb;}.cls-166{fill:#dbdbdc;}.cls-167{fill:#d3d3d3;}.cls-168{fill:#d3d3d4;}.cls-169{fill:#dadada;}.cls-170{fill:#d4d4d4;}.cls-171{fill:#d4d4d5;}.cls-172{fill:#dadbdb;}.cls-173{fill:#dadbdc;}.cls-174{fill:#d9dada;}.cls-175{fill:#d9d9da;}.cls-176{fill:#d9d9d9;}.cls-177{fill:#afafaf;}.cls-178{fill:#afb0b0;}.cls-179{fill:#e0e0e1;}.cls-180{fill:#e0e0e0;}.cls-181{fill:#adadad;}.cls-182{fill:#d7d7d7;}.cls-183{fill:#d7d7d8;}.cls-184{fill:#d3d4d4;}.cls-185{fill:#c5c6c6;}.cls-186{fill:#c5c5c5;}.cls-187{fill:#c6c6c6;}.cls-188{fill:#c6c7c7;}.cls-189{fill:#e1e1e1;}.cls-190{fill:#e1e1e2;}.cls-191{fill:#c8c8c8;}.cls-192{fill:#c8c9c9;}.cls-193{fill:#c8c9ca;}.cls-194{fill:#d5d5d6;}.cls-195{fill:#d5d5d5;}.cls-196{fill:#dfdfdf;}.cls-197{fill:#dfdfe0;}.cls-198{fill:#a8a8a8;}.cls-199{fill:#231815;}.cls-200{fill:#a3a3a3;}.cls-201{fill:#9b9b9b;}.cls-202{fill:#949494;}.cls-203{fill:#a2a2a2;}.cls-204{fill:#959595;}.cls-205{fill:#9a9a9a;}.cls-206{fill:#898989;}.cls-207{fill:#888;}.cls-208{clip-path:url(#clippath-1);}</style><clipPath id="clippath"><path class="cls-1" d="M650.83,26.96c-5.06,1.91-11.39,0-11.39,0H251.27c-2.51,3.48-4.7,0-4.7,0h-6.69c-2.2,3.37-4.23,.05-4.23,.05h-9.23l-5.75,5.75H125.11l57.92,33.38v15.07l-53.78,31.16h91.43l5.7,5.69h8.81c2.72-3.52,4.7,0,4.7,0h6.59c3.45-3.41,4.8,0,4.8,0h388.17c6.54-2.26,11.39,0,11.39,0h2.28l5.69-5.69V32.76l-5.69-5.8h-2.28Z"/></clipPath><clipPath id="clippath-1"><rect class="cls-1" x="125.11" y="26.96" width="533.69" height="91.1"/></clipPath></defs><g id="_圖層_1-2"><g><path class="cls-199" d="M355.35,159.6v-14.47h1.89v12.76h7.04v1.71h-8.94Z"/><g><path class="cls-199" d="M680.83,76.07l-1.26-.97,.69-.94,1.36,1.04c.57-.41,1.08-.69,1.54-.84,.66-.2,1.42-.3,2.3-.3,1.97,0,3.43,.55,4.35,1.65,.74,.89,1.12,1.96,1.12,3.22,0,1.03-.26,1.95-.79,2.74l1.33,1.02-.7,.92-1.39-1.05c-.45,.38-.89,.66-1.34,.82-.72,.26-1.53,.39-2.44,.39-1.98,0-3.41-.48-4.3-1.43-.88-.96-1.33-2.08-1.33-3.37,0-.53,.07-1.02,.21-1.47,.14-.45,.36-.93,.65-1.43Zm1.3,.99c-.46,.59-.69,1.21-.69,1.86,0,.87,.33,1.59,1.01,2.18,.67,.58,1.67,.88,3,.88,.99,0,1.81-.17,2.48-.51l-5.79-4.41Zm.96-.73l5.76,4.38c.41-.51,.62-1.08,.62-1.72,0-.9-.33-1.65-1.01-2.24-.67-.59-1.68-.88-3.02-.88-.5,0-.94,.04-1.31,.12-.28,.05-.62,.17-1.04,.34Z"/><path class="cls-199" d="M690.7,64.79h-1.32c1.04,.66,1.56,1.62,1.56,2.9,0,.83-.23,1.59-.69,2.28s-1.1,1.23-1.93,1.61c-.83,.38-1.78,.57-2.85,.57s-2-.17-2.85-.52c-.85-.34-1.51-.86-1.96-1.55s-.68-1.46-.68-2.31c0-.62,.13-1.18,.4-1.67,.27-.49,.61-.88,1.04-1.19h-5.19v-1.75h14.47v1.63Zm-5.23,5.55c1.34,0,2.35-.28,3.01-.84,.67-.56,1-1.22,1-1.98s-.32-1.42-.95-1.96c-.63-.54-1.6-.81-2.91-.81-1.43,0-2.49,.27-3.16,.82-.67,.55-1.01,1.22-1.01,2.02s.32,1.43,.97,1.96c.65,.52,1.66,.79,3.05,.79Z"/></g><g><path class="cls-199" d="M20.85,83.55H6.38v-2.85l10.25-3.39c.95-.31,1.67-.54,2.14-.68-.53-.16-1.3-.42-2.32-.76l-10.07-3.42v-2.55h14.47v1.82H8.74l12.11,4.16v1.71l-12.32,4.14h12.32v1.83Z"/><path class="cls-199" d="M19.56,60.31c.56,.65,.95,1.28,1.18,1.88,.23,.6,.35,1.25,.35,1.94,0,1.14-.28,2.01-.84,2.62-.56,.61-1.28,.92-2.16,.92-.51,0-.98-.12-1.41-.35-.42-.23-.77-.53-1.02-.91-.26-.37-.45-.79-.58-1.26-.09-.34-.18-.86-.27-1.56-.17-1.42-.38-2.46-.61-3.13-.24,0-.4,0-.46,0-.72,0-1.23,.17-1.53,.5-.4,.45-.6,1.12-.6,2,0,.83,.15,1.44,.44,1.83,.29,.39,.81,.68,1.56,.87l-.24,1.72c-.74-.16-1.34-.41-1.8-.77-.46-.36-.81-.88-1.06-1.55-.25-.68-.37-1.46-.37-2.35s.11-1.6,.32-2.16,.48-.96,.79-1.22c.32-.26,.72-.44,1.21-.55,.3-.06,.85-.09,1.64-.09h2.37c1.65,0,2.7-.04,3.13-.11,.44-.07,.86-.22,1.26-.44v1.83c-.37,.18-.8,.3-1.29,.35Zm-3.97,.15c.26,.64,.49,1.59,.67,2.87,.11,.72,.22,1.23,.36,1.53,.13,.3,.32,.53,.58,.69,.25,.16,.54,.24,.84,.24,.47,0,.87-.18,1.18-.53,.32-.35,.47-.87,.47-1.56s-.15-1.28-.45-1.8c-.3-.53-.71-.91-1.23-1.16-.4-.19-.99-.28-1.78-.28h-.65Z"/><path class="cls-199" d="M20.85,57.13l-5.45-3.79-5.04,3.5v-2.19l2.46-1.59c.47-.3,.86-.54,1.17-.72-.43-.29-.82-.55-1.16-.79l-2.48-1.75v-2.1l4.94,3.58,5.55-3.85v2.16l-3.26,2.13-.88,.57,4.14,2.72v2.13Z"/><path class="cls-199" d="M20.85,45.48h-2.02v-2h2.02v2Z"/><path class="cls-199" d="M10.99,32.77l-1.26-.97,.69-.94,1.36,1.04c.57-.41,1.08-.69,1.54-.84,.66-.2,1.42-.3,2.3-.3,1.97,0,3.43,.55,4.35,1.65,.74,.89,1.12,1.96,1.12,3.22,0,1.03-.26,1.95-.79,2.74l1.33,1.02-.7,.92-1.39-1.05c-.45,.38-.89,.66-1.34,.82-.72,.26-1.53,.39-2.44,.39-1.98,0-3.41-.48-4.3-1.43-.88-.96-1.33-2.08-1.33-3.37,0-.53,.07-1.02,.21-1.47,.14-.45,.36-.93,.65-1.43Zm1.3,.99c-.46,.59-.69,1.21-.69,1.86,0,.87,.33,1.59,1.01,2.18,.67,.58,1.67,.88,3,.88,.99,0,1.81-.17,2.48-.51l-5.79-4.41Zm.96-.73l5.76,4.38c.41-.51,.62-1.08,.62-1.72,0-.9-.33-1.65-1.01-2.24-.67-.59-1.68-.88-3.02-.88-.5,0-.94,.04-1.31,.12-.28,.05-.62,.17-1.04,.34Z"/><path class="cls-199" d="M20.85,22.09v1.76H9.53c.41,.42,.82,.98,1.22,1.66,.41,.69,.71,1.3,.92,1.85h-1.72c-.47-.98-1.03-1.84-1.7-2.58-.67-.74-1.31-1.25-1.94-1.56v-1.13h14.53Z"/><path class="cls-199" d="M17.03,17.58l-.24-1.76c1.01-.2,1.73-.54,2.18-1.03s.67-1.08,.67-1.77c0-.83-.29-1.52-.87-2.09s-1.3-.85-2.15-.85-1.49,.26-2.02,.79c-.53,.53-.79,1.2-.79,2.01,0,.33,.07,.74,.2,1.24l-1.56-.19c.01-.12,.02-.21,.02-.28,0-.75-.2-1.42-.59-2.02-.4-.6-1-.9-1.83-.9-.65,0-1.19,.22-1.62,.65-.43,.44-.64,1-.64,1.69s.22,1.25,.65,1.71c.43,.46,1.09,.75,1.96,.88l-.32,1.76c-1.19-.21-2.11-.7-2.77-1.46-.66-.76-.98-1.71-.98-2.84,0-.78,.17-1.5,.51-2.16s.8-1.16,1.39-1.51c.59-.35,1.21-.52,1.87-.52s1.19,.17,1.71,.5c.51,.33,.92,.82,1.22,1.47,.2-.85,.61-1.5,1.23-1.97,.62-.47,1.4-.7,2.33-.7,1.26,0,2.33,.46,3.21,1.37,.88,.91,1.32,2.06,1.32,3.45,0,1.25-.38,2.3-1.14,3.13s-1.74,1.3-2.94,1.42Z"/></g><g class="cls-2"><g class="cls-208"><rect class="cls-193" x="125.11" y="26.96" width="533.69" height=".42"/><rect class="cls-127" x="125.11" y="27.39" width="533.69" height=".53"/><rect class="cls-127" x="125.11" y="27.92" width="533.69" height=".53"/><rect class="cls-125" x="125.11" y="28.44" width="533.69" height=".53"/><rect class="cls-143" x="125.11" y="28.97" width="533.69" height=".53"/><rect class="cls-122" x="125.11" y="29.5" width="533.69" height=".53"/><rect class="cls-87" x="125.11" y="30.03" width="533.69" height=".53"/><rect class="cls-85" x="125.11" y="30.56" width="533.69" height=".53"/><rect class="cls-83" x="125.11" y="31.08" width="533.69" height=".53"/><rect class="cls-136" x="125.11" y="31.61" width="533.69" height=".53"/><rect class="cls-132" x="125.11" y="32.14" width="533.69" height=".53"/><rect class="cls-151" x="125.11" y="32.67" width="533.69" height=".53"/><rect class="cls-149" x="125.11" y="33.2" width="533.69" height=".53"/><rect class="cls-171" x="125.11" y="33.72" width="533.69" height=".53"/><rect class="cls-194" x="125.11" y="34.25" width="533.69" height=".53"/><rect class="cls-161" x="125.11" y="34.78" width="533.69" height=".53"/><rect class="cls-183" x="125.11" y="35.31" width="533.69" height=".53"/><rect class="cls-103" x="125.11" y="35.84" width="533.69" height=".53"/><rect class="cls-175" x="125.11" y="36.36" width="533.69" height=".53"/><rect class="cls-173" x="125.11" y="36.89" width="533.69" height=".53"/><rect class="cls-164" x="125.11" y="37.42" width="533.69" height=".53"/><rect class="cls-141" x="125.11" y="37.95" width="533.69" height=".53"/><rect class="cls-139" x="125.11" y="38.48" width="533.69" height=".53"/><rect class="cls-197" x="125.11" y="39" width="533.69" height=".53"/><rect class="cls-179" x="125.11" y="39.53" width="533.69" height=".53"/><rect class="cls-190" x="125.11" y="40.06" width="533.69" height=".53"/><rect class="cls-20" x="125.11" y="40.59" width="533.69" height=".53"/><rect class="cls-35" x="125.11" y="41.12" width="533.69" height=".53"/><rect class="cls-30" x="125.11" y="41.65" width="533.69" height=".53"/><rect class="cls-30" x="125.11" y="42.17" width="533.69" height=".26"/><rect class="cls-30" x="125.11" y="42.43" width="533.69" height=".26"/><rect class="cls-35" x="125.11" y="42.68" width="533.69" height=".26"/><rect class="cls-20" x="125.11" y="42.94" width="533.69" height=".26"/><rect class="cls-20" x="125.11" y="43.19" width="533.69" height=".26"/><rect class="cls-33" x="125.11" y="43.45" width="533.69" height=".26"/><rect class="cls-190" x="125.11" y="43.7" width="533.69" height=".26"/><rect class="cls-179" x="125.11" y="43.96" width="533.69" height=".26"/><rect class="cls-179" x="125.11" y="44.22" width="533.69" height=".26"/><rect class="cls-197" x="125.11" y="44.47" width="533.69" height=".26"/><rect class="cls-139" x="125.11" y="44.73" width="533.69" height=".26"/><rect class="cls-141" x="125.11" y="44.98" width="533.69" height=".26"/><rect class="cls-162" x="125.11" y="45.24" width="533.69" height=".26"/><rect class="cls-166" x="125.11" y="45.49" width="533.69" height=".26"/><rect class="cls-172" x="125.11" y="45.75" width="533.69" height=".26"/><rect class="cls-174" x="125.11" y="46" width="533.69" height=".26"/><rect class="cls-175" x="125.11" y="46.26" width="533.69" height=".26"/><rect class="cls-103" x="125.11" y="46.51" width="533.69" height=".26"/><rect class="cls-183" x="125.11" y="46.77" width="533.69" height=".26"/><rect class="cls-161" x="125.11" y="47.02" width="533.69" height=".26"/><rect class="cls-194" x="125.11" y="47.28" width="533.69" height=".26"/><rect class="cls-171" x="125.11" y="47.53" width="533.69" height=".26"/><rect class="cls-168" x="125.11" y="47.79" width="533.69" height=".26"/><rect class="cls-146" x="125.11" y="48.04" width="533.69" height=".26"/><rect class="cls-153" x="125.11" y="48.3" width="533.69" height=".26"/><rect class="cls-131" x="125.11" y="48.55" width="533.69" height=".26"/><rect class="cls-134" x="125.11" y="48.81" width="533.69" height=".26"/><rect class="cls-82" x="125.11" y="49.06" width="533.69" height=".26"/><rect class="cls-87" x="125.11" y="49.32" width="533.69" height=".26"/><rect class="cls-144" x="125.11" y="49.58" width="533.69" height=".26"/><rect class="cls-126" x="125.11" y="49.83" width="533.69" height=".26"/><rect class="cls-128" x="125.11" y="50.09" width="533.69" height=".26"/><rect class="cls-192" x="125.11" y="50.34" width="533.69" height=".26"/><rect class="cls-137" x="125.11" y="50.6" width="533.69" height=".26"/><rect class="cls-188" x="125.11" y="50.85" width="533.69" height=".26"/><rect class="cls-185" x="125.11" y="51.11" width="533.69" height=".26"/><rect class="cls-158" x="125.11" y="51.36" width="533.69" height=".26"/><rect class="cls-155" x="125.11" y="51.62" width="533.69" height=".26"/><rect class="cls-60" x="125.11" y="51.87" width="533.69" height=".26"/><rect class="cls-70" x="125.11" y="52.13" width="533.69" height=".26"/><rect class="cls-116" x="125.11" y="52.38" width="533.69" height=".26"/><rect class="cls-120" x="125.11" y="52.64" width="533.69" height=".26"/><rect class="cls-113" x="125.11" y="52.89" width="533.69" height=".26"/><rect class="cls-95" x="125.11" y="53.15" width="533.69" height=".26"/><rect class="cls-112" x="125.11" y="53.4" width="533.69" height=".26"/><rect class="cls-74" x="125.11" y="53.66" width="533.69" height=".26"/><rect class="cls-56" x="125.11" y="53.91" width="533.69" height=".26"/><rect class="cls-51" x="125.11" y="54.17" width="533.69" height=".26"/><rect class="cls-72" x="125.11" y="54.42" width="533.69" height=".26"/><rect class="cls-50" x="125.11" y="54.68" width="533.69" height=".26"/><rect class="cls-47" x="125.11" y="54.94" width="533.69" height=".26"/><rect class="cls-65" x="125.11" y="55.19" width="533.69" height=".26"/><rect class="cls-93" x="125.11" y="55.45" width="533.69" height=".26"/><rect class="cls-101" x="125.11" y="55.7" width="533.69" height=".26"/><rect class="cls-178" x="125.11" y="55.96" width="533.69" height=".26"/><rect class="cls-107" x="125.11" y="56.21" width="533.69" height=".26"/><rect class="cls-102" x="125.11" y="56.47" width="533.69" height=".26"/><rect class="cls-118" x="125.11" y="56.72" width="533.69" height=".26"/><rect class="cls-96" x="125.11" y="56.98" width="533.69" height=".26"/><rect class="cls-90" x="125.11" y="57.23" width="533.69" height=".26"/><rect class="cls-90" x="125.11" y="57.49" width="533.69" height=".21"/><rect class="cls-96" x="125.11" y="57.7" width="533.69" height=".21"/><rect class="cls-118" x="125.11" y="57.91" width="533.69" height=".21"/><rect class="cls-89" x="125.11" y="58.12" width="533.69" height=".21"/><rect class="cls-102" x="125.11" y="58.33" width="533.69" height=".21"/><rect class="cls-107" x="125.11" y="58.54" width="533.69" height=".21"/><rect class="cls-178" x="125.11" y="58.75" width="533.69" height=".21"/><rect class="cls-101" x="125.11" y="58.96" width="533.69" height=".21"/><rect class="cls-93" x="125.11" y="59.17" width="533.69" height=".21"/><rect class="cls-105" x="125.11" y="59.38" width="533.69" height=".21"/><rect class="cls-62" x="125.11" y="59.59" width="533.69" height=".21"/><rect class="cls-47" x="125.11" y="59.8" width="533.69" height=".21"/><rect class="cls-50" x="125.11" y="60.01" width="533.69" height=".21"/><rect class="cls-72" x="125.11" y="60.22" width="533.69" height=".21"/><rect class="cls-51" x="125.11" y="60.43" width="533.69" height=".21"/><rect class="cls-54" x="125.11" y="60.64" width="533.69" height=".21"/><rect class="cls-58" x="125.11" y="60.85" width="533.69" height=".21"/><rect class="cls-76" x="125.11" y="61.06" width="533.69" height=".21"/><rect class="cls-112" x="125.11" y="61.26" width="533.69" height=".21"/><rect class="cls-95" x="125.11" y="61.47" width="533.69" height=".21"/><rect class="cls-113" x="125.11" y="61.68" width="533.69" height=".21"/><rect class="cls-120" x="125.11" y="61.89" width="533.69" height=".21"/><rect class="cls-116" x="125.11" y="62.1" width="533.69" height=".21"/><rect class="cls-111" x="125.11" y="62.31" width="533.69" height=".21"/><rect class="cls-69" x="125.11" y="62.52" width="533.69" height=".21"/><rect class="cls-59" x="125.11" y="62.73" width="533.69" height=".21"/><rect class="cls-154" x="125.11" y="62.94" width="533.69" height=".21"/><rect class="cls-157" x="125.11" y="63.15" width="533.69" height=".21"/><rect class="cls-185" x="125.11" y="63.36" width="533.69" height=".21"/><rect class="cls-188" x="125.11" y="63.57" width="533.69" height=".21"/><rect class="cls-137" x="125.11" y="63.78" width="533.69" height=".21"/><rect class="cls-192" x="125.11" y="63.99" width="533.69" height=".21"/><rect class="cls-128" x="125.11" y="64.2" width="533.69" height=".21"/><rect class="cls-126" x="125.11" y="64.41" width="533.69" height=".21"/><rect class="cls-144" x="125.11" y="64.62" width="533.69" height=".21"/><rect class="cls-121" x="125.11" y="64.83" width="533.69" height=".21"/><rect class="cls-86" x="125.11" y="65.04" width="533.69" height=".21"/><rect class="cls-84" x="125.11" y="65.25" width="533.69" height=".21"/><rect class="cls-135" x="125.11" y="65.46" width="533.69" height=".21"/><rect class="cls-130" x="125.11" y="65.67" width="533.69" height=".21"/><rect class="cls-150" x="125.11" y="65.88" width="533.69" height=".21"/><rect class="cls-148" x="125.11" y="66.09" width="533.69" height=".21"/><rect class="cls-184" x="125.11" y="66.3" width="533.69" height=".21"/><rect class="cls-195" x="125.11" y="66.51" width="533.69" height=".21"/><rect class="cls-160" x="125.11" y="66.72" width="533.69" height=".21"/><rect class="cls-182" x="125.11" y="66.93" width="533.69" height=".21"/><rect class="cls-104" x="125.11" y="67.14" width="533.69" height=".21"/><rect class="cls-176" x="125.11" y="67.35" width="533.69" height=".21"/><rect class="cls-169" x="125.11" y="67.56" width="533.69" height=".21"/><rect class="cls-165" x="125.11" y="67.77" width="533.69" height=".21"/><rect class="cls-163" x="125.11" y="67.98" width="533.69" height=".21"/><rect class="cls-142" x="125.11" y="68.19" width="533.69" height=".21"/><rect class="cls-140" x="125.11" y="68.4" width="533.69" height=".21"/><rect class="cls-196" x="125.11" y="68.61" width="533.69" height=".21"/><rect class="cls-180" x="125.11" y="68.82" width="533.69" height=".21"/><rect class="cls-189" x="125.11" y="69.03" width="533.69" height=".21"/><rect class="cls-32" x="125.11" y="69.24" width="533.69" height=".21"/><rect class="cls-19" x="125.11" y="69.45" width="533.69" height=".21"/><rect class="cls-36" x="125.11" y="69.66" width="533.69" height=".21"/><rect class="cls-31" x="125.11" y="69.87" width="533.69" height=".21"/><rect class="cls-14" x="125.11" y="70.08" width="533.69" height=".21"/><rect class="cls-18" x="125.11" y="70.29" width="533.69" height=".21"/><rect class="cls-24" x="125.11" y="70.5" width="533.69" height=".21"/><rect class="cls-13" x="125.11" y="70.71" width="533.69" height=".21"/><rect class="cls-12" x="125.11" y="70.92" width="533.69" height=".21"/><rect class="cls-10" x="125.11" y="71.13" width="533.69" height=".21"/><rect class="cls-26" x="125.11" y="71.34" width="533.69" height=".21"/><rect class="cls-21" x="125.11" y="71.55" width="533.69" height=".21"/><rect class="cls-9" x="125.11" y="71.76" width="533.69" height=".21"/><rect class="cls-34" x="125.11" y="71.97" width="533.69" height=".21"/><rect class="cls-11" x="125.11" y="72.18" width="533.69" height=".21"/><rect class="cls-25" x="125.11" y="72.39" width="533.69" height=".21"/><rect class="cls-6" x="125.11" y="72.6" width="533.69" height=".21"/><rect class="cls-3" x="125.11" y="72.81" width="533.69" height=".21"/><rect class="cls-15" x="125.11" y="73.02" width="533.69" height=".21"/><rect class="cls-16" x="125.11" y="73.23" width="533.69" height=".21"/><rect class="cls-4" x="125.11" y="73.44" width="533.69" height=".21"/><rect class="cls-5" x="125.11" y="73.65" width="533.69" height=".21"/><rect class="cls-8" x="125.11" y="73.86" width="533.69" height=".21"/><rect class="cls-7" x="125.11" y="74.06" width="533.69" height=".21"/><rect class="cls-28" x="125.11" y="74.27" width="533.69" height=".21"/><rect class="cls-29" x="125.11" y="74.48" width="533.69" height=".21"/><rect class="cls-17" x="125.11" y="74.69" width="533.69" height=".21"/><rect class="cls-37" x="125.11" y="74.9" width="533.69" height=".21"/><rect class="cls-27" x="125.11" y="75.11" width="533.69" height=".21"/><rect class="cls-22" x="125.11" y="75.32" width="533.69" height=".21"/><rect class="cls-22" x="125.11" y="75.53" width="533.69" height=".33"/><rect class="cls-22" x="125.11" y="75.87" width="533.69" height=".33"/><rect class="cls-27" x="125.11" y="76.2" width="533.69" height=".33"/><rect class="cls-27" x="125.11" y="76.53" width="533.69" height=".33"/><rect class="cls-37" x="125.11" y="76.87" width="533.69" height=".33"/><rect class="cls-17" x="125.11" y="77.2" width="533.69" height=".33"/><rect class="cls-17" x="125.11" y="77.53" width="533.69" height=".33"/><rect class="cls-29" x="125.11" y="77.87" width="533.69" height=".33"/><rect class="cls-28" x="125.11" y="78.2" width="533.69" height=".33"/><rect class="cls-28" x="125.11" y="78.53" width="533.69" height=".33"/><rect class="cls-7" x="125.11" y="78.87" width="533.69" height=".33"/><rect class="cls-8" x="125.11" y="79.2" width="533.69" height=".33"/><rect class="cls-5" x="125.11" y="79.53" width="533.69" height=".33"/><rect class="cls-5" x="125.11" y="79.87" width="533.69" height=".33"/><rect class="cls-4" x="125.11" y="80.2" width="533.69" height=".33"/><rect class="cls-16" x="125.11" y="80.54" width="533.69" height=".33"/><rect class="cls-15" x="125.11" y="80.87" width="533.69" height=".33"/><rect class="cls-3" x="125.11" y="81.2" width="533.69" height=".33"/><rect class="cls-3" x="125.11" y="81.54" width="533.69" height=".33"/><rect class="cls-6" x="125.11" y="81.87" width="533.69" height=".33"/><rect class="cls-25" x="125.11" y="82.2" width="533.69" height=".33"/><rect class="cls-11" x="125.11" y="82.54" width="533.69" height=".33"/><rect class="cls-34" x="125.11" y="82.87" width="533.69" height=".33"/><rect class="cls-9" x="125.11" y="83.2" width="533.69" height=".33"/><rect class="cls-21" x="125.11" y="83.54" width="533.69" height=".33"/><rect class="cls-21" x="125.11" y="83.87" width="533.69" height=".33"/><rect class="cls-26" x="125.11" y="84.2" width="533.69" height=".33"/><rect class="cls-10" x="125.11" y="84.54" width="533.69" height=".33"/><rect class="cls-12" x="125.11" y="84.87" width="533.69" height=".33"/><rect class="cls-13" x="125.11" y="85.2" width="533.69" height=".33"/><rect class="cls-24" x="125.11" y="85.54" width="533.69" height=".33"/><rect class="cls-18" x="125.11" y="85.87" width="533.69" height=".33"/><rect class="cls-14" x="125.11" y="86.2" width="533.69" height=".33"/><rect class="cls-31" x="125.11" y="86.54" width="533.69" height=".33"/><rect class="cls-36" x="125.11" y="86.87" width="533.69" height=".33"/><rect class="cls-19" x="125.11" y="87.2" width="533.69" height=".33"/><rect class="cls-32" x="125.11" y="87.54" width="533.69" height=".33"/><rect class="cls-189" x="125.11" y="87.87" width="533.69" height=".33"/><rect class="cls-189" x="125.11" y="88.2" width="533.69" height=".33"/><rect class="cls-180" x="125.11" y="88.54" width="533.69" height=".33"/><rect class="cls-196" x="125.11" y="88.87" width="533.69" height=".33"/><rect class="cls-140" x="125.11" y="89.2" width="533.69" height=".33"/><rect class="cls-142" x="125.11" y="89.54" width="533.69" height=".33"/><rect class="cls-163" x="125.11" y="89.87" width="533.69" height=".33"/><rect class="cls-165" x="125.11" y="90.2" width="533.69" height=".33"/><rect class="cls-169" x="125.11" y="90.54" width="533.69" height=".33"/><rect class="cls-176" x="125.11" y="90.87" width="533.69" height=".33"/><rect class="cls-104" x="125.11" y="91.2" width="533.69" height=".33"/><rect class="cls-182" x="125.11" y="91.54" width="533.69" height=".33"/><rect class="cls-160" x="125.11" y="91.87" width="533.69" height=".33"/><rect class="cls-195" x="125.11" y="92.21" width="533.69" height=".33"/><rect class="cls-170" x="125.11" y="92.54" width="533.69" height=".33"/><rect class="cls-167" x="125.11" y="92.87" width="533.69" height=".33"/><rect class="cls-147" x="125.11" y="93.21" width="533.69" height=".33"/><rect class="cls-152" x="125.11" y="93.54" width="533.69" height=".33"/><rect class="cls-133" x="125.11" y="93.87" width="533.69" height=".33"/><rect class="cls-81" x="125.11" y="94.21" width="533.69" height=".33"/><rect class="cls-88" x="125.11" y="94.54" width="533.69" height=".33"/><rect class="cls-123" x="125.11" y="94.87" width="533.69" height=".33"/><rect class="cls-145" x="125.11" y="95.21" width="533.69" height=".33"/><rect class="cls-124" x="125.11" y="95.54" width="533.69" height=".33"/><rect class="cls-129" x="125.11" y="95.87" width="533.69" height=".33"/><rect class="cls-191" x="125.11" y="96.21" width="533.69" height=".33"/><rect class="cls-138" x="125.11" y="96.54" width="533.69" height=".33"/><rect class="cls-187" x="125.11" y="96.87" width="533.69" height=".33"/><rect class="cls-186" x="125.11" y="97.21" width="533.69" height=".33"/><rect class="cls-159" x="125.11" y="97.54" width="533.69" height=".33"/><rect class="cls-156" x="125.11" y="97.87" width="533.69" height=".33"/><rect class="cls-61" x="125.11" y="98.21" width="533.69" height=".33"/><rect class="cls-71" x="125.11" y="98.54" width="533.69" height=".33"/><rect class="cls-114" x="125.11" y="98.87" width="533.69" height=".33"/><rect class="cls-119" x="125.11" y="99.21" width="533.69" height=".33"/><rect class="cls-115" x="125.11" y="99.54" width="533.69" height=".33"/><rect class="cls-98" x="125.11" y="99.87" width="533.69" height=".33"/><rect class="cls-109" x="125.11" y="100.21" width="533.69" height=".33"/><rect class="cls-75" x="125.11" y="100.54" width="533.69" height=".33"/><rect class="cls-57" x="125.11" y="100.87" width="533.69" height=".33"/><rect class="cls-53" x="125.11" y="101.21" width="533.69" height=".33"/><rect class="cls-52" x="125.11" y="101.54" width="533.69" height=".33"/><rect class="cls-73" x="125.11" y="101.87" width="533.69" height=".33"/><rect class="cls-48" x="125.11" y="102.21" width="533.69" height=".33"/><rect class="cls-66" x="125.11" y="102.54" width="533.69" height=".33"/><rect class="cls-106" x="125.11" y="102.87" width="533.69" height=".33"/><rect class="cls-94" x="125.11" y="103.21" width="533.69" height=".33"/><rect class="cls-100" x="125.11" y="103.54" width="533.69" height=".33"/><rect class="cls-177" x="125.11" y="103.88" width="533.69" height=".33"/><rect class="cls-108" x="125.11" y="104.21" width="533.69" height=".33"/><rect class="cls-181" x="125.11" y="104.54" width="533.69" height=".33"/><rect class="cls-117" x="125.11" y="104.88" width="533.69" height=".33"/><rect class="cls-97" x="125.11" y="105.21" width="533.69" height=".33"/><rect class="cls-91" x="125.11" y="105.54" width="533.69" height=".33"/><rect class="cls-198" x="125.11" y="105.88" width="533.69" height=".33"/><rect class="cls-99" x="125.11" y="106.21" width="533.69" height=".33"/><rect class="cls-92" x="125.11" y="106.54" width="533.69" height=".33"/><rect class="cls-110" x="125.11" y="106.88" width="533.69" height=".33"/><rect class="cls-200" x="125.11" y="107.21" width="533.69" height=".33"/><rect class="cls-203" x="125.11" y="107.54" width="533.69" height=".33"/><rect class="cls-43" x="125.11" y="107.88" width="533.69" height=".33"/><rect class="cls-46" x="125.11" y="108.21" width="533.69" height=".33"/><rect class="cls-44" x="125.11" y="108.54" width="533.69" height=".33"/><rect class="cls-55" x="125.11" y="108.88" width="533.69" height=".33"/><rect class="cls-42" x="125.11" y="109.21" width="533.69" height=".33"/><rect class="cls-201" x="125.11" y="109.54" width="533.69" height=".33"/><rect class="cls-205" x="125.11" y="109.88" width="533.69" height=".33"/><rect class="cls-39" x="125.11" y="110.21" width="533.69" height=".33"/><rect class="cls-40" x="125.11" y="110.54" width="533.69" height=".33"/><rect class="cls-38" x="125.11" y="110.88" width="533.69" height=".33"/><rect class="cls-204" x="125.11" y="111.21" width="533.69" height=".33"/><rect class="cls-202" x="125.11" y="111.54" width="533.69" height=".33"/><rect class="cls-80" x="125.11" y="111.88" width="533.69" height=".33"/><rect class="cls-45" x="125.11" y="112.21" width="533.69" height=".33"/><rect class="cls-64" x="125.11" y="112.54" width="533.69" height=".33"/><rect class="cls-68" x="125.11" y="112.88" width="533.69" height=".33"/><rect class="cls-78" x="125.11" y="113.21" width="533.69" height=".33"/><rect class="cls-77" x="125.11" y="113.54" width="533.69" height=".33"/><rect class="cls-79" x="125.11" y="113.88" width="533.69" height=".33"/><rect class="cls-49" x="125.11" y="114.21" width="533.69" height=".33"/><rect class="cls-206" x="125.11" y="114.54" width="533.69" height=".33"/><rect class="cls-207" x="125.11" y="114.88" width="533.69" height=".33"/><rect class="cls-207" x="125.11" y="115.21" width="533.69" height=".29"/><rect class="cls-206" x="125.11" y="115.51" width="533.69" height=".29"/><rect class="cls-49" x="125.11" y="115.8" width="533.69" height=".29"/><rect class="cls-41" x="125.11" y="116.09" width="533.69" height=".29"/><rect class="cls-79" x="125.11" y="116.39" width="533.69" height=".29"/><rect class="cls-77" x="125.11" y="116.68" width="533.69" height=".29"/><rect class="cls-78" x="125.11" y="116.98" width="533.69" height=".29"/><rect class="cls-68" x="125.11" y="117.27" width="533.69" height=".29"/><rect class="cls-67" x="125.11" y="117.57" width="533.69" height=".29"/><rect class="cls-63" x="125.11" y="117.86" width="533.69" height=".2"/></g></g><path class="cls-23" d="M653.11,118.06h-2.28m2.28,0l5.69-5.69m-7.98,5.69c-3.74-.96-7.65-.96-11.39,0m19.37-85.4V112.37m-5.69-85.41h-2.28m-11.39,0c3.74,.98,7.65,.98,11.39,0"/><path class="cls-199" d="M653.11,118.86h-2.28v-.8l-.2,.77c-3.59-.92-7.4-.92-11,0l-.39-1.54c3.83-.98,7.86-.99,11.69-.03h1.85l5.23-5.22V32.67h1.59V112.38h-.8l.56,.56-5.69,5.69-.56-.56v.8Zm-7.98-90.37c-1.98,0-3.97-.25-5.9-.75l.4-1.54c3.6,.94,7.4,.94,10.99,0l.2,.77v-.8h2.28v1.59h-2.18c-1.9,.49-3.84,.73-5.79,.73Z"/><path class="cls-199" d="M658.8,181.42c-.39,0-.71-.32-.71-.71v-62.65c0-.39,.32-.71,.71-.71h54.48c.39,0,.71,.32,.71,.71s-.32,.71-.71,.71h-53.77v61.94c0,.39-.32,.71-.71,.71Zm-603.26,0c-.39,0-.71-.32-.71-.71V115.7H.71c-.39,0-.71-.32-.71-.71s.32-.71,.71-.71H54.83v-34.65c0-.39,.32-.71,.71-.71s.71,.32,.71,.71v34.65h61.37c.39,0,.71,.32,.71,.71s-.32,.71-.71,.71H56.25v65.01c0,.39-.32,.71-.71,.71ZM123.31,115.84c-.17,0-.35-.06-.48-.19l-.15-.14c-.14-.13-.22-.31-.23-.5s.06-.38,.2-.51l.15-.15c.14-.14,.31-.22,.52-.22,.2,0,.38,.09,.52,.23l.14,.15c.26,.28,.25,.72-.03,.99l-.14,.14c-.14,.13-.32,.2-.5,.2ZM691.08,27.81h0c-.15,0-.3-.05-.42-.14h-31.86c-.39,0-.71-.32-.71-.71s.32-.71,.71-.71h31.84c.12-.1,.28-.15,.44-.15h0c.16,0,.32,.05,.44,.15h21.76c.39,0,.71,.32,.71,.71s-.32,.71-.71,.71h-21.78c-.12,.09-.27,.14-.42,.14Z"/><path class="cls-23" d="M125.58,114.37l63.21-36.48c1.4-.82,2.28-2.32,2.28-3.94s-.88-3.14-2.28-3.94l-63.21-36.5c-1.41-.81-3.14-.81-4.55,0l-63.21,36.5c-1.41,.81-2.28,2.3-2.28,3.94s.87,3.12,2.28,3.94l63.21,36.48c1.41,.82,3.15,.82,4.55,0"/><path class="cls-199" d="M123.31,115.77c-.93,0-1.85-.24-2.68-.72l-63.21-36.48c-1.65-.96-2.68-2.74-2.68-4.63s1.03-3.69,2.68-4.63l63.21-36.5c1.65-.95,3.7-.95,5.35,0l63.21,36.5c1.65,.95,2.68,2.72,2.68,4.63s-1.02,3.67-2.67,4.63l-63.22,36.48c-.82,.48-1.75,.72-2.67,.72Zm0-82.08c-.65,0-1.3,.17-1.88,.5l-63.21,36.5c-1.16,.66-1.88,1.91-1.88,3.25s.72,2.58,1.89,3.26l63.21,36.48c1.16,.67,2.6,.67,3.76,0h0s63.21-36.48,63.21-36.48c1.16-.68,1.88-1.93,1.88-3.25s-.72-2.59-1.88-3.25l-63.21-36.5c-.58-.33-1.23-.5-1.88-.5Z"/><path class="cls-199" d="M31.77,98.88c-.39,0-.71-.32-.71-.71V.71c0-.39,.32-.71,.71-.71s.71,.32,.71,.71V98.17c0,.39-.32,.71-.71,.71Z"/><path class="cls-199" d="M123.61,115.18c-1.5,0-3.33-.48-5.28-2.03l-60.19-34.85c-.31-.16-2.57-1.37-2.97-3.71-.04-.24-.06-.48-.06-.73,0-1.54,.82-3.16,2.46-4.82,.05-.05,.11-.1,.17-.13l63.92-36.34c.43-.4,1.99-1.56,4.61-.17,2.51,1.36,60.3,34.87,62.76,36.29,.05,.02,2.33,1.17,2.94,3.54,.1,.38,.15,.77,.14,1.16,0,1.21-.46,2.47-1.37,3.77-.07,.09-.15,.17-.25,.23l-62.85,36.54c-.33,.24-1.85,1.25-4.03,1.25ZM56.69,73.86c0,.15,.01,.3,.04,.45,.28,1.65,2.11,2.57,2.13,2.58,.02,0,.04,.02,.05,.03l60.26,34.89s.07,.04,.1,.07c4.18,3.34,7.4,.8,7.43,.78,.03-.03,.07-.05,.1-.07l62.73-36.47c.66-.97,.99-1.89,.99-2.73,0-.25-.03-.5-.09-.74-.42-1.65-2.14-2.54-2.15-2.54-.65-.37-60.28-34.95-62.76-36.29-1.84-.98-2.69-.16-2.78-.06-.06,.06-.13,.12-.2,.16l-63.92,36.34c-1.28,1.31-1.92,2.53-1.93,3.62Zm66.94,17.62c-9.87,0-17.91-8.03-17.91-17.89s8.03-17.91,17.91-17.91,17.9,8.03,17.9,17.91-8.03,17.89-17.9,17.89Zm0-34.21c-9,0-16.31,7.32-16.31,16.32s7.32,16.3,16.31,16.3,16.3-7.31,16.3-16.3-7.31-16.32-16.3-16.32Z"/><path class="cls-22" d="M140.74,73.59c0,9.45-7.66,17.1-17.1,17.1s-17.11-7.65-17.11-17.1,7.66-17.11,17.11-17.11,17.1,7.65,17.1,17.11"/><path class="cls-199" d="M123.64,91.48c-9.87,0-17.91-8.03-17.91-17.89s8.03-17.91,17.91-17.91,17.89,8.03,17.89,17.91-8.03,17.89-17.89,17.89Zm0-34.21c-9,0-16.32,7.32-16.32,16.32s7.32,16.3,16.32,16.3,16.3-7.31,16.3-16.3-7.31-16.32-16.3-16.32Z"/><path class="cls-199" d="M670.99,73.45h-48.49c-.25,0-.46-.21-.46-.46s.21-.46,.46-.46h48.49c.25,0,.46,.21,.46,.46s-.21,.46-.46,.46Zm-65.93,0h-17.44c-.25,0-.46-.21-.46-.46s.21-.46,.46-.46h17.44c.25,0,.46,.21,.46,.46s-.21,.46-.46,.46Zm-34.88,0h-83.34c-.25,0-.46-.21-.46-.46s.21-.46,.46-.46h83.34c.25,0,.46,.21,.46,.46s-.21,.46-.46,.46Zm-100.79,0h-17.44c-.25,0-.46-.21-.46-.46s.21-.46,.46-.46h17.44c.25,0,.46,.21,.46,.46s-.21,.46-.46,.46Zm-34.88,0h-83.35c-.25,0-.46-.21-.46-.46s.21-.46,.46-.46h83.35c.25,0,.46,.21,.46,.46s-.21,.46-.46,.46Zm-100.79,0h-17.44c-.25,0-.46-.21-.46-.46s.21-.46,.46-.46h17.44c.25,0,.46,.21,.46,.46s-.21,.46-.46,.46Zm-34.88,0h-83.35c-.25,0-.46-.21-.46-.46s.21-.46,.46-.46h83.35c.25,0,.46,.21,.46,.46s-.21,.46-.46,.46Zm-100.79,0h-17.44c-.25,0-.46-.21-.46-.46s.21-.46,.46-.46h17.44c.25,0,.46,.21,.46,.46s-.21,.46-.46,.46Zm-34.88,0H79.83c-.25,0-.46-.21-.46-.46s.21-.46,.46-.46h83.35c.25,0,.46,.21,.46,.46s-.21,.46-.46,.46Zm-100.79,0h-17.44c-.25,0-.46-.21-.46-.46s.21-.46,.46-.46h17.44c.25,0,.46,.21,.46,.46s-.21,.46-.46,.46Z"/><path class="cls-199" d="M247.04,118.86h-7.15s-.07,0-.1,0c-.14-.02-.27-.07-.38-.15-.08-.06-.15-.13-.2-.22-.03-.04-.05-.09-.07-.13-.31-.75-1.17-1.11-1.93-.81-.35,.14-.62,.4-.78,.74-.09,.33-.4,.57-.75,.58h-9.29c-.12,0-.23-.03-.33-.07,0,0,0,0,0,0-.08-.04-.16-.09-.22-.16l-5.46-5.45-89.56,.5h0c-.35,0-.66-.23-.76-.55l-.94,.05c-.44,.03-.81-.31-.84-.75-.03-.44,.31-.81,.75-.84l67.49-3.93h0c12.06-.71,21.5-17.05,21.05-36.43-.41-18.36-9.68-33.23-21.1-33.84,0,0,0,0,0,0l-73.22-3.91c-.43-.02-.76-.38-.75-.8h0c0-.45,.36-.8,.8-.8h97.1l5.45-5.46c.06-.06,.14-.12,.21-.15,0,0,0,0,0,0h0c.1-.05,.22-.08,.34-.08h9.29c.36,0,.66,.24,.75,.57,.34,.7,1.18,1.04,1.91,.75,.35-.15,.65-.45,.81-.82,.02-.05,.04-.1,.07-.14,0,0,0,0,0,0,.05-.08,.12-.15,.2-.2,0,0,0,0,0,0,.11-.08,.23-.13,.37-.14,0,0,0,0,0,0,.03,0,.07,0,.1,0h7.13s.08,0,.11,0c.13,.02,.25,.06,.35,.13,0,0,0,0,0,0,.09,.07,.18,.15,.24,.26,.02,.03,.04,.07,.05,.11,.32,.75,1.18,1.11,1.94,.82,.35-.16,.65-.46,.81-.82,.01-.03,.02-.06,.04-.09,.06-.12,.15-.21,.26-.28,.1-.07,.22-.11,.34-.13h0s0,0,0,0c.03,0,.07,0,.1,0h388.16c.44,0,.8,.36,.8,.8V118.06c0,.44-.36,.8-.8,.8H251.27c-.31,.04-.62-.19-.75-.5-.3-.75-1.17-1.12-1.93-.82-.36,.15-.65,.44-.8,.81-.02,.04-.04,.08-.06,.12-.06,.1-.14,.18-.23,.25-.1,.07-.23,.12-.36,.14h0s0,0,0,0c-.03,0-.06,0-.09,0Zm5.02-1.59h386.58V27.76H252.06V117.27Zm-11.39,0h5.56V27.76h-5.56V117.27Zm-13.5,0h7.69V27.76h-7.69V117.27Zm10.58-1.42c.46,0,.92,.11,1.33,.3V28.9s-.1,.05-.15,.07c-.84,.32-1.73,.27-2.48-.09V116.13c.05-.03,.11-.05,.16-.07,.37-.15,.75-.22,1.13-.22Zm11.39,0c.47,0,.92,.11,1.33,.3V28.89s-.09,.05-.14,.07c-.85,.33-1.75,.27-2.5-.09V116.14c.05-.03,.11-.05,.16-.07,.38-.15,.77-.22,1.15-.22Zm-27.67-3.81l4.11,4.11V28.89l-4.11,4.11V112.04Zm-24.89-2.79l-46.94,2.73,70.23-.39V33.45h-67.08l43.73,2.34h0c12.24,.66,22.17,16.21,22.6,35.4,.48,20.23-9.64,37.3-22.54,38.06,0,0,0,0,0,0Zm456.52,9.62c-.44,0-.8-.36-.8-.8V26.96c0-.15,.04-.3,.12-.42,0,0,0,0,0,0,0,0,0,0,0,0,0,0,0,0,0,0,0,0,0,0,0,0,0,0,0,0,0,0,0,0,0,0,0,0,0,0,0,0,0,0,0,0,0,0,0,0,0,0,0,0,0,0,0,0,0,0,0,0h0s0,0,0,0c0,0,0,0,0,0,0,0,0,0,0,0,0,0,0,0,0,0h0s.07-.09,.12-.12c0,0,0,0,0,0h0s0,0,0,0c0,0,0,0,0,0s0,0,0,0h0s.08-.05,.12-.08c0,0,0,0,0,0h0s0,0,0,0c.24-.12,.55-.1,.77,.04h0s0,0,0,0c0,0,0,0,0,0,0,0,0,0,0,0,0,0,0,0,0,0,0,0,0,0,0,0,0,0,0,0,0,0,0,0,0,0,0,0,0,0,0,0,0,0,0,0,0,0,0,0h0s.06,.05,.09,.08l5.69,5.7c.31,.31,.31,.81,0,1.12-.31,.31-.82,.31-1.12,0l-4.34-4.34V118.06c0,.44-.36,.8-.8,.8Zm-2.28,0c-.44,0-.8-.36-.8-.8V26.96c0-.44,.36-.8,.8-.8s.8,.36,.8,.8V118.06c0,.44-.36,.8-.8,.8Zm-123.13-16.75h-56.94c-.12,0-.24-.03-.35-.08,0,0,0,0,0,0h0c-.08-.04-.15-.09-.21-.15h0s0,0,0,0c-.01-.02-.03-.03-.04-.05,0,0,0,0-.01-.01-13.83-16.97-13.83-41.61,0-58.59,0,0,0,0,0,0h0s0,0,0,0c0,0,0,0,0,0,0,0,0,0,0,0,.07-.08,.15-.15,.24-.19h0s0,0,0,0t0,0h0s0,0,0,0c0,0,0,0,0,0,0,0,0,0,0,0h0c.09-.04,.19-.06,.29-.07h0s.02,0,.03,0h56.94s.02,0,.03,0h.01s0,0,0,0h0c.07,0,.13,.02,.2,.04h0s0,0,0,0c0,0,0,0,.01,0,0,0,0,0,0,0,0,0,0,0,0,0h0s.09,.04,.14,.07c0,0,0,0,0,0,0,0,0,0,.01,0,0,0,0,0,0,0,0,0,0,0,0,0,.05,.03,.09,.07,.13,.11,0,0,0,0,0,0,0,0,0,0,0,0h0s0,0,0,0c.02,.02,.03,.03,.04,.05,13.83,16.98,13.83,41.61,0,58.58-.02,.02-.04,.04-.05,.06h0s0,0,0,0c0,0,0,0,0,0h0s0,0,0,0c-.04,.04-.09,.08-.15,.11,0,0,0,0,0,0,0,0,0,0,0,0-.02,.01-.04,.02-.07,.03h0s0,0,0,0c0,0,0,0-.01,0h0c-.09,.04-.19,.06-.3,.06h0Zm-55.04-1.59h53.13l-26.57-26.87-26.57,26.87Zm27.68-28l26.56,26.86V45.65l-26.56,26.86Zm-28.79-26.86v53.72l26.56-26.86-26.56-26.86Zm56.94,.39v52.94c11.48-15.68,11.48-37.25,0-52.94Zm-58.53,0c-11.48,15.68-11.48,37.26,0,52.94V46.05Zm2.7-1.54l26.57,26.87,26.57-26.87h-53.13ZM123.3,87.26c-7.35,0-13.32-5.97-13.32-13.32s5.98-13.33,13.32-13.33,13.32,5.98,13.32,13.33-5.98,13.32-13.32,13.32Zm0-25.06c-6.47,0-11.73,5.27-11.73,11.74s5.26,11.73,11.73,11.73,11.73-5.26,11.73-11.73-5.26-11.74-11.73-11.74Zm63.18,21.07c-1.46,0-2.94-.34-4.32-1.06-.39-.2-.54-.68-.34-1.07,.2-.39,.68-.54,1.07-.34,3.79,1.98,8.48,.52,10.46-3.26,.97-1.84,1.16-3.94,.54-5.92-.61-1.97-1.96-3.58-3.78-4.54-2.26-1.19-4.96-1.2-7.22,0-.39,.2-.87,.06-1.08-.33-.2-.39-.06-.87,.33-1.08,2.73-1.44,5.98-1.44,8.7,0,2.2,1.15,3.82,3.09,4.56,5.47,.75,2.39,.51,4.92-.65,7.14-1.67,3.17-4.92,4.99-8.29,4.99Zm-61.36-.62c-.5,0-1-.2-1.37-.58l-1.94-1.92c-.09-.1-.22-.13-.34-.09l-2.61,.7c-.66,.19-1.37,.01-1.88-.48-.49-.48-.68-1.18-.52-1.87l.72-2.65c.03-.11,0-.23-.08-.3l-1.96-1.97c-.48-.5-.66-1.21-.5-1.85,.2-.7,.71-1.21,1.38-1.38l2.62-.72c.13-.03,.21-.12,.24-.23l.72-2.66c.18-.66,.7-1.18,1.37-1.35,.68-.19,1.4,.01,1.88,.52l1.92,1.9c.07,.07,.18,.12,.29,.09l2.68-.7c.67-.17,1.39,.01,1.87,.5,.49,.49,.68,1.21,.49,1.88l-.69,2.63c-.04,.13,0,.25,.08,.34l1.94,1.93c.49,.46,.68,1.18,.5,1.87-.2,.68-.71,1.19-1.37,1.37l-2.64,.71c-.13,.03-.21,.12-.25,.25l-.7,2.64c-.21,.69-.72,1.19-1.37,1.37-.16,.04-.33,.07-.5,.07Zm-3.55-4.2c.52,0,1.02,.21,1.38,.58l1.93,1.92c.09,.09,.21,.13,.31,.1,.13-.04,.23-.13,.27-.27l.69-2.62c.19-.7,.73-1.23,1.4-1.38l2.61-.69c.17-.05,.23-.19,.25-.26,.03-.1,0-.23-.07-.3l-1.96-1.95c-.5-.51-.69-1.23-.48-1.9l.69-2.62c.03-.12,0-.25-.08-.33-.08-.09-.22-.12-.34-.08l-2.65,.69c-.63,.19-1.35,0-1.85-.49l-1.94-1.92c-.09-.1-.21-.12-.33-.09-.12,.03-.21,.12-.24,.23l-.71,2.64c-.15,.66-.68,1.2-1.37,1.38l-2.63,.72c-.13,.03-.21,.12-.25,.25-.03,.1,.01,.23,.1,.32l1.92,1.94c.48,.45,.68,1.17,.5,1.85l-.71,2.63c-.01,.06-.03,.22,.08,.34,.16,.15,.29,.11,.34,.1,0,0,.01,0,.02,0l2.63-.71c.17-.04,.33-.06,.5-.06Z"/><path class="cls-199" d="M644.16,169.7H68.14c-.39,0-.71-.32-.71-.71s.32-.71,.71-.71H644.16c.39,0,.71,.32,.71,.71s-.32,.71-.71,.71Z"/><path class="cls-199" d="M119.26,113.88c-.28,0-.54-.14-.69-.4-.22-.38-.09-.87,.29-1.09l64.41-36.92s.08-.04,.12-.06c1.3-.48,2.11-1.19,2.39-2.12,.51-1.68-.71-3.86-1.22-4.55-.26-.35-.18-.85,.17-1.11,.36-.26,.85-.18,1.11,.17,.09,.13,2.29,3.18,1.45,5.96-.43,1.42-1.54,2.47-3.3,3.13l-64.35,36.89c-.12,.07-.26,.11-.39,.11Zm-58.33-33.46c-.25,0-.49-.11-.64-.33-.09-.13-2.29-3.18-1.45-5.95,.43-1.42,1.54-2.47,3.3-3.13L126.48,34.13c.38-.22,.87-.09,1.09,.29s.09,.87-.29,1.09L62.87,72.43s-.08,.04-.12,.06c-1.3,.48-2.1,1.19-2.39,2.11-.61,2.01,1.2,4.53,1.22,4.56,.26,.36,.18,.85-.17,1.11-.14,.1-.31,.15-.47,.15Z"/><polygon class="cls-199" points="77.29 165.43 77.29 172.54 55.54 168.99 77.29 165.43"/><polygon class="cls-199" points="636.91 165.43 636.91 172.54 658.66 168.99 636.91 165.43"/><polygon class="cls-199" points="28.21 93.75 35.33 93.75 31.78 115.5 28.21 93.75"/><polygon class="cls-199" points="698.88 96.31 706 96.31 702.44 118.06 698.88 96.31"/><polygon class="cls-199" points="706 48.72 698.88 48.72 702.44 26.96 706 48.72"/><rect class="cls-199" x="701.73" y="43.37" width="1.42" height="57.46"/></g></g></svg>