<?xml version="1.0" encoding="UTF-8"?><svg id="_圖層_2" xmlns="http://www.w3.org/2000/svg" xmlns:xlink="http://www.w3.org/1999/xlink" viewBox="0 0 241.44 125.02"><defs><style>.cls-1{fill:url(#linear-gradient);}.cls-1,.cls-2,.cls-3,.cls-4,.cls-5,.cls-6{fill-rule:evenodd;}.cls-7{fill:#221714;}.cls-2{fill:#b50066;}.cls-3{fill:url(#linear-gradient-3);}.cls-4{fill:url(#linear-gradient-2);}.cls-5{fill:url(#linear-gradient-4);}</style><linearGradient id="linear-gradient" x1="35.27" y1="66.96" x2="35.27" y2="121.83" gradientUnits="userSpaceOnUse"><stop offset=".04" stop-color="#00638b"/><stop offset=".42" stop-color="#fff"/><stop offset=".42" stop-color="#f7f2ef"/><stop offset=".42" stop-color="#e7d7ca"/><stop offset=".42" stop-color="#d9beaa"/><stop offset=".42" stop-color="#cdaa8f"/><stop offset=".43" stop-color="#c39979"/><stop offset=".43" stop-color="#bc8c68"/><stop offset=".44" stop-color="#b6835c"/><stop offset=".44" stop-color="#b37e55"/><stop offset=".46" stop-color="#b37d54"/><stop offset=".54" stop-color="#b88012"/><stop offset=".6" stop-color="#bb8323"/><stop offset=".9" stop-color="#fff"/></linearGradient><linearGradient id="linear-gradient-2" x1="68.45" y1="66.97" x2="68.45" y2="121.83" xlink:href="#linear-gradient"/><linearGradient id="linear-gradient-3" x1="100.09" y1="66.97" x2="100.09" y2="121.83" xlink:href="#linear-gradient"/><linearGradient id="linear-gradient-4" x1="181.22" y1="66.96" x2="181.22" y2="121.83" xlink:href="#linear-gradient"/></defs><g id="_圖層_1-2"><g><g><path class="cls-6" d="M90.84,74.32c-3.92,2.57-8.44,2.58-10.12,.04-1.69-2.56,.13-6.7,4.04-9.27,3.91-2.57,8.44-2.59,10.13-.03,1.67,2.55-.14,6.7-4.05,9.27Z"/><polygon class="cls-6" points="29.94 62.57 44.21 62.57 46.76 94.69 59.98 62.57 74.4 62.57 48.57 123.56 37.61 123.56 32.79 89.11 16.9 123.56 3.87 123.56 29.94 62.57"/><polygon class="cls-6" points="74.63 81.42 87.89 81.42 69.98 123.56 56.71 123.56 74.63 81.42"/><path class="cls-6" d="M96.51,81.42h11.62l-1.74,4.64s7.46-6.7,16.02-5.14c8.57,1.56,7.82,9.48,4.84,16.33-2.97,6.85-11.35,26.3-11.35,26.3h-12.75l11.49-26.61s2.8-6.53-2.34-6.53-7.61,4.36-10.41,9.33c-2.81,4.98-10.41,23.81-10.41,23.81h-12.91l17.93-42.13Z"/><path class="cls-6" d="M215.92,1.75c-16.21-.81-38.59,13.58-48.21,33.45-3.32,6.8-5.85,14.23-5.15,21.93,2.81,30.18,36.09,19.13,36.09,19.13-12.29,20.53-26.9,36.71-44.94,39.82-18.04,3.12-11.67-10.73-11.67-10.73h26.59c2.97-2.96,8.87-24.04-8.23-24.73-19.97-.81-29.56,22.09-29.56,22.09-6.07,12.6-.78,30.8,37.18,17.89,40.9-13.91,70.64-56.78,73.26-87.27,2.66-30.5-25.35-31.58-25.35-31.58Zm-58.18,87.74c5.6,1.71,1.9,7.77,1.9,7.77h-14.17s5.66-9.79,12.27-7.77Zm59.74-59.89c-1.4,5.6-11.05,33.75-11.05,33.75,0,0-4.2,8.4-10.27,6.37-6.06-2.02-8.56-4.67-6.53-18.66,2.02-14,10.11-33.14,10.11-33.14,0,0,4.72-14.26,15.56-9.33,6.84,3.11,3.57,15.4,2.18,21Z"/></g><path class="cls-7" d="M217.7,103.23c2.4,0,4.46,.85,6.15,2.56,1.68,1.69,2.5,3.71,2.5,6.07s-.85,4.44-2.52,6.07c-1.76,1.71-3.81,2.56-6.13,2.56s-4.41-.86-6.11-2.59c-1.68-1.7-2.51-3.72-2.51-6.05s.86-4.42,2.62-6.18c1.59-1.64,3.61-2.45,6-2.45Zm7.5,8.7c0-2.14-.71-3.92-2.12-5.35-1.49-1.48-3.27-2.23-5.37-2.23s-3.83,.7-5.22,2.14c-1.52,1.54-2.28,3.33-2.28,5.38s.73,3.75,2.2,5.25c1.48,1.49,3.21,2.22,5.23,2.22s3.87-.73,5.38-2.2c1.45-1.4,2.18-3.14,2.18-5.21Zm-7.26-5.13c2.72,0,4.09,.9,4.09,2.69,0,1.46-.74,2.34-2.25,2.63l2.19,4.46h-2.09l-1.98-4.16h-1.81v4.16h-1.85v-9.78h3.7Zm-.33,1.18h-1.52v3.26h1.56c1.66,0,2.49-.52,2.49-1.56,0-1.13-.85-1.7-2.53-1.7Z"/><path class="cls-2" d="M86.99,72.59c-3.92,2.57-8.45,2.59-10.13,.04-1.68-2.55,.12-6.7,4.05-9.27,3.89-2.57,8.43-2.58,10.12-.04,1.68,2.55-.13,6.71-4.04,9.27Z"/><polygon class="cls-1" points="26.06 60.85 40.34 60.85 42.9 92.98 56.11 60.85 70.54 60.85 44.7 121.83 33.75 121.83 28.93 87.39 13.06 121.83 0 121.83 26.06 60.85"/><polygon class="cls-4" points="70.77 79.7 84.04 79.7 66.11 121.83 52.86 121.83 70.77 79.7"/><path class="cls-3" d="M92.64,79.7h11.63l-1.73,4.64s7.48-6.7,16.03-5.14c8.55,1.55,7.82,9.47,4.83,16.33-2.98,6.86-11.36,26.3-11.36,26.3h-12.76l11.51-26.61s2.78-6.53-2.34-6.53-7.62,4.35-10.42,9.33c-2.8,4.98-10.39,23.8-10.39,23.8h-12.92l17.91-42.13Z"/><path class="cls-5" d="M212.06,.03c-16.21-.82-38.59,13.58-48.24,33.44-3.29,6.81-5.84,14.23-5.13,21.93,2.8,30.19,36.08,19.14,36.08,19.14-12.29,20.53-26.9,36.71-44.94,39.82-18.04,3.11-11.67-10.74-11.67-10.74h26.62c2.94-2.95,8.85-24.04-8.26-24.73-19.97-.81-29.56,22.09-29.56,22.09-6.06,12.6-.78,30.8,37.18,17.88,40.89-13.9,70.62-56.77,73.27-87.27C240.05,1.12,212.06,.03,212.06,.03Zm-58.18,87.74c5.61,1.71,1.89,7.76,1.89,7.76h-14.15s5.66-9.78,12.26-7.76Zm59.73-59.9c-1.39,5.6-11.04,33.76-11.04,33.76,0,0-4.19,8.4-10.26,6.38-6.09-2.03-8.58-4.66-6.54-18.67,2.02-14,10.11-33.14,10.11-33.14,0,0,4.72-14.26,15.55-9.33,6.86,3.12,3.59,15.4,2.18,21Z"/></g></g></svg>