<?xml version="1.0" encoding="UTF-8"?><svg id="_圖層_2" xmlns="http://www.w3.org/2000/svg" viewBox="0 0 140.38 138.41"><defs><style>.cls-1{fill:#231815;}</style></defs><g id="_圖層_1-2"><g><path class="cls-1" d="M91.56,114.26c-.07,0-.13-.01-.19-.04-.18-.08-.3-.26-.3-.45v-6l-1.25-2.03c-.05-.08-.07-.17-.07-.26v-5.95c-.1-.01-.2-.06-.28-.13-.2-.19-.2-.5-.02-.7l.29-.31V54.51c-.11-.17-.11-.38,0-.55v-5.97c-.11-.17-.11-.38,0-.55v-5.76c-.11-.16-.11-.38,0-.55v-4.81c0-.15,.06-.28,.18-.38l1.66-1.39-.08-6.22c0-.21,.12-.39,.31-.47,.19-.07,.41-.02,.55,.13l7.77,8.75c.09,.02,.18,.06,.25,.13,.1,.09,.15,.21,.15,.33l2.32,2.61c.17-.06,.36-.02,.49,.1,.16,.15,.2,.39,.11,.58l1.82,2.05c.15-.03,.31,.01,.43,.12,.14,.13,.19,.34,.13,.51l2.41,2.72h0c.12,0,.24,.04,.34,.13,.12,.11,.17,.27,.15,.42l2.32,2.61c.09,.02,.18,.06,.25,.12,.1,.09,.15,.21,.16,.34l.26,.29c.08,.09,.12,.21,.12,.33v7.63c.03,.07,.05,.14,.05,.22s-.02,.15-.05,.22v30.13c.07,.14,.07,.3,0,.44v5.94c0,.13-.05,.26-.15,.35l-19.8,19.05c-.09,.09-.22,.14-.34,.14Zm.49-5.47v3.82l18.82-18.1v-4.7l-18.82,18.99Zm-1.32-3.46l1.25,2.03s.02,.04,.03,.07l18.86-19.03v-3.24h-2.04l-18.1,20.08v.09Zm0-6.55v5l16.78-18.61h-3.77l-13.01,13.62Zm0-4.95v3.52l11.65-12.19h-3.53l-3.56,3.46v.12c0,.31-.31,.53-.59,.48l-3.96,4.61Zm0-4.6v3.09l2.65-3.09h-2.65Zm0-.98h3.5l.07-.08V55.93l-.25-.29c-.1,0-.21-.05-.29-.13-.11-.1-.16-.25-.16-.39l-.26-.3h-2.61v33.43Zm4.55-31.24v30.01l.54-.63c.13-.15,.32-.2,.5-.16l1.98-1.92c.09-.09,.21-.14,.34-.14h4.67l.05-.05c.19-.2,.5-.21,.7-.02,.02,.02,.04,.04,.06,.07l4.31-.04c.18-.2,.49-.22,.69-.04,.03,.02,.05,.05,.07,.08h1.67v-25.7h-2.37l-.05,.05c-.18,.2-.49,.22-.7,.03-.03-.03-.05-.05-.07-.08h-9.22c-.07,0-.15-.02-.21-.05l-2.98-1.42Zm14.12,.48h1.47v-1.62l-1.47,1.62Zm-5.08,0h3.75l2.8-3.09v-4.02l-6.55,7.11Zm-5.74,0h4.4l7.27-7.88-2.11-2.38-9.59,10.24,.04,.02Zm-2.78-1.33l1.81,.87,9.87-10.54-2.28-2.56-10.35,11.13h0c.24,.03,.43,.24,.43,.49h0s.52,.62,.52,.62Zm-4.61-2.33h2.38c.14,0,.28,.06,.37,.17l.26,.3,10.34-11.11-1.74-1.96-11.61,12.6Zm-.46-6.02v5.06l11.42-12.38-2.18-2.46-9.23,9.78Zm0-6.33v4.9l8.58-9.09-2.53-2.85-6.05,7.04Zm0-4.94v3.43l5.39-6.27-3.62-4.07,.07,5.14c0,.15-.06,.29-.18,.38l-1.67,1.4Z"/><path class="cls-1" d="M15.45,101.52l8.87-6.09,.81,1.17-7.82,5.37,3,4.37-1.05,.72-3.8-5.54Z"/><path class="cls-1" d="M40.33,114.31c-.76,0-1.55-.29-2.36-.86l-.14-.16L14.82,73.73h0s-2.05-2.63,.53-5.86L37.27,30.03c.1-.2,.85-1.61,2.32-1.86,1.11-.19,2.28,.32,3.49,1.51l.08,.11,22.86,40.21c.25,.27,.99,1.25,.1,2.9-.85,1.58-21.94,37.93-22.84,39.48-.01,.03-.73,1.47-2.21,1.85-.24,.06-.48,.09-.73,.09Zm-1.71-1.6c.8,.54,1.53,.73,2.19,.56,1.04-.26,1.59-1.35,1.6-1.36,.24-.41,21.99-37.92,22.84-39.48,.63-1.17,.11-1.7,.04-1.76l-.1-.12L42.33,30.33c-.95-.92-1.82-1.33-2.58-1.19-1.03,.18-1.6,1.33-1.61,1.34l-.02,.04-21.96,37.92c-2.13,2.67-.6,4.67-.53,4.75l22.99,39.53Zm1.6-30.22c-6.21,0-11.26-5.05-11.26-11.25s5.05-11.25,11.26-11.25,11.24,5.05,11.24,11.25-5.04,11.25-11.24,11.25Zm0-21.52c-5.67,0-10.27,4.61-10.27,10.27s4.61,10.27,10.27,10.27,10.25-4.61,10.25-10.27-4.6-10.27-10.25-10.27Zm.08,18.62c-4.62,0-8.38-3.76-8.38-8.38s3.76-8.37,8.38-8.37,8.37,3.75,8.37,8.37-3.75,8.38-8.37,8.38Zm0-15.76c-4.08,0-7.39,3.31-7.39,7.38s3.32,7.39,7.39,7.39,7.38-3.32,7.38-7.39-3.31-7.38-7.38-7.38Z"/><path class="cls-1" d="M97.26,126.22l1.29-.11c.06,.52,.2,.94,.43,1.28s.57,.6,1.04,.81c.47,.21,1,.31,1.59,.31,.52,0,.98-.08,1.39-.23,.4-.16,.7-.37,.89-.64,.2-.27,.29-.57,.29-.89s-.09-.61-.28-.85c-.19-.24-.5-.45-.93-.61-.28-.11-.89-.28-1.84-.5-.95-.23-1.62-.44-2-.65-.5-.26-.86-.58-1.11-.96-.24-.38-.36-.81-.36-1.29,0-.52,.15-1.01,.45-1.47,.3-.45,.73-.8,1.3-1.04s1.2-.35,1.9-.35c.77,0,1.45,.12,2.03,.37,.59,.25,1.04,.61,1.35,1.09,.32,.48,.49,1.03,.51,1.63l-1.31,.1c-.07-.65-.31-1.15-.72-1.48-.41-.33-1.01-.5-1.81-.5s-1.43,.15-1.81,.46c-.38,.3-.57,.67-.57,1.1,0,.37,.13,.68,.4,.92,.26,.24,.95,.49,2.07,.74s1.88,.47,2.29,.66c.6,.28,1.05,.63,1.33,1.06,.29,.43,.43,.92,.43,1.47s-.16,1.07-.47,1.56c-.32,.49-.77,.87-1.36,1.14-.59,.27-1.26,.41-2,.41-.94,0-1.72-.14-2.36-.41-.63-.27-1.13-.68-1.49-1.23-.36-.55-.55-1.17-.57-1.86Z"/><polygon class="cls-1" points="110.76 133.62 124.72 135.98 124.76 131.5 110.76 133.62"/><polygon class="cls-1" points="76.98 135.98 90.93 133.62 76.94 131.5 76.98 135.98"/><path class="cls-1" d="M111.92,138.41h-.82v-41.58h.82v41.58Zm-20.64,0h-.82v-25.94h.82v25.94Z"/><rect class="cls-1" x="61.5" y="133.33" width="78.89" height=".82"/><path class="cls-1" d="M27.62,133.07l-.75-.55,12.06-16.65,.75,.55-12.06,16.65Zm-1.61-8.28L3.71,87.88l.8-.48,22.3,36.91-.8,.48ZM.77,91.2l-.77-.53,11.66-17.01,.77,.53L.77,91.2Z"/><polygon class="cls-1" points="20.12 118.5 29.52 129.07 23.9 116.09 20.12 118.5"/><polygon class="cls-1" points="12.05 96.96 2.92 86.15 8.21 99.28 12.05 96.96"/><polygon class="cls-1" points="48.35 16.26 51.08 19.05 41.03 26.19 48.35 16.26"/><polygon class="cls-1" points="47.94 20.09 47.36 19.5 54.54 12.32 69.76 12.32 69.76 13.14 54.89 13.14 47.94 20.09"/><g><path class="cls-1" d="M55.41,10.36V0h4.59c.92,0,1.62,.09,2.11,.28,.48,.19,.87,.51,1.15,.99,.29,.47,.43,.99,.43,1.56,0,.74-.24,1.35-.71,1.86-.48,.5-1.21,.83-2.21,.96,.36,.17,.64,.35,.83,.52,.4,.37,.78,.83,1.14,1.38l1.8,2.82h-1.72l-1.37-2.16c-.4-.62-.73-1.1-.99-1.43-.26-.33-.49-.56-.7-.69s-.41-.22-.63-.28c-.16-.03-.41-.05-.76-.05h-1.59v4.6h-1.37Zm1.37-5.79h2.95c.63,0,1.12-.07,1.47-.19,.35-.13,.62-.34,.81-.62s.28-.59,.28-.93c0-.49-.18-.89-.53-1.21-.36-.32-.92-.47-1.69-.47h-3.28v3.43Z"/><path class="cls-1" d="M70.81,7.94l1.31,.16c-.21,.77-.59,1.36-1.15,1.79-.56,.42-1.28,.64-2.15,.64-1.1,0-1.97-.34-2.61-1.01-.64-.68-.96-1.62-.96-2.84s.33-2.24,.98-2.94c.65-.7,1.49-1.05,2.53-1.05s1.82,.34,2.46,1.03c.64,.68,.95,1.64,.95,2.88,0,.08,0,.19,0,.34h-5.6c.05,.82,.28,1.46,.7,1.89,.42,.44,.94,.66,1.57,.66,.47,0,.87-.12,1.19-.37,.33-.25,.59-.64,.79-1.17Zm-4.18-2.06h4.19c-.06-.63-.22-1.11-.48-1.42-.41-.49-.93-.74-1.58-.74-.58,0-1.08,.2-1.47,.59-.4,.39-.62,.91-.66,1.57Z"/></g></g></g></svg>