<?xml version="1.0" encoding="UTF-8"?><svg id="_圖層_2" xmlns="http://www.w3.org/2000/svg" viewBox="0 0 261.92 180"><defs><style>.cls-1{fill:#ffe500;}.cls-2{fill:#bebfbf;}.cls-3{fill:#231815;}</style></defs><g id="_圖層_1-2"><g><rect class="cls-2" y="75.67" width="261.92" height="104.33"/><polygon class="cls-1" points="76.48 51.23 161.2 51.23 124.48 110.14 113.55 110.14 76.48 51.23"/><rect class="cls-3" x="209.72" y="37.46" width=".79" height="16"/><polygon class="cls-3" points="206.49 53.46 213.71 53.46 210.11 75.64 206.49 53.46"/><rect class="cls-3" x="209.71" y="132.73" width=".78" height="22.44"/><polygon class="cls-3" points="213.71 132.73 206.49 132.73 210.09 110.55 213.71 132.73"/><polygon class="cls-3" points="202.18 101.27 202.18 86.76 196.78 86.76 196.78 84.8 209.74 84.8 209.74 86.76 204.33 86.76 204.33 101.27 202.18 101.27"/><path class="cls-3" d="M211.37,101.27v-8.97h1.35v1.24c.28-.44,.65-.78,1.12-1.06,.46-.26,.99-.39,1.58-.39,.66,0,1.2,.13,1.62,.4,.42,.28,.72,.66,.9,1.16,.7-1.05,1.62-1.56,2.76-1.56,.88,0,1.58,.25,2.05,.73,.48,.5,.72,1.25,.72,2.28v6.17h-1.51v-5.66c0-.62-.05-1.05-.15-1.32-.09-.28-.27-.49-.53-.65-.26-.17-.57-.24-.91-.24-.63,0-1.16,.21-1.57,.63-.42,.42-.62,1.09-.62,2.02v5.22h-1.5v-5.84c0-.68-.13-1.19-.37-1.52-.25-.34-.65-.5-1.2-.5-.43,0-.82,.11-1.18,.34-.36,.23-.62,.55-.78,.99-.16,.43-.24,1.06-.24,1.87v4.67h-1.51Z"/><path class="cls-3" d="M231.38,96.74c-.55,.23-1.37,.42-2.47,.59-.62,.09-1.06,.18-1.32,.3-.26,.12-.45,.28-.6,.5-.13,.21-.21,.46-.21,.73,0,.41,.15,.75,.46,1.02,.3,.27,.75,.41,1.34,.41s1.1-.13,1.56-.39c.45-.25,.79-.61,1-1.06,.17-.35,.25-.86,.25-1.53v-.57Zm.11,3.41c-.55,.48-1.09,.83-1.61,1.03-.51,.2-1.07,.3-1.67,.3-.98,0-1.73-.25-2.26-.73-.53-.47-.8-1.1-.8-1.85,0-.43,.1-.84,.3-1.2,.21-.36,.45-.65,.78-.88,.32-.22,.69-.38,1.09-.5,.3-.08,.75-.16,1.35-.23,1.22-.15,2.11-.32,2.7-.51v-.4c.01-.62-.13-1.06-.41-1.31-.4-.34-.96-.52-1.73-.52-.72,0-1.24,.12-1.57,.38-.35,.25-.59,.7-.76,1.33l-1.48-.2c.14-.64,.36-1.15,.67-1.54,.31-.4,.75-.7,1.33-.9,.59-.21,1.26-.32,2.03-.32s1.37,.08,1.85,.26c.47,.19,.82,.41,1.05,.68,.22,.28,.38,.62,.47,1.04,.04,.25,.07,.72,.07,1.4v2.02c0,1.42,.03,2.32,.09,2.69,.07,.37,.18,.74,.38,1.07h-1.55c-.17-.32-.28-.7-.32-1.12"/><path class="cls-3" d="M234.2,101.27l3.26-4.66-3.01-4.31h1.85l1.42,2.11c.25,.41,.44,.73,.61,.97,.25-.36,.48-.68,.68-.97l1.48-2.11h1.83l-3.02,4.31,3.24,4.66h-1.83l-1.84-2.78-.44-.67-2.4,3.45h-1.83Z"/><rect class="cls-3" x="244.25" y="99.53" width="1.73" height="1.74"/><polygon class="cls-3" points="124.77 23.14 124.77 30.41 146.84 26.78 124.77 23.14"/><polygon class="cls-3" points="113.83 23.14 113.83 30.41 91.75 26.78 113.83 23.14"/><path class="cls-3" d="M112.51,16.24V7.26h1.35v1.25c.27-.43,.65-.79,1.1-1.05,.47-.27,1-.41,1.6-.41,.66,0,1.2,.15,1.62,.42,.42,.27,.71,.65,.89,1.15,.71-1.04,1.63-1.57,2.76-1.57,.88,0,1.57,.25,2.04,.74,.48,.5,.72,1.26,.72,2.28v6.16h-1.51v-5.66c0-.61-.05-1.05-.14-1.31-.1-.27-.28-.49-.53-.65-.27-.16-.57-.25-.91-.25-.62,0-1.15,.21-1.56,.63-.42,.43-.63,1.09-.63,2.02v5.22h-1.5v-5.83c0-.68-.13-1.19-.36-1.53-.25-.33-.65-.51-1.21-.51-.42,0-.82,.11-1.17,.34-.37,.24-.63,.56-.79,.99-.17,.44-.24,1.06-.24,1.89v4.65h-1.5Z"/><path class="cls-3" d="M132.52,11.72c-.55,.23-1.37,.42-2.47,.58-.62,.09-1.06,.19-1.32,.31-.25,.12-.45,.28-.59,.5-.14,.22-.21,.46-.21,.73,0,.41,.15,.75,.46,1.02,.31,.28,.75,.41,1.34,.41s1.1-.13,1.56-.39c.46-.26,.79-.6,1.01-1.05,.16-.35,.24-.86,.24-1.54v-.56Zm.11,3.39c-.55,.48-1.09,.83-1.61,1.02-.51,.21-1.07,.31-1.66,.31-.98,0-1.74-.24-2.27-.72-.52-.48-.79-1.1-.79-1.85,0-.43,.1-.84,.3-1.21,.2-.36,.46-.65,.78-.87,.32-.23,.69-.38,1.09-.5,.3-.08,.75-.16,1.35-.23,1.22-.15,2.12-.32,2.7-.52v-.4c0-.62-.13-1.06-.42-1.31-.39-.34-.96-.51-1.72-.51-.71,0-1.23,.12-1.57,.38-.34,.25-.59,.7-.76,1.34l-1.48-.21c.14-.64,.35-1.15,.66-1.54,.3-.39,.75-.69,1.33-.9,.58-.21,1.25-.32,2.02-.32s1.38,.09,1.85,.27c.47,.18,.83,.41,1.05,.68,.23,.27,.39,.61,.48,1.04,.05,.25,.08,.72,.08,1.4v2.03c0,1.41,.03,2.31,.09,2.68,.07,.37,.18,.73,.38,1.07h-1.54c-.17-.32-.28-.7-.32-1.12"/><path class="cls-3" d="M135.34,16.24l3.26-4.64-3.01-4.33h1.85l1.42,2.13c.25,.4,.45,.73,.6,.97,.25-.36,.47-.69,.68-.97l1.48-2.13h1.84l-3.03,4.32,3.24,4.65h-1.83l-1.84-2.77-.44-.67-2.39,3.44h-1.84Z"/><rect class="cls-3" x="145.82" y="14.51" width="1.73" height="1.74"/><path class="cls-3" d="M220.66,110.77h-90.49v-1.04h90.49v1.04Zm0-34.56h-69.51v-1.04h69.51v1.04Zm-127.98-4.19h-1.04V22.32h1.04v49.7Zm54.23-.31h-1.04V21.53h1.04v50.18Zm-10.46-44.42h-34.84v-1.04h34.84v1.04Z"/><path class="cls-3" d="M114.69,110.94c-.37,0-2.65-.11-4.21-2.59-1.37-2.19-37.08-59.95-37.44-60.53l1.71-1.06c.36,.58,36.06,58.34,37.43,60.52,1.04,1.65,2.49,1.63,2.53,1.65h8.56c.12,.02,1.52,0,2.56-1.65,1.37-2.18,37.07-59.94,37.43-60.52l1.71,1.06c-.36,.58-36.06,58.35-37.44,60.53-1.68,2.67-4.2,2.6-4.3,2.59h-8.49s-.02,0-.05,0Z"/><path class="cls-3" d="M98.51,14.55h3.51c1.08,0,1.93-.1,2.55-.3,.61-.2,1.11-.49,1.47-.85,.51-.52,.92-1.21,1.2-2.09s.43-1.93,.43-3.18c0-1.73-.28-3.05-.85-3.98-.56-.93-1.25-1.55-2.05-1.86-.58-.23-1.52-.34-2.81-.34h-3.45V14.55Zm-2.17,1.95V0h5.65c1.28,0,2.25,.08,2.92,.24,.94,.22,1.74,.61,2.41,1.18,.87,.74,1.51,1.68,1.94,2.82,.43,1.14,.64,2.45,.64,3.92,0,1.25-.14,2.36-.44,3.33-.29,.97-.66,1.77-1.12,2.4-.45,.64-.95,1.13-1.49,1.5s-1.19,.64-1.96,.83c-.77,.19-1.64,.28-2.64,.28h-5.92Z"/></g></g></svg>